<svg xmlns="http://www.w3.org/2000/svg" viewBox="0 0 704 448" width="704" height="448" font-family="Georgia,serif" data-cell="32"><defs><pattern id="wallface" width="24" height="12" patternUnits="userSpaceOnUse"><rect width="24" height="12" fill="#7d4634"/><path d="M0 5.5H24M0 11.5H24M8 0V5.5M20 6V11.5" stroke="#3a1f16" stroke-width="1.2"/></pattern><pattern id="stonef" width="48" height="32" patternUnits="userSpaceOnUse"><rect width="48" height="32" fill="#8e8474"/><rect x="1" y="1" width="21" height="14" fill="#000" fill-opacity=".06"/><rect x="25" y="17" width="22" height="14" fill="#fff" fill-opacity=".06"/><path d="M0 15.5H48M0 31.5H48M23 0V15.5M11 16V31.5M36 16V31.5" stroke="#716858" stroke-width="1.2"/></pattern><pattern id="tiles" width="16" height="16" patternUnits="userSpaceOnUse"><rect width="16" height="16" fill="#716858"/><rect x=".6" y=".6" width="6.8" height="6.8" fill="#b0a898"/><rect x="8.6" y=".6" width="6.8" height="6.8" fill="#8e8676" fill-opacity=".6"/><rect x=".6" y="8.6" width="6.8" height="6.8" fill="#8e8676" fill-opacity=".6"/><rect x="8.6" y="8.6" width="6.8" height="6.8" fill="#b0a898"/></pattern>
<pattern id="hatch" width="8" height="8" patternUnits="userSpaceOnUse" patternTransform="rotate(45)"><rect width="8" height="8" fill="#5a3226"/><line x1="0" y1="0" x2="0" y2="8" stroke="#3a1f16" stroke-width="3"/></pattern>
<pattern id="waves" width="24" height="12" patternUnits="userSpaceOnUse"><path d="M0 6 Q6 0 12 6 T24 6" fill="none" stroke="#ffffff" stroke-opacity=".25" stroke-width="1.5"/></pattern>
<pattern id="planks" width="64" height="8" patternUnits="userSpaceOnUse"><rect width="64" height="8" fill="#6e5236"/><line x1="0" y1="7.5" x2="64" y2="7.5" stroke="#4a3522" stroke-width="1"/><line x1="23" y1="0" x2="23" y2="7.5" stroke="#4a3522" stroke-width=".8"/><line x1="51" y1="0" x2="51" y2="7.5" stroke="#4a3522" stroke-width=".8"/></pattern>
<pattern id="cobble" width="16" height="16" patternUnits="userSpaceOnUse"><rect width="16" height="16" fill="#a8a39a"/><circle cx="4" cy="4" r="3" fill="#b8b3aa"/><circle cx="12" cy="11" r="3.5" fill="#9b968d"/></pattern>
<pattern id="flag" width="32" height="32" patternUnits="userSpaceOnUse"><rect width="32" height="32" fill="#8e8474"/><path d="M0 16H32M16 0V16M8 16V32M24 16V32" stroke="#716858" stroke-width="1"/></pattern>
<pattern id="carpet" width="32" height="32" patternUnits="userSpaceOnUse"><rect width="32" height="32" fill="#5a2a22"/><path d="M16 4 L28 16 L16 28 L4 16 Z" fill="none" stroke="#b5471f" stroke-opacity=".55" stroke-width="1.2"/><circle cx="16" cy="16" r="2" fill="#b5471f" fill-opacity=".6"/></pattern>
<pattern id="marble" width="64" height="64" patternUnits="userSpaceOnUse"><rect width="64" height="64" fill="#b0a898"/><path d="M0 40 C16 30 26 52 44 38 S60 20 64 26" fill="none" stroke="#8e8676" stroke-width="1.2"/><path d="M10 0 C14 12 4 20 12 32" fill="none" stroke="#8e8676" stroke-width=".8"/><path d="M0 0H64V64" fill="none" stroke="#8e8676" stroke-opacity=".6"/></pattern>
<radialGradient id="canopy" cx="40%" cy="35%"><stop offset="0" stop-color="#5f9a3c"/><stop offset="1" stop-color="#2e5a22"/></radialGradient>
<radialGradient id="rock" cx="35%" cy="30%"><stop offset="0" stop-color="#b5aea3"/><stop offset="1" stop-color="#6b645a"/></radialGradient>
<radialGradient id="lampglow"><stop offset="0" stop-color="#ffd98a" stop-opacity=".75"/><stop offset=".45" stop-color="#ffb347" stop-opacity=".25"/><stop offset="1" stop-color="#ffb347" stop-opacity="0"/></radialGradient>
<radialGradient id="felt" cx="45%" cy="40%"><stop offset="0" stop-color="#2f7a4a"/><stop offset="1" stop-color="#174a2c"/></radialGradient>
<filter id="glow"><feGaussianBlur stdDeviation="3" result="b"/><feMerge><feMergeNode in="b"/><feMergeNode in="SourceGraphic"/></feMerge></filter>
</defs><rect x="0" y="0" width="704" height="32" fill="url(#hatch)"/><rect x="0" y="32" width="32" height="32" fill="url(#hatch)"/><rect x="32" y="32" width="128" height="32" fill="#bdb29b"/><rect x="160" y="32" width="64" height="32" fill="url(#stonef)"/><rect x="224" y="32" width="32" height="32" fill="url(#hatch)"/><rect x="256" y="32" width="416" height="32" fill="url(#stonef)"/><rect x="672" y="32" width="32" height="32" fill="url(#hatch)"/><rect x="0" y="64" width="32" height="32" fill="url(#hatch)"/><rect x="32" y="64" width="128" height="32" fill="#bdb29b"/><rect x="160" y="64" width="64" height="32" fill="url(#stonef)"/><rect x="224" y="64" width="32" height="32" fill="url(#hatch)"/><rect x="256" y="64" width="416" height="32" fill="url(#stonef)"/><rect x="672" y="64" width="32" height="32" fill="url(#hatch)"/><rect x="0" y="96" width="32" height="32" fill="url(#hatch)"/><rect x="32" y="96" width="128" height="32" fill="#bdb29b"/><rect x="160" y="96" width="64" height="32" fill="url(#stonef)"/><rect x="224" y="96" width="32" height="32" fill="url(#hatch)"/><rect x="256" y="96" width="416" height="32" fill="url(#stonef)"/><rect x="672" y="96" width="32" height="32" fill="url(#hatch)"/><rect x="0" y="128" width="32" height="32" fill="url(#hatch)"/><rect x="32" y="128" width="128" height="32" fill="#bdb29b"/><rect x="160" y="128" width="64" height="32" fill="url(#stonef)"/><rect x="224" y="128" width="32" height="32" fill="url(#hatch)"/><rect x="256" y="128" width="416" height="32" fill="url(#stonef)"/><rect x="672" y="128" width="32" height="32" fill="url(#hatch)"/><rect x="0" y="160" width="32" height="32" fill="url(#hatch)"/><rect x="32" y="160" width="64" height="32" fill="#bdb29b"/><rect x="96" y="160" width="128" height="32" fill="url(#stonef)"/><rect x="224" y="160" width="32" height="32" fill="url(#hatch)"/><rect x="256" y="160" width="416" height="32" fill="url(#stonef)"/><rect x="672" y="160" width="32" height="32" fill="url(#hatch)"/><rect x="0" y="192" width="32" height="32" fill="url(#hatch)"/><rect x="32" y="192" width="64" height="32" fill="#bdb29b"/><rect x="96" y="192" width="576" height="32" fill="url(#stonef)"/><rect x="672" y="192" width="32" height="32" fill="url(#hatch)"/><rect x="0" y="224" width="32" height="32" fill="url(#hatch)"/><rect x="32" y="224" width="640" height="32" fill="url(#stonef)"/><rect x="672" y="224" width="32" height="32" fill="url(#hatch)"/><rect x="0" y="256" width="32" height="32" fill="url(#hatch)"/><rect x="32" y="256" width="192" height="32" fill="url(#stonef)"/><rect x="224" y="256" width="32" height="32" fill="url(#hatch)"/><rect x="256" y="256" width="416" height="32" fill="url(#stonef)"/><rect x="672" y="256" width="32" height="32" fill="url(#hatch)"/><rect x="0" y="288" width="32" height="32" fill="url(#hatch)"/><rect x="32" y="288" width="32" height="32" fill="url(#stonef)"/><rect x="64" y="288" width="128" height="32" fill="#bdb29b"/><rect x="192" y="288" width="32" height="32" fill="url(#stonef)"/><rect x="224" y="288" width="32" height="32" fill="url(#hatch)"/><rect x="256" y="288" width="416" height="32" fill="url(#stonef)"/><rect x="672" y="288" width="32" height="32" fill="url(#hatch)"/><rect x="0" y="320" width="32" height="32" fill="url(#hatch)"/><rect x="32" y="320" width="32" height="32" fill="url(#stonef)"/><rect x="64" y="320" width="128" height="32" fill="#bdb29b"/><rect x="192" y="320" width="32" height="32" fill="url(#stonef)"/><rect x="224" y="320" width="32" height="32" fill="url(#hatch)"/><rect x="256" y="320" width="416" height="32" fill="url(#stonef)"/><rect x="672" y="320" width="32" height="32" fill="url(#hatch)"/><rect x="0" y="352" width="32" height="32" fill="url(#hatch)"/><rect x="32" y="352" width="32" height="32" fill="url(#stonef)"/><rect x="64" y="352" width="128" height="32" fill="#bdb29b"/><rect x="192" y="352" width="32" height="32" fill="url(#stonef)"/><rect x="224" y="352" width="32" height="32" fill="url(#hatch)"/><rect x="256" y="352" width="416" height="32" fill="url(#stonef)"/><rect x="672" y="352" width="32" height="32" fill="url(#hatch)"/><rect x="0" y="384" width="32" height="32" fill="url(#hatch)"/><rect x="32" y="384" width="192" height="32" fill="url(#stonef)"/><rect x="224" y="384" width="32" height="32" fill="url(#hatch)"/><rect x="256" y="384" width="416" height="32" fill="url(#stonef)"/><rect x="672" y="384" width="32" height="32" fill="url(#hatch)"/><rect x="0" y="416" width="96" height="32" fill="url(#hatch)"/><rect x="96" y="416" width="32" height="32" fill="url(#stonef)"/><rect x="128" y="416" width="576" height="32" fill="url(#hatch)"/><rect x="32" y="0" width="32" height="32" fill="url(#wallface)" stroke="#b5471f" stroke-width="1.5"/><rect x="32" y="0" width="32" height="32" fill="#000" fill-opacity=".12"/><rect x="64" y="0" width="32" height="32" fill="url(#wallface)" stroke="#b5471f" stroke-width="1.5"/><rect x="64" y="0" width="32" height="32" fill="#000" fill-opacity=".12"/><rect x="96" y="0" width="32" height="32" fill="url(#wallface)" stroke="#b5471f" stroke-width="1.5"/><rect x="96" y="0" width="32" height="32" fill="#000" fill-opacity=".12"/><rect x="128" y="0" width="32" height="32" fill="url(#wallface)" stroke="#b5471f" stroke-width="1.5"/><rect x="128" y="0" width="32" height="32" fill="#000" fill-opacity=".12"/><rect x="160" y="0" width="32" height="32" fill="url(#wallface)" stroke="#b5471f" stroke-width="1.5"/><rect x="160" y="0" width="32" height="32" fill="#000" fill-opacity=".12"/><rect x="192" y="0" width="32" height="32" fill="url(#wallface)" stroke="#b5471f" stroke-width="1.5"/><rect x="192" y="0" width="32" height="32" fill="#000" fill-opacity=".12"/><rect x="256" y="0" width="32" height="32" fill="url(#wallface)" stroke="#b5471f" stroke-width="1.5"/><rect x="256" y="0" width="32" height="32" fill="#000" fill-opacity=".12"/><rect x="288" y="0" width="32" height="32" fill="url(#wallface)" stroke="#b5471f" stroke-width="1.5"/><rect x="288" y="0" width="32" height="32" fill="#000" fill-opacity=".12"/><rect x="320" y="0" width="32" height="32" fill="url(#wallface)" stroke="#b5471f" stroke-width="1.5"/><rect x="320" y="0" width="32" height="32" fill="#000" fill-opacity=".12"/><rect x="352" y="0" width="32" height="32" fill="url(#wallface)" stroke="#b5471f" stroke-width="1.5"/><rect x="352" y="0" width="32" height="32" fill="#000" fill-opacity=".12"/><rect x="384" y="0" width="32" height="32" fill="url(#wallface)" stroke="#b5471f" stroke-width="1.5"/><rect x="384" y="0" width="32" height="32" fill="#000" fill-opacity=".12"/><rect x="416" y="0" width="32" height="32" fill="url(#wallface)" stroke="#b5471f" stroke-width="1.5"/><rect x="416" y="0" width="32" height="32" fill="#000" fill-opacity=".12"/><rect x="448" y="0" width="32" height="32" fill="url(#wallface)" stroke="#b5471f" stroke-width="1.5"/><rect x="448" y="0" width="32" height="32" fill="#000" fill-opacity=".12"/><rect x="480" y="0" width="32" height="32" fill="url(#wallface)" stroke="#b5471f" stroke-width="1.5"/><rect x="480" y="0" width="32" height="32" fill="#000" fill-opacity=".12"/><rect x="512" y="0" width="32" height="32" fill="url(#wallface)" stroke="#b5471f" stroke-width="1.5"/><rect x="512" y="0" width="32" height="32" fill="#000" fill-opacity=".12"/><rect x="544" y="0" width="32" height="32" fill="url(#wallface)" stroke="#b5471f" stroke-width="1.5"/><rect x="544" y="0" width="32" height="32" fill="#000" fill-opacity=".12"/><rect x="576" y="0" width="32" height="32" fill="url(#wallface)" stroke="#b5471f" stroke-width="1.5"/><rect x="576" y="0" width="32" height="32" fill="#000" fill-opacity=".12"/><rect x="608" y="0" width="32" height="32" fill="url(#wallface)" stroke="#b5471f" stroke-width="1.5"/><rect x="608" y="0" width="32" height="32" fill="#000" fill-opacity=".12"/><rect x="640" y="0" width="32" height="32" fill="url(#wallface)" stroke="#b5471f" stroke-width="1.5"/><rect x="640" y="0" width="32" height="32" fill="#000" fill-opacity=".12"/><rect x="0" y="32" width="32" height="32" fill="url(#wallface)" stroke="#b5471f" stroke-width="1.5"/><rect x="0" y="32" width="32" height="32" fill="#000" fill-opacity=".12"/><circle cx="43.8" cy="39.6" r="4.0" fill="#8e8576"/><circle cx="37.7" cy="48.9" r="3.1" fill="#8e8576"/><circle cx="37.4" cy="48.2" r="2.1" fill="#8e8576"/><circle cx="46.4" cy="37.7" r="2.3" fill="#8e8576"/><circle cx="78.2" cy="55.8" r="2.4" fill="#8e8576"/><circle cx="73.4" cy="51.1" r="4.8" fill="#8e8576"/><circle cx="81.9" cy="45.5" r="4.9" fill="#8e8576"/><circle cx="69.1" cy="56.6" r="2.9" fill="#8e8576"/><circle cx="103.5" cy="38.8" r="2.9" fill="#8e8576"/><circle cx="119.6" cy="40.3" r="3.7" fill="#8e8576"/><circle cx="115.3" cy="44.9" r="3.6" fill="#8e8576"/><circle cx="101.5" cy="37.4" r="2.6" fill="#8e8576"/><circle cx="148.3" cy="46.3" r="2.9" fill="#8e8576"/><circle cx="146.1" cy="46.9" r="2.9" fill="#8e8576"/><circle cx="151.1" cy="52.8" r="2.7" fill="#8e8576"/><circle cx="145.8" cy="48.6" r="4.6" fill="#8e8576"/><rect x="224" y="32" width="32" height="32" fill="url(#wallface)" stroke="#b5471f" stroke-width="1.5"/><rect x="224" y="32" width="32" height="32" fill="#000" fill-opacity=".12"/><rect x="289" y="34" width="30" height="28" fill="#3d2a18" stroke="#b5471f" stroke-width="1.2"/><path d="M304.0 36V60" stroke="#b5471f" stroke-width="1"/><circle cx="301.0" cy="48.0" r="1.4" fill="#b5471f"/><circle cx="307.0" cy="48.0" r="1.4" fill="#b5471f"/><rect x="321" y="34" width="30" height="28" fill="#3d2a18" stroke="#b5471f" stroke-width="1.2"/><path d="M336.0 36V60" stroke="#b5471f" stroke-width="1"/><circle cx="333.0" cy="48.0" r="1.4" fill="#b5471f"/><circle cx="339.0" cy="48.0" r="1.4" fill="#b5471f"/><line x1="644" y1="37" x2="668" y2="37" stroke="#6b6358" stroke-width="3.0"/><line x1="644" y1="44" x2="668" y2="44" stroke="#6b6358" stroke-width="2.5"/><line x1="644" y1="51" x2="668" y2="51" stroke="#6b6358" stroke-width="2.0"/><line x1="644" y1="58" x2="668" y2="58" stroke="#6b6358" stroke-width="1.5"/><text x="666" y="44" font-size="10" fill="#3a342e">▲</text><rect x="672" y="32" width="32" height="32" fill="url(#wallface)" stroke="#b5471f" stroke-width="1.5"/><rect x="672" y="32" width="32" height="32" fill="#000" fill-opacity=".12"/><rect x="0" y="64" width="32" height="32" fill="url(#wallface)" stroke="#b5471f" stroke-width="1.5"/><rect x="0" y="64" width="32" height="32" fill="#000" fill-opacity=".12"/><circle cx="53.5" cy="74.9" r="4.9" fill="#8e8576"/><circle cx="38.8" cy="78.0" r="4.3" fill="#8e8576"/><circle cx="39.6" cy="79.7" r="2.1" fill="#8e8576"/><circle cx="52.0" cy="86.3" r="3.7" fill="#8e8576"/><circle cx="89.0" cy="75.5" r="4.1" fill="#8e8576"/><circle cx="82.3" cy="81.9" r="3.4" fill="#8e8576"/><circle cx="88.2" cy="90.7" r="3.4" fill="#8e8576"/><circle cx="83.9" cy="69.5" r="4.1" fill="#8e8576"/><circle cx="115.5" cy="91.8" r="4.5" fill="#8e8576"/><circle cx="106.8" cy="77.3" r="4.0" fill="#8e8576"/><circle cx="100.5" cy="79.1" r="2.5" fill="#8e8576"/><circle cx="102.8" cy="69.4" r="4.3" fill="#8e8576"/><circle cx="135.1" cy="73.9" r="3.2" fill="#8e8576"/><circle cx="152.9" cy="69.9" r="3.3" fill="#8e8576"/><circle cx="145.2" cy="89.2" r="4.5" fill="#8e8576"/><circle cx="152.7" cy="74.7" r="3.2" fill="#8e8576"/><rect x="224" y="64" width="32" height="32" fill="url(#wallface)" stroke="#b5471f" stroke-width="1.5"/><rect x="224" y="64" width="32" height="32" fill="#000" fill-opacity=".12"/><rect x="672" y="64" width="32" height="32" fill="url(#wallface)" stroke="#b5471f" stroke-width="1.5"/><rect x="672" y="64" width="32" height="32" fill="#000" fill-opacity=".12"/><rect x="0" y="96" width="32" height="32" fill="url(#wallface)" stroke="#b5471f" stroke-width="1.5"/><rect x="0" y="96" width="32" height="32" fill="#000" fill-opacity=".12"/><circle cx="44.6" cy="121.2" r="4.9" fill="#8e8576"/><circle cx="39.6" cy="104.2" r="2.7" fill="#8e8576"/><circle cx="41.6" cy="111.6" r="3.8" fill="#8e8576"/><circle cx="42.3" cy="100.1" r="3.3" fill="#8e8576"/><circle cx="76.9" cy="113.6" r="4.9" fill="#8e8576"/><circle cx="84.6" cy="112.4" r="3.9" fill="#8e8576"/><circle cx="84.2" cy="101.3" r="4.7" fill="#8e8576"/><circle cx="86.7" cy="121.0" r="4.4" fill="#8e8576"/><circle cx="109.4" cy="109.6" r="2.3" fill="#8e8576"/><circle cx="115.2" cy="101.5" r="2.2" fill="#8e8576"/><circle cx="105.0" cy="103.9" r="3.0" fill="#8e8576"/><circle cx="101.3" cy="100.0" r="2.5" fill="#8e8576"/><circle cx="134.4" cy="108.7" r="2.1" fill="#8e8576"/><circle cx="153.0" cy="114.7" r="2.4" fill="#8e8576"/><circle cx="138.1" cy="108.3" r="3.1" fill="#8e8576"/><circle cx="134.9" cy="120.4" r="5.0" fill="#8e8576"/><rect x="224" y="96" width="32" height="32" fill="url(#wallface)" stroke="#b5471f" stroke-width="1.5"/><rect x="224" y="96" width="32" height="32" fill="#000" fill-opacity=".12"/><rect x="355" y="99" width="26" height="26" fill="#555"/><circle cx="368.0" cy="112.0" r="8.0" fill="#f08a24" filter="url(#glow)"/><rect x="387" y="99" width="26" height="26" fill="#555"/><circle cx="400.0" cy="112.0" r="8.0" fill="#f08a24" filter="url(#glow)"/><rect x="419" y="99" width="26" height="26" fill="#555"/><circle cx="432.0" cy="112.0" r="8.0" fill="#f08a24" filter="url(#glow)"/><rect x="672" y="96" width="32" height="32" fill="url(#wallface)" stroke="#b5471f" stroke-width="1.5"/><rect x="672" y="96" width="32" height="32" fill="#000" fill-opacity=".12"/><rect x="0" y="128" width="32" height="32" fill="url(#wallface)" stroke="#b5471f" stroke-width="1.5"/><rect x="0" y="128" width="32" height="32" fill="#000" fill-opacity=".12"/><circle cx="47.2" cy="143.6" r="2.3" fill="#8e8576"/><circle cx="38.5" cy="140.2" r="2.8" fill="#8e8576"/><circle cx="55.9" cy="135.9" r="2.1" fill="#8e8576"/><circle cx="58.8" cy="144.7" r="2.4" fill="#8e8576"/><circle cx="81.0" cy="132.6" r="3.6" fill="#8e8576"/><circle cx="91.5" cy="152.7" r="4.1" fill="#8e8576"/><circle cx="74.3" cy="140.8" r="2.5" fill="#8e8576"/><circle cx="86.5" cy="144.8" r="4.3" fill="#8e8576"/><circle cx="107.9" cy="137.4" r="4.4" fill="#8e8576"/><circle cx="123.6" cy="152.5" r="4.4" fill="#8e8576"/><circle cx="119.6" cy="149.8" r="2.7" fill="#8e8576"/><circle cx="112.4" cy="140.5" r="2.1" fill="#8e8576"/><circle cx="132.7" cy="138.7" r="2.8" fill="#8e8576"/><circle cx="148.6" cy="155.0" r="3.3" fill="#8e8576"/><circle cx="154.5" cy="155.7" r="4.9" fill="#8e8576"/><circle cx="140.8" cy="137.3" r="2.7" fill="#8e8576"/><rect x="224" y="128" width="32" height="32" fill="url(#wallface)" stroke="#b5471f" stroke-width="1.5"/><rect x="224" y="128" width="32" height="32" fill="#000" fill-opacity=".12"/><rect x="355" y="131" width="26" height="26" fill="#555"/><circle cx="368.0" cy="144.0" r="8.0" fill="#f08a24" filter="url(#glow)"/><rect x="387" y="131" width="26" height="26" fill="#555"/><circle cx="400.0" cy="144.0" r="8.0" fill="#f08a24" filter="url(#glow)"/><rect x="419" y="131" width="26" height="26" fill="#555"/><circle cx="432.0" cy="144.0" r="8.0" fill="#f08a24" filter="url(#glow)"/><rect x="672" y="128" width="32" height="32" fill="url(#wallface)" stroke="#b5471f" stroke-width="1.5"/><rect x="672" y="128" width="32" height="32" fill="#000" fill-opacity=".12"/><rect x="0" y="160" width="32" height="32" fill="url(#wallface)" stroke="#b5471f" stroke-width="1.5"/><rect x="0" y="160" width="32" height="32" fill="#000" fill-opacity=".12"/><circle cx="40.7" cy="168.9" r="3.9" fill="#8e8576"/><circle cx="57.6" cy="184.2" r="3.4" fill="#8e8576"/><circle cx="51.7" cy="183.2" r="2.3" fill="#8e8576"/><circle cx="51.9" cy="185.8" r="4.3" fill="#8e8576"/><circle cx="86.0" cy="175.5" r="2.5" fill="#8e8576"/><circle cx="86.9" cy="172.0" r="4.4" fill="#8e8576"/><circle cx="91.3" cy="173.5" r="3.2" fill="#8e8576"/><circle cx="90.7" cy="181.4" r="2.5" fill="#8e8576"/><rect x="224" y="160" width="32" height="32" fill="url(#wallface)" stroke="#b5471f" stroke-width="1.5"/><rect x="224" y="160" width="32" height="32" fill="#000" fill-opacity=".12"/><rect x="672" y="160" width="32" height="32" fill="url(#wallface)" stroke="#b5471f" stroke-width="1.5"/><rect x="672" y="160" width="32" height="32" fill="#000" fill-opacity=".12"/><rect x="0" y="192" width="32" height="32" fill="url(#wallface)" stroke="#b5471f" stroke-width="1.5"/><rect x="0" y="192" width="32" height="32" fill="#000" fill-opacity=".12"/><circle cx="39.0" cy="199.6" r="4.7" fill="#8e8576"/><circle cx="55.4" cy="199.5" r="4.5" fill="#8e8576"/><circle cx="59.5" cy="211.8" r="3.1" fill="#8e8576"/><circle cx="49.2" cy="199.1" r="2.0" fill="#8e8576"/><circle cx="91.3" cy="211.6" r="3.6" fill="#8e8576"/><circle cx="90.4" cy="206.4" r="4.6" fill="#8e8576"/><circle cx="87.8" cy="201.1" r="2.8" fill="#8e8576"/><circle cx="75.0" cy="201.8" r="3.8" fill="#8e8576"/><circle cx="496.0" cy="208.0" r="51.2" fill="url(#lampglow)"/><circle cx="496.0" cy="208.0" r="3.5" fill="#fff2c4" stroke="#8a6a2a"/><rect x="672" y="192" width="32" height="32" fill="url(#wallface)" stroke="#b5471f" stroke-width="1.5"/><rect x="672" y="192" width="32" height="32" fill="#000" fill-opacity=".12"/><rect x="0" y="224" width="32" height="32" fill="url(#wallface)" stroke="#b5471f" stroke-width="1.5"/><rect x="0" y="224" width="32" height="32" fill="#000" fill-opacity=".12"/><rect x="163" y="227" width="16.0" height="16.0" fill="#8a6a3a" stroke="#4a3418"/><path d="M163 227 L179.0 243.0 M179.0 227 L163 243.0" stroke="#4a3418"/><circle cx="182.4" cy="245.76" r="7.68" fill="#7a5530" stroke="#3a2412" stroke-width="2"/><rect x="672" y="224" width="32" height="32" fill="url(#wallface)" stroke="#b5471f" stroke-width="1.5"/><rect x="672" y="224" width="32" height="32" fill="#000" fill-opacity=".12"/><rect x="0" y="256" width="32" height="32" fill="url(#wallface)" stroke="#b5471f" stroke-width="1.5"/><rect x="0" y="256" width="32" height="32" fill="#000" fill-opacity=".12"/><rect x="224" y="256" width="32" height="32" fill="url(#wallface)" stroke="#b5471f" stroke-width="1.5"/><rect x="224" y="256" width="32" height="32" fill="#000" fill-opacity=".12"/><rect x="355" y="259" width="26" height="26" fill="#555"/><circle cx="368.0" cy="272.0" r="8.0" fill="#f08a24" filter="url(#glow)"/><rect x="387" y="259" width="26" height="26" fill="#555"/><circle cx="400.0" cy="272.0" r="8.0" fill="#f08a24" filter="url(#glow)"/><rect x="419" y="259" width="26" height="26" fill="#555"/><circle cx="432.0" cy="272.0" r="8.0" fill="#f08a24" filter="url(#glow)"/><rect x="672" y="256" width="32" height="32" fill="url(#wallface)" stroke="#b5471f" stroke-width="1.5"/><rect x="672" y="256" width="32" height="32" fill="#000" fill-opacity=".12"/><rect x="0" y="288" width="32" height="32" fill="url(#wallface)" stroke="#b5471f" stroke-width="1.5"/><rect x="0" y="288" width="32" height="32" fill="#000" fill-opacity=".12"/><circle cx="74.2" cy="302.1" r="2.4" fill="#8e8576"/><circle cx="89.8" cy="300.5" r="3.4" fill="#8e8576"/><circle cx="82.0" cy="313.7" r="3.3" fill="#8e8576"/><circle cx="90.0" cy="304.0" r="3.6" fill="#8e8576"/><circle cx="112.6" cy="292.4" r="3.3" fill="#8e8576"/><circle cx="104.4" cy="292.1" r="4.4" fill="#8e8576"/><circle cx="104.1" cy="303.4" r="4.2" fill="#8e8576"/><circle cx="113.4" cy="299.8" r="3.6" fill="#8e8576"/><circle cx="145.3" cy="310.8" r="2.3" fill="#8e8576"/><circle cx="145.4" cy="298.0" r="2.8" fill="#8e8576"/><circle cx="150.5" cy="304.2" r="3.7" fill="#8e8576"/><circle cx="150.2" cy="313.9" r="3.3" fill="#8e8576"/><circle cx="178.7" cy="304.1" r="3.5" fill="#8e8576"/><circle cx="180.6" cy="302.9" r="3.6" fill="#8e8576"/><circle cx="175.5" cy="314.6" r="4.1" fill="#8e8576"/><circle cx="185.0" cy="314.6" r="2.8" fill="#8e8576"/><rect x="224" y="288" width="32" height="32" fill="url(#wallface)" stroke="#b5471f" stroke-width="1.5"/><rect x="224" y="288" width="32" height="32" fill="#000" fill-opacity=".12"/><rect x="355" y="291" width="26" height="26" fill="#555"/><circle cx="368.0" cy="304.0" r="8.0" fill="#f08a24" filter="url(#glow)"/><rect x="387" y="291" width="26" height="26" fill="#555"/><circle cx="400.0" cy="304.0" r="8.0" fill="#f08a24" filter="url(#glow)"/><rect x="419" y="291" width="26" height="26" fill="#555"/><circle cx="432.0" cy="304.0" r="8.0" fill="#f08a24" filter="url(#glow)"/><rect x="672" y="288" width="32" height="32" fill="url(#wallface)" stroke="#b5471f" stroke-width="1.5"/><rect x="672" y="288" width="32" height="32" fill="#000" fill-opacity=".12"/><rect x="0" y="320" width="32" height="32" fill="url(#wallface)" stroke="#b5471f" stroke-width="1.5"/><rect x="0" y="320" width="32" height="32" fill="#000" fill-opacity=".12"/><circle cx="81.4" cy="346.6" r="4.5" fill="#8e8576"/><circle cx="71.3" cy="326.9" r="3.3" fill="#8e8576"/><circle cx="69.7" cy="329.8" r="2.2" fill="#8e8576"/><circle cx="84.1" cy="342.8" r="4.7" fill="#8e8576"/><circle cx="103.7" cy="341.2" r="4.0" fill="#8e8576"/><circle cx="103.4" cy="345.2" r="4.9" fill="#8e8576"/><circle cx="105.3" cy="346.9" r="3.2" fill="#8e8576"/><circle cx="111.7" cy="347.8" r="4.5" fill="#8e8576"/><circle cx="135.9" cy="334.4" r="3.5" fill="#8e8576"/><circle cx="140.1" cy="328.7" r="3.0" fill="#8e8576"/><circle cx="149.3" cy="324.5" r="3.7" fill="#8e8576"/><circle cx="142.6" cy="324.4" r="3.0" fill="#8e8576"/><circle cx="179.0" cy="336.3" r="2.2" fill="#8e8576"/><circle cx="187.6" cy="342.9" r="4.9" fill="#8e8576"/><circle cx="166.5" cy="330.4" r="2.1" fill="#8e8576"/><circle cx="182.7" cy="330.5" r="2.4" fill="#8e8576"/><rect x="224" y="320" width="32" height="32" fill="url(#wallface)" stroke="#b5471f" stroke-width="1.5"/><rect x="224" y="320" width="32" height="32" fill="#000" fill-opacity=".12"/><circle cx="592.0" cy="336.0" r="12.8" fill="#6b6358"/><circle cx="592.0" cy="336.0" r="8.32" fill="#3f84bf"/><circle cx="624.0" cy="336.0" r="12.8" fill="#6b6358"/><circle cx="624.0" cy="336.0" r="8.32" fill="#3f84bf"/><rect x="672" y="320" width="32" height="32" fill="url(#wallface)" stroke="#b5471f" stroke-width="1.5"/><rect x="672" y="320" width="32" height="32" fill="#000" fill-opacity=".12"/><rect x="0" y="352" width="32" height="32" fill="url(#wallface)" stroke="#b5471f" stroke-width="1.5"/><rect x="0" y="352" width="32" height="32" fill="#000" fill-opacity=".12"/><circle cx="78.1" cy="377.9" r="4.5" fill="#8e8576"/><circle cx="74.2" cy="359.6" r="4.8" fill="#8e8576"/><circle cx="81.7" cy="372.8" r="2.3" fill="#8e8576"/><circle cx="69.4" cy="372.5" r="3.3" fill="#8e8576"/><circle cx="101.7" cy="378.5" r="3.9" fill="#8e8576"/><circle cx="119.2" cy="358.0" r="4.6" fill="#8e8576"/><circle cx="101.6" cy="376.7" r="3.4" fill="#8e8576"/><circle cx="108.1" cy="369.3" r="4.8" fill="#8e8576"/><circle cx="138.4" cy="359.1" r="3.6" fill="#8e8576"/><circle cx="137.7" cy="358.6" r="2.5" fill="#8e8576"/><circle cx="133.2" cy="360.8" r="2.9" fill="#8e8576"/><circle cx="139.3" cy="374.2" r="2.9" fill="#8e8576"/><circle cx="176.0" cy="360.3" r="3.0" fill="#8e8576"/><circle cx="164.4" cy="362.0" r="2.0" fill="#8e8576"/><circle cx="181.6" cy="369.2" r="2.6" fill="#8e8576"/><circle cx="175.4" cy="378.4" r="2.3" fill="#8e8576"/><rect x="224" y="352" width="32" height="32" fill="url(#wallface)" stroke="#b5471f" stroke-width="1.5"/><rect x="224" y="352" width="32" height="32" fill="#000" fill-opacity=".12"/><circle cx="304.0" cy="368.0" r="51.2" fill="url(#lampglow)"/><circle cx="304.0" cy="368.0" r="3.5" fill="#fff2c4" stroke="#8a6a2a"/><rect x="483" y="355" width="16.0" height="16.0" fill="#8a6a3a" stroke="#4a3418"/><path d="M483 355 L499.0 371.0 M499.0 355 L483 371.0" stroke="#4a3418"/><circle cx="502.4" cy="373.76" r="7.68" fill="#7a5530" stroke="#3a2412" stroke-width="2"/><circle cx="592.0" cy="368.0" r="12.8" fill="#6b6358"/><circle cx="592.0" cy="368.0" r="8.32" fill="#3f84bf"/><circle cx="624.0" cy="368.0" r="12.8" fill="#6b6358"/><circle cx="624.0" cy="368.0" r="8.32" fill="#3f84bf"/><rect x="672" y="352" width="32" height="32" fill="url(#wallface)" stroke="#b5471f" stroke-width="1.5"/><rect x="672" y="352" width="32" height="32" fill="#000" fill-opacity=".12"/><rect x="0" y="384" width="32" height="32" fill="url(#wallface)" stroke="#b5471f" stroke-width="1.5"/><rect x="0" y="384" width="32" height="32" fill="#000" fill-opacity=".12"/><rect x="195" y="387" width="16.0" height="16.0" fill="#8a6a3a" stroke="#4a3418"/><path d="M195 387 L211.0 403.0 M211.0 387 L195 403.0" stroke="#4a3418"/><circle cx="214.4" cy="405.76" r="7.68" fill="#7a5530" stroke="#3a2412" stroke-width="2"/><rect x="224" y="384" width="32" height="32" fill="url(#wallface)" stroke="#b5471f" stroke-width="1.5"/><rect x="224" y="384" width="32" height="32" fill="#000" fill-opacity=".12"/><rect x="513" y="386" width="30" height="28" fill="#3d2a18" stroke="#b5471f" stroke-width="1.2"/><path d="M528.0 388V412" stroke="#b5471f" stroke-width="1"/><circle cx="525.0" cy="400.0" r="1.4" fill="#b5471f"/><circle cx="531.0" cy="400.0" r="1.4" fill="#b5471f"/><rect x="545" y="386" width="30" height="28" fill="#3d2a18" stroke="#b5471f" stroke-width="1.2"/><path d="M560.0 388V412" stroke="#b5471f" stroke-width="1"/><circle cx="557.0" cy="400.0" r="1.4" fill="#b5471f"/><circle cx="563.0" cy="400.0" r="1.4" fill="#b5471f"/><rect x="577" y="386" width="30" height="28" fill="#3d2a18" stroke="#b5471f" stroke-width="1.2"/><path d="M592.0 388V412" stroke="#b5471f" stroke-width="1"/><circle cx="589.0" cy="400.0" r="1.4" fill="#b5471f"/><circle cx="595.0" cy="400.0" r="1.4" fill="#b5471f"/><rect x="609" y="386" width="30" height="28" fill="#3d2a18" stroke="#b5471f" stroke-width="1.2"/><path d="M624.0 388V412" stroke="#b5471f" stroke-width="1"/><circle cx="621.0" cy="400.0" r="1.4" fill="#b5471f"/><circle cx="627.0" cy="400.0" r="1.4" fill="#b5471f"/><rect x="672" y="384" width="32" height="32" fill="url(#wallface)" stroke="#b5471f" stroke-width="1.5"/><rect x="672" y="384" width="32" height="32" fill="#000" fill-opacity=".12"/><rect x="32" y="416" width="32" height="32" fill="url(#wallface)" stroke="#b5471f" stroke-width="1.5"/><rect x="32" y="416" width="32" height="32" fill="#000" fill-opacity=".12"/><rect x="64" y="416" width="32" height="32" fill="url(#wallface)" stroke="#b5471f" stroke-width="1.5"/><rect x="64" y="416" width="32" height="32" fill="#000" fill-opacity=".12"/><rect x="97" y="425.6" width="30" height="12.8" fill="#7a4a1e" stroke="#3a2008" stroke-width="2"/><rect x="128" y="416" width="32" height="32" fill="url(#wallface)" stroke="#b5471f" stroke-width="1.5"/><rect x="128" y="416" width="32" height="32" fill="#000" fill-opacity=".12"/><rect x="160" y="416" width="32" height="32" fill="url(#wallface)" stroke="#b5471f" stroke-width="1.5"/><rect x="160" y="416" width="32" height="32" fill="#000" fill-opacity=".12"/><rect x="192" y="416" width="32" height="32" fill="url(#wallface)" stroke="#b5471f" stroke-width="1.5"/><rect x="192" y="416" width="32" height="32" fill="#000" fill-opacity=".12"/><rect x="256" y="416" width="32" height="32" fill="url(#wallface)" stroke="#b5471f" stroke-width="1.5"/><rect x="256" y="416" width="32" height="32" fill="#000" fill-opacity=".12"/><rect x="288" y="416" width="32" height="32" fill="url(#wallface)" stroke="#b5471f" stroke-width="1.5"/><rect x="288" y="416" width="32" height="32" fill="#000" fill-opacity=".12"/><rect x="320" y="416" width="32" height="32" fill="url(#wallface)" stroke="#b5471f" stroke-width="1.5"/><rect x="320" y="416" width="32" height="32" fill="#000" fill-opacity=".12"/><rect x="352" y="416" width="32" height="32" fill="url(#wallface)" stroke="#b5471f" stroke-width="1.5"/><rect x="352" y="416" width="32" height="32" fill="#000" fill-opacity=".12"/><rect x="384" y="416" width="32" height="32" fill="url(#wallface)" stroke="#b5471f" stroke-width="1.5"/><rect x="384" y="416" width="32" height="32" fill="#000" fill-opacity=".12"/><rect x="416" y="416" width="32" height="32" fill="url(#wallface)" stroke="#b5471f" stroke-width="1.5"/><rect x="416" y="416" width="32" height="32" fill="#000" fill-opacity=".12"/><rect x="448" y="416" width="32" height="32" fill="url(#wallface)" stroke="#b5471f" stroke-width="1.5"/><rect x="448" y="416" width="32" height="32" fill="#000" fill-opacity=".12"/><rect x="480" y="416" width="32" height="32" fill="url(#wallface)" stroke="#b5471f" stroke-width="1.5"/><rect x="480" y="416" width="32" height="32" fill="#000" fill-opacity=".12"/><rect x="512" y="416" width="32" height="32" fill="url(#wallface)" stroke="#b5471f" stroke-width="1.5"/><rect x="512" y="416" width="32" height="32" fill="#000" fill-opacity=".12"/><rect x="544" y="416" width="32" height="32" fill="url(#wallface)" stroke="#b5471f" stroke-width="1.5"/><rect x="544" y="416" width="32" height="32" fill="#000" fill-opacity=".12"/><rect x="576" y="416" width="32" height="32" fill="url(#wallface)" stroke="#b5471f" stroke-width="1.5"/><rect x="576" y="416" width="32" height="32" fill="#000" fill-opacity=".12"/><rect x="608" y="416" width="32" height="32" fill="url(#wallface)" stroke="#b5471f" stroke-width="1.5"/><rect x="608" y="416" width="32" height="32" fill="#000" fill-opacity=".12"/><rect x="640" y="416" width="32" height="32" fill="url(#wallface)" stroke="#b5471f" stroke-width="1.5"/><rect x="640" y="416" width="32" height="32" fill="#000" fill-opacity=".12"/><path d="M0 0V448M32 0V448M64 0V448M96 0V448M128 0V448M160 0V448M192 0V448M224 0V448M256 0V448M288 0V448M320 0V448M352 0V448M384 0V448M416 0V448M448 0V448M480 0V448M512 0V448M544 0V448M576 0V448M608 0V448M640 0V448M672 0V448M704 0V448M0 0H704M0 32H704M0 64H704M0 96H704M0 128H704M0 160H704M0 192H704M0 224H704M0 256H704M0 288H704M0 320H704M0 352H704M0 384H704M0 416H704M0 448H704" stroke="#000" stroke-opacity=".13" stroke-width="1"/><circle cx="48.0" cy="48.0" r="12.16" fill="#fff" fill-opacity=".8" stroke="#3a2a1a"/><text x="48.0" y="53.0" text-anchor="middle" font-size="13.44" font-weight="bold" fill="#3a2a1a">1</text><circle cx="432.0" cy="48.0" r="12.16" fill="#fff" fill-opacity=".8" stroke="#3a2a1a"/><text x="432.0" y="53.0" text-anchor="middle" font-size="13.44" font-weight="bold" fill="#3a2a1a">2</text><circle cx="432.0" cy="176.0" r="12.16" fill="#fff" fill-opacity=".8" stroke="#3a2a1a"/><text x="432.0" y="181.0" text-anchor="middle" font-size="13.44" font-weight="bold" fill="#3a2a1a">3</text><circle cx="432.0" cy="304.0" r="12.16" fill="#fff" fill-opacity=".8" stroke="#3a2a1a"/><text x="432.0" y="309.0" text-anchor="middle" font-size="13.44" font-weight="bold" fill="#3a2a1a">4</text><text x="448.0" y="32.0" font-size="14.4" font-style="italic" fill="#fff" stroke="#2b1d0e" stroke-width="3" paint-order="stroke"><tspan x="448.0" dy="0.0">Boiler hall</tspan></text><text x="96.0" y="224.0" font-size="14.4" font-style="italic" fill="#fff" stroke="#2b1d0e" stroke-width="3" paint-order="stroke"><tspan x="96.0" dy="0.0">Coal bunker</tspan></text><g class="poi" data-poi="poi-1" style="cursor:pointer"><title>Foot of the Stoke-hole Stair</title><circle cx="649" cy="41" r="7.5" fill="#6fb0ff" stroke="#10243d" stroke-width="2"/><text x="649" y="44.6" text-anchor="middle" font-family="Georgia,serif" font-weight="bold" font-size="10.5" fill="#10243d">i</text></g><g class="poi" data-poi="poi-2" style="cursor:pointer"><title>The Great Boiler</title><circle cx="393" cy="105" r="7.5" fill="#6fb0ff" stroke="#10243d" stroke-width="2"/><text x="393" y="108.6" text-anchor="middle" font-family="Georgia,serif" font-weight="bold" font-size="10.5" fill="#10243d">i</text></g><g class="poi" data-poi="poi-3" style="cursor:pointer"><title>The Lesser Boiler</title><circle cx="393" cy="265" r="7.5" fill="#6fb0ff" stroke="#10243d" stroke-width="2"/><text x="393" y="268.6" text-anchor="middle" font-family="Georgia,serif" font-weight="bold" font-size="10.5" fill="#10243d">i</text></g><g class="poi" data-poi="poi-4" style="cursor:pointer"><title>Hot-water Cistern</title><circle cx="585" cy="329" r="7.5" fill="#6fb0ff" stroke="#10243d" stroke-width="2"/><text x="585" y="332.6" text-anchor="middle" font-family="Georgia,serif" font-weight="bold" font-size="10.5" fill="#10243d">i</text></g><g class="poi" data-poi="poi-5" style="cursor:pointer"><title>Stoker&#x27;s Tool Rack</title><circle cx="297" cy="41" r="7.5" fill="#6fb0ff" stroke="#10243d" stroke-width="2"/><text x="297" y="44.6" text-anchor="middle" font-family="Georgia,serif" font-weight="bold" font-size="10.5" fill="#10243d">i</text></g><g class="poi" data-poi="poi-6" style="cursor:pointer"><title>Coal Heap</title><circle cx="73" cy="73" r="7.5" fill="#6fb0ff" stroke="#10243d" stroke-width="2"/><text x="73" y="76.6" text-anchor="middle" font-family="Georgia,serif" font-weight="bold" font-size="10.5" fill="#10243d">i</text></g><g class="poi" data-poi="poi-7" style="cursor:pointer"><title>The Coal Door</title><circle cx="105" cy="393" r="7.5" fill="#6fb0ff" stroke="#10243d" stroke-width="2"/><text x="105" y="396.6" text-anchor="middle" font-family="Georgia,serif" font-weight="bold" font-size="10.5" fill="#10243d">i</text></g><g class="poi" data-poi="poi-8" style="cursor:pointer"><title>Ash Bins and Shelves</title><circle cx="521" cy="393" r="7.5" fill="#6fb0ff" stroke="#10243d" stroke-width="2"/><text x="521" y="396.6" text-anchor="middle" font-family="Georgia,serif" font-weight="bold" font-size="10.5" fill="#10243d">i</text></g><g class="poi" data-poi="poi-9" style="cursor:pointer"><title>Vessie&#x27;s Body</title><circle cx="457" cy="201" r="7.5" fill="#6fb0ff" stroke="#10243d" stroke-width="2"/><text x="457" y="204.6" text-anchor="middle" font-family="Georgia,serif" font-weight="bold" font-size="10.5" fill="#10243d">i</text></g><g class="poi" data-poi="poi-10" style="cursor:pointer"><title>The Stoker&#x27;s Slate</title><circle cx="329" cy="73" r="7.5" fill="#6fb0ff" stroke="#10243d" stroke-width="2"/><text x="329" y="76.6" text-anchor="middle" font-family="Georgia,serif" font-weight="bold" font-size="10.5" fill="#10243d">i</text></g><defs></defs><g id='tokens'><g class="token dead" data-id="the-aldermans-sister" data-stack="" opacity=".6"><title>Vessie, the Alderman&#x27;s Sister (defeated)</title><circle cx="456.8" cy="215.2" r="7.2" fill="#3a3030" stroke="#111" stroke-width="1.5"/><path d="M452.48 210.88 L461.12 219.51999999999998 M461.12 210.88 L452.48 219.51999999999998" stroke="#d9443b" stroke-width="2"/></g></g></svg>