<svg xmlns="http://www.w3.org/2000/svg" viewBox="0 0 832 512" width="832" height="512" font-family="Georgia,serif" data-cell="32"><defs><pattern id="wallface" width="24" height="12" patternUnits="userSpaceOnUse"><rect width="24" height="12" fill="#dccfb4"/><path d="M0 5.5H24M0 11.5H24M8 0V5.5M20 6V11.5" stroke="#2a1d12" stroke-width="1.2"/></pattern><pattern id="fine" width="64" height="64" patternUnits="userSpaceOnUse"><rect width="64" height="64" fill="#e2dccf"/><rect width="32" height="32" fill="#c7bfae" fill-opacity=".8"/><rect x="32" y="32" width="32" height="32" fill="#c7bfae" fill-opacity=".8"/></pattern><pattern id="stonef" width="48" height="32" patternUnits="userSpaceOnUse"><rect width="48" height="32" fill="#b9ab92"/><rect x="1" y="1" width="21" height="14" fill="#000" fill-opacity=".06"/><rect x="25" y="17" width="22" height="14" fill="#fff" fill-opacity=".06"/><path d="M0 15.5H48M0 31.5H48M23 0V15.5M11 16V31.5M36 16V31.5" stroke="#9a8c74" stroke-width="1.2"/></pattern><pattern id="tiles" width="16" height="16" patternUnits="userSpaceOnUse"><rect width="16" height="16" fill="#9a8c74"/><rect x=".6" y=".6" width="6.8" height="6.8" fill="#e2dccf"/><rect x="8.6" y=".6" width="6.8" height="6.8" fill="#c7bfae" fill-opacity=".6"/><rect x=".6" y="8.6" width="6.8" height="6.8" fill="#c7bfae" fill-opacity=".6"/><rect x="8.6" y="8.6" width="6.8" height="6.8" fill="#e2dccf"/></pattern>
<pattern id="hatch" width="8" height="8" patternUnits="userSpaceOnUse" patternTransform="rotate(45)"><rect width="8" height="8" fill="#3b2a1c"/><line x1="0" y1="0" x2="0" y2="8" stroke="#2a1d12" stroke-width="3"/></pattern>
<pattern id="waves" width="24" height="12" patternUnits="userSpaceOnUse"><path d="M0 6 Q6 0 12 6 T24 6" fill="none" stroke="#ffffff" stroke-opacity=".25" stroke-width="1.5"/></pattern>
<pattern id="planks" width="64" height="8" patternUnits="userSpaceOnUse"><rect width="64" height="8" fill="#a8784a"/><line x1="0" y1="7.5" x2="64" y2="7.5" stroke="#7c5530" stroke-width="1"/><line x1="23" y1="0" x2="23" y2="7.5" stroke="#7c5530" stroke-width=".8"/><line x1="51" y1="0" x2="51" y2="7.5" stroke="#7c5530" stroke-width=".8"/></pattern>
<pattern id="cobble" width="16" height="16" patternUnits="userSpaceOnUse"><rect width="16" height="16" fill="#a8a39a"/><circle cx="4" cy="4" r="3" fill="#b8b3aa"/><circle cx="12" cy="11" r="3.5" fill="#9b968d"/></pattern>
<pattern id="flag" width="32" height="32" patternUnits="userSpaceOnUse"><rect width="32" height="32" fill="#b9ab92"/><path d="M0 16H32M16 0V16M8 16V32M24 16V32" stroke="#9a8c74" stroke-width="1"/></pattern>
<pattern id="carpet" width="32" height="32" patternUnits="userSpaceOnUse"><rect width="32" height="32" fill="#6d3b22"/><path d="M16 4 L28 16 L16 28 L4 16 Z" fill="none" stroke="#5b6b4a" stroke-opacity=".55" stroke-width="1.2"/><circle cx="16" cy="16" r="2" fill="#5b6b4a" fill-opacity=".6"/></pattern>
<pattern id="marble" width="64" height="64" patternUnits="userSpaceOnUse"><rect width="64" height="64" fill="#e2dccf"/><path d="M0 40 C16 30 26 52 44 38 S60 20 64 26" fill="none" stroke="#c7bfae" stroke-width="1.2"/><path d="M10 0 C14 12 4 20 12 32" fill="none" stroke="#c7bfae" stroke-width=".8"/><path d="M0 0H64V64" fill="none" stroke="#c7bfae" stroke-opacity=".6"/></pattern>
<radialGradient id="canopy" cx="40%" cy="35%"><stop offset="0" stop-color="#5f9a3c"/><stop offset="1" stop-color="#2e5a22"/></radialGradient>
<radialGradient id="rock" cx="35%" cy="30%"><stop offset="0" stop-color="#b5aea3"/><stop offset="1" stop-color="#6b645a"/></radialGradient>
<radialGradient id="lampglow"><stop offset="0" stop-color="#ffd98a" stop-opacity=".75"/><stop offset=".45" stop-color="#ffb347" stop-opacity=".25"/><stop offset="1" stop-color="#ffb347" stop-opacity="0"/></radialGradient>
<radialGradient id="felt" cx="45%" cy="40%"><stop offset="0" stop-color="#2f7a4a"/><stop offset="1" stop-color="#174a2c"/></radialGradient>
<filter id="glow"><feGaussianBlur stdDeviation="3" result="b"/><feMerge><feMergeNode in="b"/><feMergeNode in="SourceGraphic"/></feMerge></filter>
</defs><rect x="0" y="0" width="832" height="32" fill="url(#hatch)"/><rect x="0" y="32" width="192" height="32" fill="url(#hatch)"/><rect x="192" y="32" width="160" height="32" fill="url(#stonef)"/><rect x="352" y="32" width="32" height="32" fill="url(#hatch)"/><rect x="384" y="32" width="64" height="32" fill="url(#stonef)"/><rect x="448" y="32" width="32" height="32" fill="url(#hatch)"/><rect x="480" y="32" width="160" height="32" fill="url(#stonef)"/><rect x="640" y="32" width="192" height="32" fill="url(#hatch)"/><rect x="0" y="64" width="192" height="32" fill="url(#hatch)"/><rect x="192" y="64" width="160" height="32" fill="url(#stonef)"/><rect x="352" y="64" width="32" height="32" fill="url(#hatch)"/><rect x="384" y="64" width="64" height="32" fill="url(#stonef)"/><rect x="448" y="64" width="32" height="32" fill="url(#hatch)"/><rect x="480" y="64" width="160" height="32" fill="url(#stonef)"/><rect x="640" y="64" width="192" height="32" fill="url(#hatch)"/><rect x="0" y="96" width="192" height="32" fill="url(#hatch)"/><rect x="192" y="96" width="448" height="32" fill="url(#stonef)"/><rect x="640" y="96" width="192" height="32" fill="url(#hatch)"/><rect x="0" y="128" width="192" height="32" fill="url(#hatch)"/><rect x="192" y="128" width="160" height="32" fill="url(#stonef)"/><rect x="352" y="128" width="32" height="32" fill="url(#hatch)"/><rect x="384" y="128" width="64" height="32" fill="url(#stonef)"/><rect x="448" y="128" width="32" height="32" fill="url(#hatch)"/><rect x="480" y="128" width="160" height="32" fill="url(#stonef)"/><rect x="640" y="128" width="192" height="32" fill="url(#hatch)"/><rect x="0" y="160" width="192" height="32" fill="url(#hatch)"/><rect x="192" y="160" width="160" height="32" fill="url(#stonef)"/><rect x="352" y="160" width="32" height="32" fill="url(#hatch)"/><rect x="384" y="160" width="64" height="32" fill="url(#stonef)"/><rect x="448" y="160" width="32" height="32" fill="url(#hatch)"/><rect x="480" y="160" width="160" height="32" fill="url(#stonef)"/><rect x="640" y="160" width="192" height="32" fill="url(#hatch)"/><rect x="0" y="192" width="96" height="32" fill="url(#hatch)"/><rect x="96" y="192" width="32" height="32" fill="url(#stonef)"/><rect x="128" y="192" width="288" height="32" fill="url(#hatch)"/><rect x="416" y="192" width="32" height="32" fill="url(#stonef)"/><rect x="448" y="192" width="192" height="32" fill="url(#hatch)"/><rect x="640" y="192" width="32" height="32" fill="url(#stonef)"/><rect x="672" y="192" width="160" height="32" fill="url(#hatch)"/><rect x="0" y="224" width="64" height="32" fill="url(#hatch)"/><rect x="64" y="224" width="704" height="32" fill="url(#stonef)"/><rect x="768" y="224" width="64" height="32" fill="url(#hatch)"/><rect x="0" y="256" width="32" height="32" fill="url(#hatch)"/><rect x="32" y="256" width="768" height="32" fill="url(#stonef)"/><rect x="800" y="256" width="32" height="32" fill="url(#hatch)"/><rect x="0" y="288" width="32" height="32" fill="url(#hatch)"/><rect x="32" y="288" width="768" height="32" fill="url(#stonef)"/><rect x="800" y="288" width="32" height="32" fill="url(#hatch)"/><rect x="0" y="320" width="32" height="32" fill="url(#hatch)"/><rect x="32" y="320" width="768" height="32" fill="url(#stonef)"/><rect x="800" y="320" width="32" height="32" fill="url(#hatch)"/><rect x="0" y="352" width="32" height="32" fill="url(#hatch)"/><rect x="32" y="352" width="768" height="32" fill="url(#stonef)"/><rect x="800" y="352" width="32" height="32" fill="url(#hatch)"/><rect x="0" y="384" width="32" height="32" fill="url(#hatch)"/><rect x="32" y="384" width="768" height="32" fill="url(#stonef)"/><rect x="800" y="384" width="32" height="32" fill="url(#hatch)"/><rect x="0" y="416" width="32" height="32" fill="url(#hatch)"/><rect x="32" y="416" width="768" height="32" fill="url(#stonef)"/><rect x="800" y="416" width="32" height="32" fill="url(#hatch)"/><rect x="0" y="448" width="32" height="32" fill="url(#hatch)"/><rect x="32" y="448" width="768" height="32" fill="url(#stonef)"/><rect x="800" y="448" width="32" height="32" fill="url(#hatch)"/><rect x="0" y="480" width="320" height="32" fill="url(#hatch)"/><rect x="320" y="480" width="128" height="32" fill="url(#stonef)"/><rect x="448" y="480" width="384" height="32" fill="url(#hatch)"/><rect x="192" y="0" width="32" height="32" fill="url(#wallface)" stroke="#5b6b4a" stroke-width="1.5"/><rect x="192" y="0" width="32" height="32" fill="#000" fill-opacity=".12"/><rect x="224" y="0" width="32" height="32" fill="url(#wallface)" stroke="#5b6b4a" stroke-width="1.5"/><rect x="224" y="0" width="32" height="32" fill="#000" fill-opacity=".12"/><rect x="256" y="0" width="32" height="32" fill="url(#wallface)" stroke="#5b6b4a" stroke-width="1.5"/><rect x="256" y="0" width="32" height="32" fill="#000" fill-opacity=".12"/><rect x="288" y="0" width="32" height="32" fill="url(#wallface)" stroke="#5b6b4a" stroke-width="1.5"/><rect x="288" y="0" width="32" height="32" fill="#000" fill-opacity=".12"/><rect x="320" y="0" width="32" height="32" fill="url(#wallface)" stroke="#5b6b4a" stroke-width="1.5"/><rect x="320" y="0" width="32" height="32" fill="#000" fill-opacity=".12"/><rect x="384" y="0" width="32" height="32" fill="url(#wallface)" stroke="#5b6b4a" stroke-width="1.5"/><rect x="384" y="0" width="32" height="32" fill="#000" fill-opacity=".12"/><rect x="416" y="0" width="32" height="32" fill="url(#wallface)" stroke="#5b6b4a" stroke-width="1.5"/><rect x="416" y="0" width="32" height="32" fill="#000" fill-opacity=".12"/><rect x="480" y="0" width="32" height="32" fill="url(#wallface)" stroke="#5b6b4a" stroke-width="1.5"/><rect x="480" y="0" width="32" height="32" fill="#000" fill-opacity=".12"/><rect x="512" y="0" width="32" height="32" fill="url(#wallface)" stroke="#5b6b4a" stroke-width="1.5"/><rect x="512" y="0" width="32" height="32" fill="#000" fill-opacity=".12"/><rect x="544" y="0" width="32" height="32" fill="url(#wallface)" stroke="#5b6b4a" stroke-width="1.5"/><rect x="544" y="0" width="32" height="32" fill="#000" fill-opacity=".12"/><rect x="576" y="0" width="32" height="32" fill="url(#wallface)" stroke="#5b6b4a" stroke-width="1.5"/><rect x="576" y="0" width="32" height="32" fill="#000" fill-opacity=".12"/><rect x="608" y="0" width="32" height="32" fill="url(#wallface)" stroke="#5b6b4a" stroke-width="1.5"/><rect x="608" y="0" width="32" height="32" fill="#000" fill-opacity=".12"/><rect x="160" y="32" width="32" height="32" fill="url(#wallface)" stroke="#5b6b4a" stroke-width="1.5"/><rect x="160" y="32" width="32" height="32" fill="#000" fill-opacity=".12"/><rect x="196.5" y="37.0" width="26.0" height="26.0" rx="2" fill="#000" fill-opacity=".22"/><rect x="195" y="35" width="26" height="26" rx="2" fill="#2e2c2a" stroke="#0e0d0c" stroke-width="1.4"/><circle cx="202.2" cy="44.2" r="4.2" fill="#1a1918" stroke="#6a6662" stroke-width="1"/><circle cx="213.8" cy="44.2" r="4.2" fill="#1a1918" stroke="#6a6662" stroke-width="1"/><rect x="200.0" y="53.1" width="16.0" height="3" rx="1" fill="#f08a24" filter="url(#glow)"/><rect x="291.5" y="36.0" width="28.0" height="14.7" rx="1" fill="#000" fill-opacity=".22"/><rect x="290.0" y="34.0" width="28.0" height="14.7" fill="#4a2e17" stroke="#5b6b4a" stroke-width="1.2"/><rect x="291.5" y="35.5" width="3.0" height="7.3" fill="#2a2a2a"/><rect x="295.0" y="35.5" width="3.1" height="8.8" fill="#9a3a1e"/><rect x="298.6" y="35.5" width="3.8" height="6.5" fill="#2c4a6e"/><rect x="302.8" y="35.5" width="4.2" height="6.7" fill="#4a2a5a"/><rect x="307.5" y="35.5" width="3.2" height="7.2" fill="#2a2a2a"/><rect x="311.2" y="35.5" width="3.7" height="7.9" fill="#3d5a2a"/><rect x="315.4" y="35.5" width="2.3" height="7.6" fill="#2a2a2a"/><rect x="352" y="32" width="32" height="32" fill="url(#wallface)" stroke="#5b6b4a" stroke-width="1.5"/><rect x="352" y="32" width="32" height="32" fill="#000" fill-opacity=".12"/><line x1="388" y1="37" x2="412" y2="37" stroke="#6b6358" stroke-width="3.0"/><line x1="388" y1="44" x2="412" y2="44" stroke="#6b6358" stroke-width="2.5"/><line x1="388" y1="51" x2="412" y2="51" stroke="#6b6358" stroke-width="2.0"/><line x1="388" y1="58" x2="412" y2="58" stroke="#6b6358" stroke-width="1.5"/><text x="410" y="44" font-size="10" fill="#3a342e">▲</text><line x1="420" y1="37" x2="444" y2="37" stroke="#6b6358" stroke-width="3.0"/><line x1="420" y1="44" x2="444" y2="44" stroke="#6b6358" stroke-width="2.5"/><line x1="420" y1="51" x2="444" y2="51" stroke="#6b6358" stroke-width="2.0"/><line x1="420" y1="58" x2="444" y2="58" stroke="#6b6358" stroke-width="1.5"/><text x="442" y="44" font-size="10" fill="#3a342e">▲</text><rect x="448" y="32" width="32" height="32" fill="url(#wallface)" stroke="#5b6b4a" stroke-width="1.5"/><rect x="448" y="32" width="32" height="32" fill="#000" fill-opacity=".12"/><rect x="484.5" y="37.0" width="26.0" height="26.0" rx="2" fill="#000" fill-opacity=".22"/><rect x="483" y="35" width="26" height="26" rx="2" fill="#2e2c2a" stroke="#0e0d0c" stroke-width="1.4"/><circle cx="490.2" cy="44.2" r="4.2" fill="#1a1918" stroke="#6a6662" stroke-width="1"/><circle cx="501.8" cy="44.2" r="4.2" fill="#1a1918" stroke="#6a6662" stroke-width="1"/><rect x="488.0" y="53.1" width="16.0" height="3" rx="1" fill="#f08a24" filter="url(#glow)"/><circle cx="593.5" cy="50.0" r="11.5" fill="#000" fill-opacity=".22"/><circle cx="592.0" cy="48.0" r="11.5" fill="#8a5a30" stroke="#2e1a0c" stroke-width="2.2"/><circle cx="592.0" cy="48.0" r="8.3" fill="none" stroke="#3a2412" stroke-width="1.2"/><path d="M583.9 48.0H600.1M592.0 39.9V56.1" stroke="#6a4222" stroke-width=".7"/><circle cx="596.0" cy="44.5" r="1.6" fill="#2e1a0c"/><rect x="640" y="32" width="32" height="32" fill="url(#wallface)" stroke="#5b6b4a" stroke-width="1.5"/><rect x="640" y="32" width="32" height="32" fill="#000" fill-opacity=".12"/><rect x="160" y="64" width="32" height="32" fill="url(#wallface)" stroke="#5b6b4a" stroke-width="1.5"/><rect x="160" y="64" width="32" height="32" fill="#000" fill-opacity=".12"/><rect x="352" y="64" width="32" height="32" fill="url(#wallface)" stroke="#5b6b4a" stroke-width="1.5"/><rect x="352" y="64" width="32" height="32" fill="#000" fill-opacity=".12"/><rect x="448" y="64" width="32" height="32" fill="url(#wallface)" stroke="#5b6b4a" stroke-width="1.5"/><rect x="448" y="64" width="32" height="32" fill="#000" fill-opacity=".12"/><rect x="640" y="64" width="32" height="32" fill="url(#wallface)" stroke="#5b6b4a" stroke-width="1.5"/><rect x="640" y="64" width="32" height="32" fill="#000" fill-opacity=".12"/><rect x="160" y="96" width="32" height="32" fill="url(#wallface)" stroke="#5b6b4a" stroke-width="1.5"/><rect x="160" y="96" width="32" height="32" fill="#000" fill-opacity=".12"/><rect x="291.5" y="102.2" width="28.0" height="23.7" rx="2" fill="#000" fill-opacity=".22"/><rect x="290.0" y="100.2" width="28.0" height="23.7" rx="2" fill="#a8784a" stroke="#5b6b4a" stroke-width="1.2"/><path d="M290.0 108.1H318.0" stroke="#7c5530" stroke-width=".8"/><path d="M290.0 115.9H318.0" stroke="#7c5530" stroke-width=".8"/><rect x="361.6" y="97" width="12.8" height="30" fill="none" stroke="#7a4a1e" stroke-width="2" stroke-dasharray="3 2"/><rect x="457.6" y="97" width="12.8" height="30" fill="#7a4a1e" stroke="#3a2008" stroke-width="2"/><rect x="515.5" y="102.2" width="30.0" height="23.7" rx="2" fill="#000" fill-opacity=".22"/><rect x="514.0" y="100.2" width="30.0" height="23.7" rx="2" fill="#a8784a" stroke="#5b6b4a" stroke-width="1.2"/><path d="M514.0 108.1H544.0" stroke="#7c5530" stroke-width=".8"/><path d="M514.0 115.9H544.0" stroke="#7c5530" stroke-width=".8"/><circle cx="529.8" cy="112.7" r="4" fill="#efe8da" stroke="#9a8e78" stroke-width=".8"/><circle cx="529.8" cy="112.7" r="2" fill="none" stroke="#c9bfa9" stroke-width=".6"/><circle cx="527.1" cy="114.5" r="4" fill="#efe8da" stroke="#9a8e78" stroke-width=".8"/><circle cx="527.1" cy="114.5" r="2" fill="none" stroke="#c9bfa9" stroke-width=".6"/><rect x="545.5" y="102.2" width="30.0" height="23.7" rx="2" fill="#000" fill-opacity=".22"/><rect x="544.0" y="100.2" width="30.0" height="23.7" rx="2" fill="#a8784a" stroke="#5b6b4a" stroke-width="1.2"/><path d="M544.0 108.1H574.0" stroke="#7c5530" stroke-width=".8"/><path d="M544.0 115.9H574.0" stroke="#7c5530" stroke-width=".8"/><circle cx="563.7" cy="108.3" r="2.6" fill="#d9cdb4" stroke="#5a4a36" stroke-width=".8"/><rect x="640" y="96" width="32" height="32" fill="url(#wallface)" stroke="#5b6b4a" stroke-width="1.5"/><rect x="640" y="96" width="32" height="32" fill="#000" fill-opacity=".12"/><rect x="160" y="128" width="32" height="32" fill="url(#wallface)" stroke="#5b6b4a" stroke-width="1.5"/><rect x="160" y="128" width="32" height="32" fill="#000" fill-opacity=".12"/><rect x="266.1" y="138.6" width="14.7" height="14.7" rx="2" fill="#000" fill-opacity=".22"/><rect x="264.6" y="136.6" width="14.7" height="14.7" rx="2" fill="#5e3d22" stroke="#5b6b4a" stroke-width="1"/><rect x="263.6" y="133.6" width="16.7" height="4" rx="1.5" fill="#4a2e17" stroke="#5b6b4a" stroke-width=".8"/><rect x="352" y="128" width="32" height="32" fill="url(#wallface)" stroke="#5b6b4a" stroke-width="1.5"/><rect x="352" y="128" width="32" height="32" fill="#000" fill-opacity=".12"/><rect x="448" y="128" width="32" height="32" fill="url(#wallface)" stroke="#5b6b4a" stroke-width="1.5"/><rect x="448" y="128" width="32" height="32" fill="#000" fill-opacity=".12"/><rect x="522.1" y="138.6" width="14.7" height="14.7" rx="2" fill="#000" fill-opacity=".22"/><rect x="520.6" y="136.6" width="14.7" height="14.7" rx="2" fill="#5e3d22" stroke="#5b6b4a" stroke-width="1"/><rect x="519.6" y="150.4" width="16.7" height="4" rx="1.5" fill="#4a2e17" stroke="#5b6b4a" stroke-width=".8"/><rect x="554.1" y="138.6" width="14.7" height="14.7" rx="2" fill="#000" fill-opacity=".22"/><rect x="552.6" y="136.6" width="14.7" height="14.7" rx="2" fill="#5e3d22" stroke="#5b6b4a" stroke-width="1"/><rect x="551.6" y="150.4" width="16.7" height="4" rx="1.5" fill="#4a2e17" stroke="#5b6b4a" stroke-width=".8"/><rect x="640" y="128" width="32" height="32" fill="url(#wallface)" stroke="#5b6b4a" stroke-width="1.5"/><rect x="640" y="128" width="32" height="32" fill="#000" fill-opacity=".12"/><rect x="96" y="160" width="32" height="32" fill="url(#wallface)" stroke="#5b6b4a" stroke-width="1.5"/><rect x="96" y="160" width="32" height="32" fill="#000" fill-opacity=".12"/><rect x="160" y="160" width="32" height="32" fill="url(#wallface)" stroke="#5b6b4a" stroke-width="1.5"/><rect x="160" y="160" width="32" height="32" fill="#000" fill-opacity=".12"/><rect x="195.5" y="177.3" width="28.0" height="14.7" rx="1" fill="#000" fill-opacity=".22"/><rect x="194.0" y="175.3" width="28.0" height="14.7" fill="#4a2e17" stroke="#5b6b4a" stroke-width="1.2"/><rect x="195.5" y="176.8" width="2.2" height="9.3" fill="#4a2a5a"/><rect x="198.2" y="176.8" width="4.0" height="7.2" fill="#2a2a2a"/><rect x="202.7" y="176.8" width="2.1" height="9.5" fill="#2c4a6e"/><rect x="205.4" y="176.8" width="3.3" height="9.6" fill="#2a2a2a"/><rect x="209.2" y="176.8" width="2.8" height="7.2" fill="#9a3a1e"/><rect x="212.5" y="176.8" width="2.1" height="8.0" fill="#2a2a2a"/><rect x="215.1" y="176.8" width="2.9" height="10.4" fill="#9a3a1e"/><rect x="261.5" y="166.0" width="24.0" height="24.0" rx="2" fill="#000" fill-opacity=".22"/><rect x="260" y="164" width="24" height="24" rx="3" fill="#6d3b22" stroke="#5b6b4a" stroke-width="1.6"/><rect x="259" y="184" width="26" height="6" rx="2" fill="#5b6b4a" stroke="#5b6b4a" stroke-width="1"/><rect x="352" y="160" width="32" height="32" fill="url(#wallface)" stroke="#5b6b4a" stroke-width="1.5"/><rect x="352" y="160" width="32" height="32" fill="#000" fill-opacity=".12"/><rect x="448" y="160" width="32" height="32" fill="url(#wallface)" stroke="#5b6b4a" stroke-width="1.5"/><rect x="448" y="160" width="32" height="32" fill="#000" fill-opacity=".12"/><ellipse cx="630.5" cy="171.6" rx="7.0" ry="5.4" fill="#000" fill-opacity=".2" transform="rotate(24 629.5 170.1)"/><ellipse cx="629.5" cy="170.1" rx="7.0" ry="5.4" fill="#cbb58a" stroke="#7a6a48" stroke-width="1" transform="rotate(24 629.5 170.1)"/><circle cx="629.5" cy="166.8" r="1.4" fill="#7a6a48"/><ellipse cx="622.0" cy="180.6" rx="7.0" ry="5.4" fill="#000" fill-opacity=".2" transform="rotate(25 621.0 179.1)"/><ellipse cx="621.0" cy="179.1" rx="7.0" ry="5.4" fill="#cbb58a" stroke="#7a6a48" stroke-width="1" transform="rotate(25 621.0 179.1)"/><circle cx="621.0" cy="175.9" r="1.4" fill="#7a6a48"/><ellipse cx="622.6" cy="175.6" rx="7.0" ry="5.4" fill="#000" fill-opacity=".2" transform="rotate(-22 621.6 174.1)"/><ellipse cx="621.6" cy="174.1" rx="7.0" ry="5.4" fill="#cbb58a" stroke="#7a6a48" stroke-width="1" transform="rotate(-22 621.6 174.1)"/><circle cx="621.6" cy="170.8" r="1.4" fill="#7a6a48"/><rect x="640" y="160" width="32" height="32" fill="url(#wallface)" stroke="#5b6b4a" stroke-width="1.5"/><rect x="640" y="160" width="32" height="32" fill="#000" fill-opacity=".12"/><rect x="64" y="192" width="32" height="32" fill="url(#wallface)" stroke="#5b6b4a" stroke-width="1.5"/><rect x="64" y="192" width="32" height="32" fill="#000" fill-opacity=".12"/><rect x="97" y="201.6" width="30" height="12.8" fill="#7a4a1e" stroke="#3a2008" stroke-width="2"/><rect x="128" y="192" width="32" height="32" fill="url(#wallface)" stroke="#5b6b4a" stroke-width="1.5"/><rect x="128" y="192" width="32" height="32" fill="#000" fill-opacity=".12"/><rect x="160" y="192" width="32" height="32" fill="url(#wallface)" stroke="#5b6b4a" stroke-width="1.5"/><rect x="160" y="192" width="32" height="32" fill="#000" fill-opacity=".12"/><rect x="192" y="192" width="32" height="32" fill="url(#wallface)" stroke="#5b6b4a" stroke-width="1.5"/><rect x="192" y="192" width="32" height="32" fill="#000" fill-opacity=".12"/><rect x="224" y="192" width="32" height="32" fill="url(#wallface)" stroke="#5b6b4a" stroke-width="1.5"/><rect x="224" y="192" width="32" height="32" fill="#000" fill-opacity=".12"/><rect x="256" y="192" width="32" height="32" fill="url(#wallface)" stroke="#5b6b4a" stroke-width="1.5"/><rect x="256" y="192" width="32" height="32" fill="#000" fill-opacity=".12"/><rect x="288" y="192" width="32" height="32" fill="url(#wallface)" stroke="#5b6b4a" stroke-width="1.5"/><rect x="288" y="192" width="32" height="32" fill="#000" fill-opacity=".12"/><rect x="320" y="192" width="32" height="32" fill="url(#wallface)" stroke="#5b6b4a" stroke-width="1.5"/><rect x="320" y="192" width="32" height="32" fill="#000" fill-opacity=".12"/><rect x="352" y="192" width="32" height="32" fill="url(#wallface)" stroke="#5b6b4a" stroke-width="1.5"/><rect x="352" y="192" width="32" height="32" fill="#000" fill-opacity=".12"/><rect x="384" y="192" width="32" height="32" fill="url(#wallface)" stroke="#5b6b4a" stroke-width="1.5"/><rect x="384" y="192" width="32" height="32" fill="#000" fill-opacity=".12"/><rect x="417" y="201.6" width="30" height="12.8" fill="none" stroke="#7a4a1e" stroke-width="2" stroke-dasharray="3 2"/><rect x="448" y="192" width="32" height="32" fill="url(#wallface)" stroke="#5b6b4a" stroke-width="1.5"/><rect x="448" y="192" width="32" height="32" fill="#000" fill-opacity=".12"/><rect x="480" y="192" width="32" height="32" fill="url(#wallface)" stroke="#5b6b4a" stroke-width="1.5"/><rect x="480" y="192" width="32" height="32" fill="#000" fill-opacity=".12"/><rect x="512" y="192" width="32" height="32" fill="url(#wallface)" stroke="#5b6b4a" stroke-width="1.5"/><rect x="512" y="192" width="32" height="32" fill="#000" fill-opacity=".12"/><rect x="544" y="192" width="32" height="32" fill="url(#wallface)" stroke="#5b6b4a" stroke-width="1.5"/><rect x="544" y="192" width="32" height="32" fill="#000" fill-opacity=".12"/><rect x="576" y="192" width="32" height="32" fill="url(#wallface)" stroke="#5b6b4a" stroke-width="1.5"/><rect x="576" y="192" width="32" height="32" fill="#000" fill-opacity=".12"/><rect x="608" y="192" width="32" height="32" fill="url(#wallface)" stroke="#5b6b4a" stroke-width="1.5"/><rect x="608" y="192" width="32" height="32" fill="#000" fill-opacity=".12"/><rect x="641" y="201.6" width="30" height="12.8" fill="#7a4a1e" stroke="#3a2008" stroke-width="2"/><rect x="672" y="192" width="32" height="32" fill="url(#wallface)" stroke="#5b6b4a" stroke-width="1.5"/><rect x="672" y="192" width="32" height="32" fill="#000" fill-opacity=".12"/><rect x="704" y="192" width="32" height="32" fill="url(#wallface)" stroke="#5b6b4a" stroke-width="1.5"/><rect x="704" y="192" width="32" height="32" fill="#000" fill-opacity=".12"/><rect x="736" y="192" width="32" height="32" fill="url(#wallface)" stroke="#5b6b4a" stroke-width="1.5"/><rect x="736" y="192" width="32" height="32" fill="#000" fill-opacity=".12"/><rect x="32" y="224" width="32" height="32" fill="url(#wallface)" stroke="#5b6b4a" stroke-width="1.5"/><rect x="32" y="224" width="32" height="32" fill="#000" fill-opacity=".12"/><rect x="768" y="224" width="32" height="32" fill="url(#wallface)" stroke="#5b6b4a" stroke-width="1.5"/><rect x="768" y="224" width="32" height="32" fill="#000" fill-opacity=".12"/><rect x="0" y="256" width="32" height="32" fill="url(#wallface)" stroke="#5b6b4a" stroke-width="1.5"/><rect x="0" y="256" width="32" height="32" fill="#000" fill-opacity=".12"/><rect x="800" y="256" width="32" height="32" fill="url(#wallface)" stroke="#5b6b4a" stroke-width="1.5"/><rect x="800" y="256" width="32" height="32" fill="#000" fill-opacity=".12"/><rect x="0" y="288" width="32" height="32" fill="url(#wallface)" stroke="#5b6b4a" stroke-width="1.5"/><rect x="0" y="288" width="32" height="32" fill="#000" fill-opacity=".12"/><rect x="800" y="288" width="32" height="32" fill="url(#wallface)" stroke="#5b6b4a" stroke-width="1.5"/><rect x="800" y="288" width="32" height="32" fill="#000" fill-opacity=".12"/><rect x="0" y="320" width="32" height="32" fill="url(#wallface)" stroke="#5b6b4a" stroke-width="1.5"/><rect x="0" y="320" width="32" height="32" fill="#000" fill-opacity=".12"/><rect x="800" y="320" width="32" height="32" fill="url(#wallface)" stroke="#5b6b4a" stroke-width="1.5"/><rect x="800" y="320" width="32" height="32" fill="#000" fill-opacity=".12"/><rect x="0" y="352" width="32" height="32" fill="url(#wallface)" stroke="#5b6b4a" stroke-width="1.5"/><rect x="0" y="352" width="32" height="32" fill="#000" fill-opacity=".12"/><rect x="800" y="352" width="32" height="32" fill="url(#wallface)" stroke="#5b6b4a" stroke-width="1.5"/><rect x="800" y="352" width="32" height="32" fill="#000" fill-opacity=".12"/><rect x="0" y="384" width="32" height="32" fill="url(#wallface)" stroke="#5b6b4a" stroke-width="1.5"/><rect x="0" y="384" width="32" height="32" fill="#000" fill-opacity=".12"/><rect x="800" y="384" width="32" height="32" fill="url(#wallface)" stroke="#5b6b4a" stroke-width="1.5"/><rect x="800" y="384" width="32" height="32" fill="#000" fill-opacity=".12"/><rect x="0" y="416" width="32" height="32" fill="url(#wallface)" stroke="#5b6b4a" stroke-width="1.5"/><rect x="0" y="416" width="32" height="32" fill="#000" fill-opacity=".12"/><rect x="800" y="416" width="32" height="32" fill="url(#wallface)" stroke="#5b6b4a" stroke-width="1.5"/><rect x="800" y="416" width="32" height="32" fill="#000" fill-opacity=".12"/><rect x="0" y="448" width="32" height="32" fill="url(#wallface)" stroke="#5b6b4a" stroke-width="1.5"/><rect x="0" y="448" width="32" height="32" fill="#000" fill-opacity=".12"/><rect x="800" y="448" width="32" height="32" fill="url(#wallface)" stroke="#5b6b4a" stroke-width="1.5"/><rect x="800" y="448" width="32" height="32" fill="#000" fill-opacity=".12"/><rect x="32" y="480" width="32" height="32" fill="url(#wallface)" stroke="#5b6b4a" stroke-width="1.5"/><rect x="32" y="480" width="32" height="32" fill="#000" fill-opacity=".12"/><rect x="64" y="480" width="32" height="32" fill="url(#wallface)" stroke="#5b6b4a" stroke-width="1.5"/><rect x="64" y="480" width="32" height="32" fill="#000" fill-opacity=".12"/><rect x="96" y="480" width="32" height="32" fill="url(#wallface)" stroke="#5b6b4a" stroke-width="1.5"/><rect x="96" y="480" width="32" height="32" fill="#000" fill-opacity=".12"/><rect x="128" y="480" width="32" height="32" fill="url(#wallface)" stroke="#5b6b4a" stroke-width="1.5"/><rect x="128" y="480" width="32" height="32" fill="#000" fill-opacity=".12"/><rect x="160" y="480" width="32" height="32" fill="url(#wallface)" stroke="#5b6b4a" stroke-width="1.5"/><rect x="160" y="480" width="32" height="32" fill="#000" fill-opacity=".12"/><rect x="192" y="480" width="32" height="32" fill="url(#wallface)" stroke="#5b6b4a" stroke-width="1.5"/><rect x="192" y="480" width="32" height="32" fill="#000" fill-opacity=".12"/><rect x="224" y="480" width="32" height="32" fill="url(#wallface)" stroke="#5b6b4a" stroke-width="1.5"/><rect x="224" y="480" width="32" height="32" fill="#000" fill-opacity=".12"/><rect x="256" y="480" width="32" height="32" fill="url(#wallface)" stroke="#5b6b4a" stroke-width="1.5"/><rect x="256" y="480" width="32" height="32" fill="#000" fill-opacity=".12"/><rect x="288" y="480" width="32" height="32" fill="url(#wallface)" stroke="#5b6b4a" stroke-width="1.5"/><rect x="288" y="480" width="32" height="32" fill="#000" fill-opacity=".12"/><rect x="448" y="480" width="32" height="32" fill="url(#wallface)" stroke="#5b6b4a" stroke-width="1.5"/><rect x="448" y="480" width="32" height="32" fill="#000" fill-opacity=".12"/><rect x="480" y="480" width="32" height="32" fill="url(#wallface)" stroke="#5b6b4a" stroke-width="1.5"/><rect x="480" y="480" width="32" height="32" fill="#000" fill-opacity=".12"/><rect x="512" y="480" width="32" height="32" fill="url(#wallface)" stroke="#5b6b4a" stroke-width="1.5"/><rect x="512" y="480" width="32" height="32" fill="#000" fill-opacity=".12"/><rect x="544" y="480" width="32" height="32" fill="url(#wallface)" stroke="#5b6b4a" stroke-width="1.5"/><rect x="544" y="480" width="32" height="32" fill="#000" fill-opacity=".12"/><rect x="576" y="480" width="32" height="32" fill="url(#wallface)" stroke="#5b6b4a" stroke-width="1.5"/><rect x="576" y="480" width="32" height="32" fill="#000" fill-opacity=".12"/><rect x="608" y="480" width="32" height="32" fill="url(#wallface)" stroke="#5b6b4a" stroke-width="1.5"/><rect x="608" y="480" width="32" height="32" fill="#000" fill-opacity=".12"/><rect x="640" y="480" width="32" height="32" fill="url(#wallface)" stroke="#5b6b4a" stroke-width="1.5"/><rect x="640" y="480" width="32" height="32" fill="#000" fill-opacity=".12"/><rect x="672" y="480" width="32" height="32" fill="url(#wallface)" stroke="#5b6b4a" stroke-width="1.5"/><rect x="672" y="480" width="32" height="32" fill="#000" fill-opacity=".12"/><rect x="704" y="480" width="32" height="32" fill="url(#wallface)" stroke="#5b6b4a" stroke-width="1.5"/><rect x="704" y="480" width="32" height="32" fill="#000" fill-opacity=".12"/><rect x="736" y="480" width="32" height="32" fill="url(#wallface)" stroke="#5b6b4a" stroke-width="1.5"/><rect x="736" y="480" width="32" height="32" fill="#000" fill-opacity=".12"/><rect x="768" y="480" width="32" height="32" fill="url(#wallface)" stroke="#5b6b4a" stroke-width="1.5"/><rect x="768" y="480" width="32" height="32" fill="#000" fill-opacity=".12"/><path d="M0 0V512M32 0V512M64 0V512M96 0V512M128 0V512M160 0V512M192 0V512M224 0V512M256 0V512M288 0V512M320 0V512M352 0V512M384 0V512M416 0V512M448 0V512M480 0V512M512 0V512M544 0V512M576 0V512M608 0V512M640 0V512M672 0V512M704 0V512M736 0V512M768 0V512M800 0V512M832 0V512M0 0H832M0 32H832M0 64H832M0 96H832M0 128H832M0 160H832M0 192H832M0 224H832M0 256H832M0 288H832M0 320H832M0 352H832M0 384H832M0 416H832M0 448H832M0 480H832M0 512H832" stroke="#000" stroke-opacity=".13" stroke-width="1"/><text x="384.0" y="384.0" font-size="14.4" font-style="italic" fill="#fff" stroke="#2b1d0e" stroke-width="3" paint-order="stroke"><tspan x="384.0" dy="0.0">Cobweb Court</tspan></text><text x="384.0" y="480.0" font-size="14.4" font-style="italic" fill="#fff" stroke="#2b1d0e" stroke-width="3" paint-order="stroke"><tspan x="384.0" dy="0.0">to the Museum Steps</tspan></text><g class="prop"><title>Court pump</title><svg x="549.7" y="326.2" width="23.7" height="23.7" viewBox="0 0 512 512" fill="#000" fill-opacity=".25"><path  d="M255.988 31.375c-6.982 0-12.117 5.154-12.117 11.324s5.135 11.322 12.117 11.322s12.12-5.152 12.12-11.322s-5.137-11.324-12.12-11.324m-29.71 6.52c-35.014 5.168-60.463 15.37-78.493 29.45c5.212 2.128 9.722 5.65 12.994 10.098c15.216-10.926 36.743-19.218 67.326-23.697a28.3 28.3 0 0 1-2.234-11.047c0-1.638.139-3.242.406-4.804zM265 70.66a30.5 30.5 0 0 1-9.012 1.361A30.5 30.5 0 0 1 247 70.668V119h18zM136.266 83.086c-6.983 0-12.12 5.154-12.12 11.324s5.137 11.322 12.12 11.322s12.117-5.152 12.117-11.322s-5.135-11.324-12.117-11.324m26.945 24.375c-2.807 5.437-7.3 9.904-12.762 12.773l34.686 29.575l-2.586-25.86zm-48.14 7.707c-8.413 26.745-7.183 57.018-4.553 87.209c3.439 39.481 9.365 79.42 3.044 111.687c-6.32 32.268-23.047 57.116-69.396 71.141l4.635 15.315c50.645-15.326 73.327-46.954 80.463-83.381s.568-77.404-2.807-116.15c-2.476-28.422-3.184-55.321 3.086-78.005a30.56 30.56 0 0 1-14.473-7.816zM201.944 137l14.2 142h79.71l14.2-142zm119.8 64l-3 30H368c19.144 0 42.13 13.646 55.734 38.566l24.5-16.56c-7.724-15.04-15.357-26.666-24.326-34.809c-10.26-9.316-22.374-14.9-40.64-17.197zM233 297v126h46V297zm215 7c-16 16-32 48-32 64c0 32 64 32 64 0c0-16-16-48-32-64M226.725 441L185 468.816V487h142v-18.184L285.275 441z"/></svg><svg x="548.2" y="324.2" width="23.7" height="23.7" viewBox="0 0 512 512" fill="#5b6b4a"><path  d="M255.988 31.375c-6.982 0-12.117 5.154-12.117 11.324s5.135 11.322 12.117 11.322s12.12-5.152 12.12-11.322s-5.137-11.324-12.12-11.324m-29.71 6.52c-35.014 5.168-60.463 15.37-78.493 29.45c5.212 2.128 9.722 5.65 12.994 10.098c15.216-10.926 36.743-19.218 67.326-23.697a28.3 28.3 0 0 1-2.234-11.047c0-1.638.139-3.242.406-4.804zM265 70.66a30.5 30.5 0 0 1-9.012 1.361A30.5 30.5 0 0 1 247 70.668V119h18zM136.266 83.086c-6.983 0-12.12 5.154-12.12 11.324s5.137 11.322 12.12 11.322s12.117-5.152 12.117-11.322s-5.135-11.324-12.117-11.324m26.945 24.375c-2.807 5.437-7.3 9.904-12.762 12.773l34.686 29.575l-2.586-25.86zm-48.14 7.707c-8.413 26.745-7.183 57.018-4.553 87.209c3.439 39.481 9.365 79.42 3.044 111.687c-6.32 32.268-23.047 57.116-69.396 71.141l4.635 15.315c50.645-15.326 73.327-46.954 80.463-83.381s.568-77.404-2.807-116.15c-2.476-28.422-3.184-55.321 3.086-78.005a30.56 30.56 0 0 1-14.473-7.816zM201.944 137l14.2 142h79.71l14.2-142zm119.8 64l-3 30H368c19.144 0 42.13 13.646 55.734 38.566l24.5-16.56c-7.724-15.04-15.357-26.666-24.326-34.809c-10.26-9.316-22.374-14.9-40.64-17.197zM233 297v126h46V297zm215 7c-16 16-32 48-32 64c0 32 64 32 64 0c0-16-16-48-32-64M226.725 441L185 468.816V487h142v-18.184L285.275 441z"/></svg></g><g class="prop"><title>A ginger cat on the step</title><svg x="425.5" y="234.0" width="16.0" height="16.0" viewBox="0 0 512 512" fill="#000" fill-opacity=".25"><path  d="m463.46 37.008l-30.694 50.738l-7.043-2.28c-27.146-8.797-71.525-7.15-97.6.11L321.22 87.5l-28.68-48.543c-33.63 69.254-32.264 117.56-14.79 148.574c18.71 33.208 57.378 49.09 99.117 48.574c48.743-.606 88.968-19.665 107.035-54.194c16.918-32.332 15.684-80.456-20.443-144.902zM323.935 137.594c18.45.1 29.36 15.338 31.462 36.644c-37.11 17.91-53.963 3.398-61.173-26.545c11.382-7.063 21.324-10.144 29.71-10.1zm109.26 0c8.385-.045 18.328 3.036 29.71 10.1c-7.21 29.942-24.064 44.454-61.174 26.544c2.104-21.306 13.014-36.545 31.463-36.644zm-293.553 50.96q-1.839-.014-3.66.018c-30.175.536-56.142 10.59-75.743 26.574c-43.444 35.43-57.27 100.752-12.824 166.192c20.293 33.995 44.432 54.24 70.797 64.187c32.85 12.395 66.655 8.823 99.94 4.114s65.854-10.63 96.896-8.42c31.04 2.212 62.09 10.18 90.505 41.165c19.374 21.125 46.887-1.627 23.82-24.156c-35.024-34.207-72.527-47.42-109.377-50.04s-72.2 4.698-104.207 9.228s-60.272 6.552-84.558-2.61c-14.39-5.43-28.308-14.802-41.55-31.142h351.744c13.673-52.293 14.867-106.368 1.873-142.072c-19.765 8.49-42.412 12.9-66.2 13.197h-.002c-29.85.37-59.458-6.925-82.907-22.823a426 426 0 0 0-14.292 9.685l-5.734 4.057l-5.49-4.382c-46.63-37.2-91.028-52.48-129.03-52.773z"/></svg><svg x="424.0" y="232.0" width="16.0" height="16.0" viewBox="0 0 512 512" fill="#5b6b4a"><path  d="m463.46 37.008l-30.694 50.738l-7.043-2.28c-27.146-8.797-71.525-7.15-97.6.11L321.22 87.5l-28.68-48.543c-33.63 69.254-32.264 117.56-14.79 148.574c18.71 33.208 57.378 49.09 99.117 48.574c48.743-.606 88.968-19.665 107.035-54.194c16.918-32.332 15.684-80.456-20.443-144.902zM323.935 137.594c18.45.1 29.36 15.338 31.462 36.644c-37.11 17.91-53.963 3.398-61.173-26.545c11.382-7.063 21.324-10.144 29.71-10.1zm109.26 0c8.385-.045 18.328 3.036 29.71 10.1c-7.21 29.942-24.064 44.454-61.174 26.544c2.104-21.306 13.014-36.545 31.463-36.644zm-293.553 50.96q-1.839-.014-3.66.018c-30.175.536-56.142 10.59-75.743 26.574c-43.444 35.43-57.27 100.752-12.824 166.192c20.293 33.995 44.432 54.24 70.797 64.187c32.85 12.395 66.655 8.823 99.94 4.114s65.854-10.63 96.896-8.42c31.04 2.212 62.09 10.18 90.505 41.165c19.374 21.125 46.887-1.627 23.82-24.156c-35.024-34.207-72.527-47.42-109.377-50.04s-72.2 4.698-104.207 9.228s-60.272 6.552-84.558-2.61c-14.39-5.43-28.308-14.802-41.55-31.142h351.744c13.673-52.293 14.867-106.368 1.873-142.072c-19.765 8.49-42.412 12.9-66.2 13.197h-.002c-29.85.37-59.458-6.925-82.907-22.823a426 426 0 0 0-14.292 9.685l-5.734 4.057l-5.49-4.382c-46.63-37.2-91.028-52.48-129.03-52.773z"/></svg></g><g class="prop"><title>Washing on the line</title><svg x="201.5" y="298.0" width="16.0" height="16.0" viewBox="0 0 512 512" fill="#000" fill-opacity=".25"><path  d="M255.973 22.965c-43.313 0-95.117 14.71-126.66 30.12c-33.538 13.63-60.84 30.408-80.33 60.542c-26.22 40.536-38.948 103.153-30.278 202.797c24.886 8.635 47.288 6.054 70.272-1.73c-7.203-32.898-6.04-65.776 2.072-92.645c8.872-29.395 26.72-53.085 52.886-57.17l11.56-1.804l.305 11.697c.226 8.523.38 17.397.485 26.434l.113 26.338c-.155 36.707-1.593 76.298-5.328 116.182c23.522 7.64 61.78 12.326 99.99 12.597l19.18-.244c35.59-1.145 69.858-6.043 90.4-12.78c-4.562-61.128-4.866-122.812-6.34-172.464l-.407-13.7l13.267 3.44c26.03 6.746 44.022 30.776 53.246 60.528c8.425 27.166 9.814 59.957 2.668 92.833c17.938 5.68 35.678 7.15 53.602 4.926l18.355-2.453c4.31-78.49-5.98-156.066-26.157-193.04L450.48 96.767c-19.39-22.354-44.318-35.044-73.71-46.207c-28.146-14.427-76.6-27.595-120.797-27.595m0 12.724c27.095 0 55.783 8.103 80.42 18.845c-13.03 11.505-29.087 19.462-46.176 24.008l-32.764 72.228l-28.53-70.442c-19.852-3.88-38.642-12.34-53.34-25.76c25.763-11.032 54.585-18.88 80.39-18.88zm2.416 119.08l14.655 22.226l-14.59 21.084l-14.725-21.084zm0 49.603l14.655 22.23l-14.59 21.083l-14.725-21.084l14.66-22.23zm0 48.957l14.655 22.227l-14.59 21.086l-14.725-21.086zm0 49.553l14.655 22.228l-14.59 21.085l-14.725-21.084l14.66-22.227zm104.645 57.226c-27.583 8.572-66.045 12.127-105.467 12.314c-39.638.188-79.132-3.107-108.078-12.07a919 919 0 0 1-2.828 22.312c24.902 8.897 68.203 14.22 110.56 14.016c42.322-.205 84.93-6.02 108.116-14.32a1007 1007 0 0 1-2.303-22.253zm5.71 37.913c-28.3 9.63-68.984 13.61-110.698 13.81c-12.246.06-24.475-.22-36.402-.89l-17.637-1.314c-22.358-2.09-43.007-5.768-59.787-11.507c-3.742 22.658-8.426 44.944-14.243 66.354c8.833 4.422 18.403 8.212 28.52 11.404l16.564 4.575c66.132 15.875 149.713 8.995 206.963-14.658c-5.656-21.24-9.96-44.108-13.28-67.774"/></svg><svg x="200.0" y="296.0" width="16.0" height="16.0" viewBox="0 0 512 512" fill="#5b6b4a"><path  d="M255.973 22.965c-43.313 0-95.117 14.71-126.66 30.12c-33.538 13.63-60.84 30.408-80.33 60.542c-26.22 40.536-38.948 103.153-30.278 202.797c24.886 8.635 47.288 6.054 70.272-1.73c-7.203-32.898-6.04-65.776 2.072-92.645c8.872-29.395 26.72-53.085 52.886-57.17l11.56-1.804l.305 11.697c.226 8.523.38 17.397.485 26.434l.113 26.338c-.155 36.707-1.593 76.298-5.328 116.182c23.522 7.64 61.78 12.326 99.99 12.597l19.18-.244c35.59-1.145 69.858-6.043 90.4-12.78c-4.562-61.128-4.866-122.812-6.34-172.464l-.407-13.7l13.267 3.44c26.03 6.746 44.022 30.776 53.246 60.528c8.425 27.166 9.814 59.957 2.668 92.833c17.938 5.68 35.678 7.15 53.602 4.926l18.355-2.453c4.31-78.49-5.98-156.066-26.157-193.04L450.48 96.767c-19.39-22.354-44.318-35.044-73.71-46.207c-28.146-14.427-76.6-27.595-120.797-27.595m0 12.724c27.095 0 55.783 8.103 80.42 18.845c-13.03 11.505-29.087 19.462-46.176 24.008l-32.764 72.228l-28.53-70.442c-19.852-3.88-38.642-12.34-53.34-25.76c25.763-11.032 54.585-18.88 80.39-18.88zm2.416 119.08l14.655 22.226l-14.59 21.084l-14.725-21.084zm0 49.603l14.655 22.23l-14.59 21.083l-14.725-21.084l14.66-22.23zm0 48.957l14.655 22.227l-14.59 21.086l-14.725-21.086zm0 49.553l14.655 22.228l-14.59 21.085l-14.725-21.084l14.66-22.227zm104.645 57.226c-27.583 8.572-66.045 12.127-105.467 12.314c-39.638.188-79.132-3.107-108.078-12.07a919 919 0 0 1-2.828 22.312c24.902 8.897 68.203 14.22 110.56 14.016c42.322-.205 84.93-6.02 108.116-14.32a1007 1007 0 0 1-2.303-22.253zm5.71 37.913c-28.3 9.63-68.984 13.61-110.698 13.81c-12.246.06-24.475-.22-36.402-.89l-17.637-1.314c-22.358-2.09-43.007-5.768-59.787-11.507c-3.742 22.658-8.426 44.944-14.243 66.354c8.833 4.422 18.403 8.212 28.52 11.404l16.564 4.575c66.132 15.875 149.713 8.995 206.963-14.658c-5.656-21.24-9.96-44.108-13.28-67.774"/></svg></g><g class="prop" transform="rotate(10 272.0 304.0)"><title>Washing on the line</title><svg x="265.5" y="298.0" width="16.0" height="16.0" viewBox="0 0 512 512" fill="#000" fill-opacity=".25"><path  d="M255.973 22.965c-43.313 0-95.117 14.71-126.66 30.12c-33.538 13.63-60.84 30.408-80.33 60.542c-26.22 40.536-38.948 103.153-30.278 202.797c24.886 8.635 47.288 6.054 70.272-1.73c-7.203-32.898-6.04-65.776 2.072-92.645c8.872-29.395 26.72-53.085 52.886-57.17l11.56-1.804l.305 11.697c.226 8.523.38 17.397.485 26.434l.113 26.338c-.155 36.707-1.593 76.298-5.328 116.182c23.522 7.64 61.78 12.326 99.99 12.597l19.18-.244c35.59-1.145 69.858-6.043 90.4-12.78c-4.562-61.128-4.866-122.812-6.34-172.464l-.407-13.7l13.267 3.44c26.03 6.746 44.022 30.776 53.246 60.528c8.425 27.166 9.814 59.957 2.668 92.833c17.938 5.68 35.678 7.15 53.602 4.926l18.355-2.453c4.31-78.49-5.98-156.066-26.157-193.04L450.48 96.767c-19.39-22.354-44.318-35.044-73.71-46.207c-28.146-14.427-76.6-27.595-120.797-27.595m0 12.724c27.095 0 55.783 8.103 80.42 18.845c-13.03 11.505-29.087 19.462-46.176 24.008l-32.764 72.228l-28.53-70.442c-19.852-3.88-38.642-12.34-53.34-25.76c25.763-11.032 54.585-18.88 80.39-18.88zm2.416 119.08l14.655 22.226l-14.59 21.084l-14.725-21.084zm0 49.603l14.655 22.23l-14.59 21.083l-14.725-21.084l14.66-22.23zm0 48.957l14.655 22.227l-14.59 21.086l-14.725-21.086zm0 49.553l14.655 22.228l-14.59 21.085l-14.725-21.084l14.66-22.227zm104.645 57.226c-27.583 8.572-66.045 12.127-105.467 12.314c-39.638.188-79.132-3.107-108.078-12.07a919 919 0 0 1-2.828 22.312c24.902 8.897 68.203 14.22 110.56 14.016c42.322-.205 84.93-6.02 108.116-14.32a1007 1007 0 0 1-2.303-22.253zm5.71 37.913c-28.3 9.63-68.984 13.61-110.698 13.81c-12.246.06-24.475-.22-36.402-.89l-17.637-1.314c-22.358-2.09-43.007-5.768-59.787-11.507c-3.742 22.658-8.426 44.944-14.243 66.354c8.833 4.422 18.403 8.212 28.52 11.404l16.564 4.575c66.132 15.875 149.713 8.995 206.963-14.658c-5.656-21.24-9.96-44.108-13.28-67.774"/></svg><svg x="264.0" y="296.0" width="16.0" height="16.0" viewBox="0 0 512 512" fill="#5b6b4a"><path  d="M255.973 22.965c-43.313 0-95.117 14.71-126.66 30.12c-33.538 13.63-60.84 30.408-80.33 60.542c-26.22 40.536-38.948 103.153-30.278 202.797c24.886 8.635 47.288 6.054 70.272-1.73c-7.203-32.898-6.04-65.776 2.072-92.645c8.872-29.395 26.72-53.085 52.886-57.17l11.56-1.804l.305 11.697c.226 8.523.38 17.397.485 26.434l.113 26.338c-.155 36.707-1.593 76.298-5.328 116.182c23.522 7.64 61.78 12.326 99.99 12.597l19.18-.244c35.59-1.145 69.858-6.043 90.4-12.78c-4.562-61.128-4.866-122.812-6.34-172.464l-.407-13.7l13.267 3.44c26.03 6.746 44.022 30.776 53.246 60.528c8.425 27.166 9.814 59.957 2.668 92.833c17.938 5.68 35.678 7.15 53.602 4.926l18.355-2.453c4.31-78.49-5.98-156.066-26.157-193.04L450.48 96.767c-19.39-22.354-44.318-35.044-73.71-46.207c-28.146-14.427-76.6-27.595-120.797-27.595m0 12.724c27.095 0 55.783 8.103 80.42 18.845c-13.03 11.505-29.087 19.462-46.176 24.008l-32.764 72.228l-28.53-70.442c-19.852-3.88-38.642-12.34-53.34-25.76c25.763-11.032 54.585-18.88 80.39-18.88zm2.416 119.08l14.655 22.226l-14.59 21.084l-14.725-21.084zm0 49.603l14.655 22.23l-14.59 21.083l-14.725-21.084l14.66-22.23zm0 48.957l14.655 22.227l-14.59 21.086l-14.725-21.086zm0 49.553l14.655 22.228l-14.59 21.085l-14.725-21.084l14.66-22.227zm104.645 57.226c-27.583 8.572-66.045 12.127-105.467 12.314c-39.638.188-79.132-3.107-108.078-12.07a919 919 0 0 1-2.828 22.312c24.902 8.897 68.203 14.22 110.56 14.016c42.322-.205 84.93-6.02 108.116-14.32a1007 1007 0 0 1-2.303-22.253zm5.71 37.913c-28.3 9.63-68.984 13.61-110.698 13.81c-12.246.06-24.475-.22-36.402-.89l-17.637-1.314c-22.358-2.09-43.007-5.768-59.787-11.507c-3.742 22.658-8.426 44.944-14.243 66.354c8.833 4.422 18.403 8.212 28.52 11.404l16.564 4.575c66.132 15.875 149.713 8.995 206.963-14.658c-5.656-21.24-9.96-44.108-13.28-67.774"/></svg></g><g class="poi" data-poi="poi-1" style="cursor:pointer"><title>Widow Sallow&#x27;s parlour window</title><circle cx="265" cy="201" r="7.5" fill="#6fb0ff" stroke="#10243d" stroke-width="2"/><text x="265" y="204.6" text-anchor="middle" font-family="Georgia,serif" font-weight="bold" font-size="10.5" fill="#10243d">i</text></g><g class="poi" data-poi="poi-2" style="cursor:pointer"><title>Widow Sallow&#x27;s front door</title><circle cx="425" cy="201" r="7.5" fill="#6fb0ff" stroke="#10243d" stroke-width="2"/><text x="425" y="204.6" text-anchor="middle" font-family="Georgia,serif" font-weight="bold" font-size="10.5" fill="#10243d">i</text></g><g class="poi" data-poi="poi-3" style="cursor:pointer"><title>Court pump</title><circle cx="553" cy="329" r="7.5" fill="#6fb0ff" stroke="#10243d" stroke-width="2"/><text x="553" y="332.6" text-anchor="middle" font-family="Georgia,serif" font-weight="bold" font-size="10.5" fill="#10243d">i</text></g><g class="poi" data-poi="poi-4" style="cursor:pointer"><title>Washing line</title><circle cx="233" cy="297" r="7.5" fill="#6fb0ff" stroke="#10243d" stroke-width="2"/><text x="233" y="300.6" text-anchor="middle" font-family="Georgia,serif" font-weight="bold" font-size="10.5" fill="#10243d">i</text></g><g class="poi" data-poi="poi-5" style="cursor:pointer"><title>Neighbour&#x27;s door</title><circle cx="105" cy="201" r="7.5" fill="#6fb0ff" stroke="#10243d" stroke-width="2"/><text x="105" y="204.6" text-anchor="middle" font-family="Georgia,serif" font-weight="bold" font-size="10.5" fill="#10243d">i</text></g><g class="poi" data-poi="poi-6" style="cursor:pointer"><title>The house opposite</title><circle cx="649" cy="201" r="7.5" fill="#6fb0ff" stroke="#10243d" stroke-width="2"/><text x="649" y="204.6" text-anchor="middle" font-family="Georgia,serif" font-weight="bold" font-size="10.5" fill="#10243d">i</text></g><g class="poi" data-poi="poi-7" style="cursor:pointer"><title>Court entrance</title><circle cx="393" cy="489" r="7.5" fill="#6fb0ff" stroke="#10243d" stroke-width="2"/><text x="393" y="492.6" text-anchor="middle" font-family="Georgia,serif" font-weight="bold" font-size="10.5" fill="#10243d">i</text></g><defs><symbol id="i-hooded-assassin" viewBox="0 0 512 512"><path fill="currentColor" d="M332.031 66.13c-28.807-.01-55.439 14.149-67.88 40.65c20.79 1.744 16 55.07 16 55.07c-11.814 16.687-24.73 33.186-36.589 50.146c0 0-99.046 132.283-178.378 168.025c-28.049 22.593-33.305 36.532-44.137 52.649c-4.877 9.54 9.257 14.324 11.701 13.2c22.726-10.461 25.176-20.866 47.07-35.675c12.805-5.026 23.839-15.9 31.854-11.049c34.962 20.86 107.556 44.28 118.271 38.706c17.857-9.263-5.78-43.585 16.174-89.057c31.97-3.352 58.916-.885 88.332-12.094c3.483 50.279 10.106 54.59 6.766 107.092l71.2 1.045l.698-14.61l-41.814-11.105c11.528-56.054 11.816-78.996 4.672-127.996c-.956-6.622-53.746-8.275-81.012-3.79c24.449-24.202 40.274-45.24 47.506-68.44l.027.189c7.637 15.923 30.083 33.958 35.336 37.125c27.704 11.048 38.214 7.982 62.955 3.887c4.907-.784 27.47 24.537 44.807 9.597c2.642-20.238 16.522-20.369-4.938-32.71c-4.847-2.73-27.063 7.462-31.418 6.898c-20.21-2.481-30.954-5.211-58.45-12.703c-10.23-13.187-32.676-56.136-55.43-59.744c6.535-14.15 28.226-53.108 73.664-66.237c-20.943-26.54-49.925-39.057-76.987-39.068zm82.405 46.722c-46.658 19.516-58.266 50.4-58.266 50.4l9.916 7.644s9.646-4.765 48.35-58.044m23.04 160.005l-4.658 11.418c5.233-.083 10.425.47 15.328 1.608c-12.774 30.856-23.938 59.635-28.181 93.094l-.908 7.558l4.863-5.889c20.805-25.671 32.303-55.25 44.95-85.78c4.203 2.656 8.24 5.885 12.071 9.35l4.78-11.374l-20.518-8.526l-31.767 66.579l24.062-69.713z"/></symbol><symbol id="i-wizard-staff" viewBox="0 0 512 512"><path fill="currentColor" d="M335.656 19.53c-24.51.093-48.993 5.235-71.062 15.626c-22.46 10.577-43.112 34.202-58.375 62.563c-15.264 28.36-25.182 61.262-27.69 88.75c-7.487 82.112-51.926 155.352-159.78 252.56l-.188 21.44C89.216 403.443 139.915 346.632 176.313 290l.063.03c-9.293 32.473-22.623 63.18-43.594 87.97c-31.47 35.584-69.222 71.1-114.468 106.53l-.062 8.25l25 .064h.47l1.28-1.156c24.405-16.498 48.607-31.488 72.594-41.5l.187.187l-46.436 42.5l28.937.063c48.372-41.685 94.714-90.58 129.626-137c33.587-44.658 56.02-87.312 60.688-116.844c-1.268-2.32-2.552-4.628-3.656-7.094c-18.833-42.06-4.273-96.424 40.218-116.063c32.73-14.45 74.854-3.165 90.438 31.344c.15.333.324.634.47.97c13.302 24.062 6.175 49.48-9.345 61.97c-7.866 6.328-18.442 9.528-28.75 6.56c-10.31-2.966-19.043-11.772-24.5-25.124l17.28-7.062c3.992 9.764 8.667 13.15 12.375 14.22c3.708 1.066 7.767.148 11.875-3.158c8.216-6.61 14.282-21.91 4.406-39.03l-.28-.47l-.22-.5c-10.7-24.82-41.96-33.333-66.22-22.625c-34.063 15.037-45.594 58.052-30.686 91.345c20.527 45.846 77.97 61.177 122.375 40.875c60.157-27.5 80.13-103.328 53.094-161.813c-24.737-53.503-81.41-82.484-138.908-83.843c-1.633-.04-3.272-.07-4.906-.063zm-25.75 26.72c3.238.035 6.363.348 9.406.906c10.343 1.898 19.946 6.753 29.032 13.25c-30.623-5.437-58.324 4.612-80.78 24.782c-22.44 20.152-39.16 50.59-45.783 84.718c-4.655-11.358-7.166-21.462-6.686-31.72c.296-6.343 1.715-12.956 4.78-20.217c9.094-18.016 21.032-33.946 35.22-46.69c7.824-7.026 16.39-13.07 25.53-17.905c10.932-5.212 20.522-7.22 29.282-7.125zm122.938 62.313c22.583 13.167 34.365 41.86 32.937 70.656c-.564 11.395-3.466 22.975-8.905 33.624c-12.48 18.937-35.53 25.51-49.97 20.875l-.092-.25c27.943-10.365 39.18-32.377 40.312-55.19c.124-2.5.115-4.994-.03-7.468c1.447-13.31-.412-28.793-5.47-43.437c-2.244-6.496-5.15-12.89-8.844-18.72l.064-.093zm-135.563 1.312c-20.97 19.342-29.406 35.252-33.25 51.25c-3.848 16.023-2.788 32.84-2.905 52.875c-.14 23.79-2.56 51.542-18.438 85.688c-.005.012-.025.018-.03.03c-21.095 26.753-45.276 52.25-68.907 67.376l-.063-.03c64.195-71.545 68.527-114.792 68.75-153.19c.112-19.197-1.253-37.594 3.438-57.124a98 98 0 0 1 2-7.125h.03c8.098-17.036 16.572-26.058 25.47-31.563c7.18-4.44 15.035-6.697 23.906-8.187z"/></symbol><symbol id="i-crossed-swords" viewBox="0 0 512 512"><path fill="currentColor" d="M19.75 14.438c59.538 112.29 142.51 202.35 232.28 292.718l3.626 3.75l.063-.062c21.827 21.93 44.04 43.923 66.405 66.25c-18.856 14.813-38.974 28.2-59.938 40.312l28.532 28.53l68.717-68.717c42.337 27.636 76.286 63.646 104.094 105.81l28.064-28.06c-42.47-27.493-79.74-60.206-106.03-103.876l68.936-68.938l-28.53-28.53c-11.115 21.853-24.413 42.015-39.47 60.593c-43.852-43.8-86.462-85.842-130.125-125.47c-.224-.203-.432-.422-.656-.625C183.624 122.75 108.515 63.91 19.75 14.437zm471.875 0c-83.038 46.28-154.122 100.78-221.97 161.156l22.814 21.562l56.81-56.812l13.22 13.187l-56.438 56.44l24.594 23.186c61.802-66.92 117.6-136.92 160.97-218.72zm-329.53 125.906l200.56 200.53a403 403 0 0 1-13.405 13.032L148.875 153.53zm-76.69 113.28l-28.5 28.532l68.907 68.906c-26.29 43.673-63.53 76.414-106 103.907l28.063 28.06c27.807-42.164 61.758-78.174 104.094-105.81l68.718 68.717l28.53-28.53c-20.962-12.113-41.08-25.5-59.937-40.313c17.865-17.83 35.61-35.433 53.157-52.97l-24.843-25.655l-55.47 55.467c-4.565-4.238-9.014-8.62-13.374-13.062l55.844-55.844l-24.53-25.374c-18.28 17.856-36.602 36.06-55.158 54.594c-15.068-18.587-28.38-38.758-39.5-60.625z"/></symbol><symbol id="i-harp" viewBox="0 0 512 512"><path fill="currentColor" d="m120.7 27.53l-28.93 8.56C112.1 187.8 125.6 321.9 183.9 455H228c-40-140.6-84.2-280.4-107.3-427.47m19.9 10.36c2.6 16.05 5.5 32.03 8.7 47.95c9.8 2.67 19.9 6.9 30.1 11.85c18.3 8.71 37.3 19.81 56.1 29.51s37.3 17.9 53.6 21.1c16.4 3.2 29.8 1.7 41.6-7c22.2-16.4 38.4-26.2 51.3-31.4c12.8-5.2 23.3-5.9 31.6-1.8c7.8 4 11.5 11.1 14.2 17.1l5.1-11.3c-7.3-12.9-18.1-21.38-32.9-23.26c-16.2-2.05-38.4 4.06-66 25.66c-14.4 11.3-33 9.7-50.6 2.8c-17.5-6.9-35.7-18.9-54.2-31.64c-18.6-12.74-37.3-26.21-54.8-35.98c-12.3-6.86-23.8-11.66-33.8-13.59m12.8 68.31q7.2 34.5 15.6 68.7v-62.2c-5.4-2.6-10.6-4.8-15.6-6.5M404.8 124c-27 110.6-55.1 223.8-97.7 331h38.6c34.5-94.4 51-203.5 70.3-311.3c-1.8-3.8-3-7.4-4.3-10.4c-2.3-5.3-4.3-8.1-6.3-9.1c-.2-.1-.4-.2-.6-.2M199 128.1v160.4c5.9 21.1 11.9 42.1 18 63.1V137.8c-6.1-3.2-12.1-6.5-18-9.7M361 142q-8.1 5.4-18 12.6V288h1c5.9-20.9 11.5-41.8 17-62.8zm-114 10.8V455h18V160.2c-6-2.2-12-4.7-18-7.4m66 14.3c-5.9.7-11.9.8-18 .2v269.8c6.3-16.4 12.3-32.9 18-49.6zM163.9 473l-15.1 16h214.4l-15.1-16z"/></symbol><symbol id="i-farmer" viewBox="0 0 512 512"><path fill="currentColor" d="m379.42 24.066l-28.059 87.407l28.268 5.941l-3.098 15.352l-52.25 47.843l-51.5-43.125l-23.404-4.093c8.217-14.33 14.683-32.77 16.404-49.594c10.02-2.28 34.92-5.675 46.094-10.059c-4.997-10.285-30.197-16.906-48.7-16.316c-1.733-20.713-8.88-29.054-34.155-27.902c-25.276 1.151-32.972 6.601-30.16 36.423c-18.866 4.127-38.097 12.616-39.74 27.084c7.87-.307 32.96-2.896 40.724-3.011c.66 14.1 4.4 27.847 9.97 36.375l-35.158-6.125L106 195.922l77.344 55.875l1.625 16.844l-34.19 215.75h38.375l38.315-169.25l47.873 169.25h37.47l-3.564-16.407l17.094 16.407l63.062-322.532c5.01-4.54 9.265-8.481 12.094-11.312c.177-10.537-2.537-18.942-5.094-24.5l.971-4.902l27.238 5.724l8.444-93.117l-22.846 68.781l-10.848-2.256l6.635-72.658l-21.568 69.55l-11.217-2.333zm26.578 3.553l.002-.01h-.002zM182.844 153.39l.344 64.095l-31.5-23.75zm88.031 21.252l50.875 45.937s22.993-19.456 44.875-38.531L309.187 467.61l-42.812-197.529z"/></symbol></defs><g id='tokens'><g class="token" data-id="kit" data-stack="" data-cx="400.0" data-cy="464.0" data-r="16.0" data-side="pc" opacity="1"><title>Kit Corvell</title><circle cx="402.0" cy="467.0" r="15.0" fill="#000" fill-opacity=".3"/><circle cx="400.0" cy="464.0" r="15.0" fill="#2f8fdd"/><circle cx="400.0" cy="464.0" r="12.0" fill="hsl(328,38%,26%)"/><use href="#i-hooded-assassin" x="390.0" y="454.0" width="20.0" height="20.0" fill="#f4efe6"/><rect x="387.0" y="475.0" width="26.0" height="5" rx="2" fill="#111" fill-opacity=".7"/><rect class="hpbar" data-w="26.0" x="387.0" y="475.0" width="26.0" height="5" rx="2" fill="#3cb371"/><g class="nametag"><rect x="390.4" y="480.5" width="19.1" height="11" rx="3" fill="#0c0a10" fill-opacity=".72"/><text x="400.0" y="489.0" text-anchor="middle" font-size="9" font-weight="600" fill="#fff">Kit</text></g></g><g class="token" data-id="corvin" data-stack="" data-cx="368.0" data-cy="464.0" data-r="16.0" data-side="pc" opacity="1"><title>Corvin Asche</title><circle cx="370.0" cy="467.0" r="15.0" fill="#000" fill-opacity=".3"/><circle cx="368.0" cy="464.0" r="15.0" fill="#2f8fdd"/><circle cx="368.0" cy="464.0" r="12.0" fill="hsl(348,38%,26%)"/><use href="#i-wizard-staff" x="358.0" y="454.0" width="20.0" height="20.0" fill="#f4efe6"/><rect x="355.0" y="475.0" width="26.0" height="5" rx="2" fill="#111" fill-opacity=".7"/><rect class="hpbar" data-w="26.0" x="355.0" y="475.0" width="26.0" height="5" rx="2" fill="#3cb371"/><g class="nametag"><rect x="350.9" y="480.5" width="34.2" height="11" rx="3" fill="#0c0a10" fill-opacity=".72"/><text x="368.0" y="489.0" text-anchor="middle" font-size="9" font-weight="600" fill="#fff">Corvin</text></g></g><g class="token" data-id="brakka" data-stack="" data-cx="400.0" data-cy="432.0" data-r="16.0" data-side="pc" opacity="1"><title>Brakka Holloway</title><circle cx="402.0" cy="435.0" r="15.0" fill="#000" fill-opacity=".3"/><circle cx="400.0" cy="432.0" r="15.0" fill="#2f8fdd"/><circle cx="400.0" cy="432.0" r="12.0" fill="hsl(144,38%,26%)"/><use href="#i-crossed-swords" x="390.0" y="422.0" width="20.0" height="20.0" fill="#f4efe6"/><rect x="387.0" y="443.0" width="26.0" height="5" rx="2" fill="#111" fill-opacity=".7"/><rect class="hpbar" data-w="26.0" x="387.0" y="443.0" width="26.0" height="5" rx="2" fill="#3cb371"/><g class="nametag"><rect x="382.9" y="403.5" width="34.2" height="11" rx="3" fill="#0c0a10" fill-opacity=".72"/><text x="400.0" y="412.0" text-anchor="middle" font-size="9" font-weight="600" fill="#fff">Brakka</text></g></g><g class="token" data-id="ottilie" data-stack="" data-cx="432.0" data-cy="240.0" data-r="16.0" data-side="pc" opacity="1"><title>Ottilie Marsh</title><circle cx="434.0" cy="243.0" r="15.0" fill="#000" fill-opacity=".3"/><circle cx="432.0" cy="240.0" r="15.0" fill="#2f8fdd"/><circle cx="432.0" cy="240.0" r="12.0" fill="hsl(330,38%,26%)"/><use href="#i-harp" x="422.0" y="230.0" width="20.0" height="20.0" fill="#f4efe6"/><rect x="419.0" y="251.0" width="26.0" height="5" rx="2" fill="#111" fill-opacity=".7"/><rect class="hpbar" data-w="26.0" x="419.0" y="251.0" width="26.0" height="5" rx="2" fill="#3cb371"/><g class="nametag"><rect x="412.4" y="256.5" width="39.3" height="11" rx="3" fill="#0c0a10" fill-opacity=".72"/><text x="432.0" y="265.0" text-anchor="middle" font-size="9" font-weight="600" fill="#fff">Ottilie</text></g></g><g class="token" data-id="widow-sallow" data-stack="" data-cx="432.0" data-cy="176.0" data-r="16.0" data-side="neutral" opacity="1"><title>Widow Sallow</title><circle cx="434.0" cy="179.0" r="15.0" fill="#000" fill-opacity=".3"/><circle cx="432.0" cy="176.0" r="15.0" fill="#d8b33a"/><circle cx="432.0" cy="176.0" r="12.0" fill="hsl(96,38%,26%)"/><use href="#i-farmer" x="422.0" y="166.0" width="20.0" height="20.0" fill="#f4efe6"/><rect x="419.0" y="187.0" width="26.0" height="5" rx="2" fill="#111" fill-opacity=".7"/><rect class="hpbar" data-w="26.0" x="419.0" y="187.0" width="26.0" height="5" rx="2" fill="#3cb371"/><g class="nametag"><rect x="417.4" y="192.5" width="29.2" height="11" rx="3" fill="#0c0a10" fill-opacity=".72"/><text x="432.0" y="201.0" text-anchor="middle" font-size="9" font-weight="600" fill="#fff">Widow</text></g></g></g></svg>