<svg data-focus="0,0,512,448" xmlns="http://www.w3.org/2000/svg" viewBox="0 0 512 448" width="512" height="448" font-family="Georgia,serif" data-cell="32"><defs><pattern id="wallface" width="32" height="32" patternUnits="userSpaceOnUse"><rect width="32" height="32" fill="#4a423a"/><rect x="0" y="26" width="32" height="6" fill="#3a342e" fill-opacity=".55"/><path d="M0 25.5H32" stroke="#5b6b73" stroke-width="1.2"/></pattern><pattern id="tiles" width="16" height="16" patternUnits="userSpaceOnUse"><rect width="16" height="16" fill="#b9ad95"/><rect x=".6" y=".6" width="6.8" height="6.8" fill="#e6e1d8"/><rect x="8.6" y=".6" width="6.8" height="6.8" fill="#c9c2b5" fill-opacity=".6"/><rect x=".6" y="8.6" width="6.8" height="6.8" fill="#c9c2b5" fill-opacity=".6"/><rect x="8.6" y="8.6" width="6.8" height="6.8" fill="#e6e1d8"/></pattern>
<pattern id="hatch" width="8" height="8" patternUnits="userSpaceOnUse" patternTransform="rotate(45)"><rect width="8" height="8" fill="#3a342e"/><line x1="0" y1="0" x2="0" y2="8" stroke="#2a2521" stroke-width="3"/></pattern>
<pattern id="waves" width="24" height="12" patternUnits="userSpaceOnUse"><path d="M0 6 Q6 0 12 6 T24 6" fill="none" stroke="#ffffff" stroke-opacity=".25" stroke-width="1.5"/></pattern>
<pattern id="planks" width="64" height="8" patternUnits="userSpaceOnUse"><rect width="64" height="8" fill="#b38b5d"/><line x1="0" y1="7.5" x2="64" y2="7.5" stroke="#8a6a43" stroke-width="1"/><line x1="23" y1="0" x2="23" y2="7.5" stroke="#8a6a43" stroke-width=".8"/><line x1="51" y1="0" x2="51" y2="7.5" stroke="#8a6a43" stroke-width=".8"/></pattern>
<pattern id="cobble" width="16" height="16" patternUnits="userSpaceOnUse"><rect width="16" height="16" fill="#a8a39a"/><circle cx="4" cy="4" r="3" fill="#b8b3aa"/><circle cx="12" cy="11" r="3.5" fill="#9b968d"/></pattern>
<pattern id="flag" width="32" height="32" patternUnits="userSpaceOnUse"><rect width="32" height="32" fill="#cfc4ae"/><path d="M0 16H32M16 0V16M8 16V32M24 16V32" stroke="#b9ad95" stroke-width="1"/></pattern>
<pattern id="carpet" width="32" height="32" patternUnits="userSpaceOnUse"><rect width="32" height="32" fill="#7d2430"/><path d="M16 4 L28 16 L16 28 L4 16 Z" fill="none" stroke="#5b6b73" stroke-opacity=".55" stroke-width="1.2"/><circle cx="16" cy="16" r="2" fill="#5b6b73" fill-opacity=".6"/></pattern>
<pattern id="marble" width="64" height="64" patternUnits="userSpaceOnUse"><rect width="64" height="64" fill="#e6e1d8"/><path d="M0 40 C16 30 26 52 44 38 S60 20 64 26" fill="none" stroke="#c9c2b5" stroke-width="1.2"/><path d="M10 0 C14 12 4 20 12 32" fill="none" stroke="#c9c2b5" stroke-width=".8"/><path d="M0 0H64V64" fill="none" stroke="#c9c2b5" stroke-opacity=".6"/></pattern>
<radialGradient id="canopy" cx="40%" cy="35%"><stop offset="0" stop-color="#5f9a3c"/><stop offset="1" stop-color="#2e5a22"/></radialGradient>
<radialGradient id="rock" cx="35%" cy="30%"><stop offset="0" stop-color="#b5aea3"/><stop offset="1" stop-color="#6b645a"/></radialGradient>
<radialGradient id="lampglow"><stop offset="0" stop-color="#ffd98a" stop-opacity=".75"/><stop offset=".45" stop-color="#ffb347" stop-opacity=".25"/><stop offset="1" stop-color="#ffb347" stop-opacity="0"/></radialGradient>
<radialGradient id="felt" cx="45%" cy="40%"><stop offset="0" stop-color="#2f7a4a"/><stop offset="1" stop-color="#174a2c"/></radialGradient>
<filter id="glow"><feGaussianBlur stdDeviation="3" result="b"/><feMerge><feMergeNode in="b"/><feMergeNode in="SourceGraphic"/></feMerge></filter>
</defs><rect x="0" y="0" width="512" height="32" fill="url(#hatch)"/><rect x="0" y="32" width="32" height="32" fill="url(#hatch)"/><rect x="32" y="32" width="256" height="32" fill="url(#planks)"/><rect x="288" y="32" width="32" height="32" fill="url(#hatch)"/><rect x="320" y="32" width="128" height="32" fill="url(#planks)"/><rect x="448" y="32" width="64" height="32" fill="url(#hatch)"/><rect x="0" y="64" width="32" height="32" fill="url(#hatch)"/><rect x="32" y="64" width="256" height="32" fill="url(#planks)"/><rect x="288" y="64" width="32" height="32" fill="url(#hatch)"/><rect x="320" y="64" width="128" height="32" fill="url(#planks)"/><rect x="448" y="64" width="64" height="32" fill="url(#hatch)"/><rect x="0" y="96" width="32" height="32" fill="url(#hatch)"/><rect x="32" y="96" width="256" height="32" fill="url(#planks)"/><rect x="288" y="96" width="32" height="32" fill="url(#hatch)"/><rect x="320" y="96" width="32" height="32" fill="#bdb29b"/><rect x="352" y="96" width="96" height="32" fill="url(#planks)"/><rect x="448" y="96" width="64" height="32" fill="url(#hatch)"/><rect x="0" y="128" width="128" height="32" fill="url(#hatch)"/><rect x="128" y="128" width="32" height="32" fill="url(#planks)"/><rect x="160" y="128" width="160" height="32" fill="url(#hatch)"/><rect x="320" y="128" width="32" height="32" fill="url(#planks)"/><rect x="352" y="128" width="160" height="32" fill="url(#hatch)"/><rect x="0" y="160" width="32" height="32" fill="url(#hatch)"/><rect x="32" y="160" width="224" height="32" fill="url(#planks)"/><rect x="256" y="160" width="32" height="32" fill="#bdb29b"/><rect x="288" y="160" width="128" height="32" fill="url(#planks)"/><rect x="416" y="160" width="32" height="32" fill="url(#flag)"/><rect x="448" y="160" width="64" height="32" fill="url(#hatch)"/><rect x="0" y="192" width="32" height="32" fill="url(#hatch)"/><rect x="32" y="192" width="384" height="32" fill="url(#planks)"/><rect x="416" y="192" width="32" height="32" fill="url(#flag)"/><rect x="448" y="192" width="64" height="32" fill="url(#hatch)"/><rect x="0" y="224" width="96" height="32" fill="url(#hatch)"/><rect x="96" y="224" width="32" height="32" fill="url(#planks)"/><rect x="128" y="224" width="224" height="32" fill="url(#hatch)"/><rect x="352" y="224" width="32" height="32" fill="url(#planks)"/><rect x="384" y="224" width="128" height="32" fill="url(#hatch)"/><rect x="0" y="256" width="32" height="32" fill="url(#hatch)"/><rect x="32" y="256" width="192" height="32" fill="url(#planks)"/><rect x="224" y="256" width="32" height="32" fill="url(#hatch)"/><rect x="256" y="256" width="128" height="32" fill="url(#planks)"/><rect x="384" y="256" width="32" height="32" fill="#bdb29b"/><rect x="416" y="256" width="32" height="32" fill="url(#planks)"/><rect x="448" y="256" width="64" height="32" fill="url(#hatch)"/><rect x="0" y="288" width="32" height="32" fill="url(#hatch)"/><rect x="32" y="288" width="192" height="32" fill="url(#planks)"/><rect x="224" y="288" width="32" height="32" fill="url(#hatch)"/><rect x="256" y="288" width="192" height="32" fill="url(#planks)"/><rect x="448" y="288" width="64" height="32" fill="url(#hatch)"/><rect x="0" y="320" width="512" height="32" fill="url(#hatch)"/><rect x="0" y="352" width="512" height="32" fill="url(#hatch)"/><rect x="0" y="384" width="512" height="32" fill="url(#hatch)"/><rect x="0" y="416" width="512" height="32" fill="url(#hatch)"/><rect x="32" y="0" width="32" height="32" fill="url(#wallface)" stroke="#5b6b73" stroke-width="1.5"/><rect x="32" y="0" width="32" height="32" fill="#000" fill-opacity=".12"/><rect x="64" y="0" width="32" height="32" fill="url(#wallface)" stroke="#5b6b73" stroke-width="1.5"/><rect x="64" y="0" width="32" height="32" fill="#000" fill-opacity=".12"/><rect x="96" y="0" width="32" height="32" fill="url(#wallface)" stroke="#5b6b73" stroke-width="1.5"/><rect x="96" y="0" width="32" height="32" fill="#000" fill-opacity=".12"/><rect x="128" y="0" width="32" height="32" fill="url(#wallface)" stroke="#5b6b73" stroke-width="1.5"/><rect x="128" y="0" width="32" height="32" fill="#000" fill-opacity=".12"/><rect x="160" y="0" width="32" height="32" fill="url(#wallface)" stroke="#5b6b73" stroke-width="1.5"/><rect x="160" y="0" width="32" height="32" fill="#000" fill-opacity=".12"/><rect x="192" y="0" width="32" height="32" fill="url(#wallface)" stroke="#5b6b73" stroke-width="1.5"/><rect x="192" y="0" width="32" height="32" fill="#000" fill-opacity=".12"/><rect x="224" y="0" width="32" height="32" fill="url(#wallface)" stroke="#5b6b73" stroke-width="1.5"/><rect x="224" y="0" width="32" height="32" fill="#000" fill-opacity=".12"/><rect x="256" y="0" width="32" height="32" fill="url(#wallface)" stroke="#5b6b73" stroke-width="1.5"/><rect x="256" y="0" width="32" height="32" fill="#000" fill-opacity=".12"/><rect x="320" y="0" width="32" height="32" fill="url(#wallface)" stroke="#5b6b73" stroke-width="1.5"/><rect x="320" y="0" width="32" height="32" fill="#000" fill-opacity=".12"/><rect x="352" y="0" width="32" height="32" fill="url(#wallface)" stroke="#5b6b73" stroke-width="1.5"/><rect x="352" y="0" width="32" height="32" fill="#000" fill-opacity=".12"/><rect x="384" y="0" width="32" height="32" fill="url(#wallface)" stroke="#5b6b73" stroke-width="1.5"/><rect x="384" y="0" width="32" height="32" fill="#000" fill-opacity=".12"/><rect x="416" y="0" width="32" height="32" fill="url(#wallface)" stroke="#5b6b73" stroke-width="1.5"/><rect x="416" y="0" width="32" height="32" fill="#000" fill-opacity=".12"/><rect x="0" y="32" width="32" height="32" fill="url(#wallface)" stroke="#5b6b73" stroke-width="1.5"/><rect x="0" y="32" width="32" height="32" fill="#000" fill-opacity=".12"/><path d="M64 48.0Q68.0 44.0 72.0 48.0Q76.0 52.0 80.0 48.0Q84.0 44.0 88.0 48.0Q92.0 52.0 96.0 48.0" fill="none" stroke="#7d2430" stroke-width="5" stroke-linecap="round"/><path d="M64 48.0Q68.0 44.0 72.0 48.0Q76.0 52.0 80.0 48.0Q84.0 44.0 88.0 48.0Q92.0 52.0 96.0 48.0" fill="none" stroke="#5b6b73" stroke-opacity=".5" stroke-width="1"/><path d="M96 48.0Q100.0 44.0 104.0 48.0Q108.0 52.0 112.0 48.0Q116.0 44.0 120.0 48.0Q124.0 52.0 128.0 48.0" fill="none" stroke="#7d2430" stroke-width="5" stroke-linecap="round"/><path d="M96 48.0Q100.0 44.0 104.0 48.0Q108.0 52.0 112.0 48.0Q116.0 44.0 120.0 48.0Q124.0 52.0 128.0 48.0" fill="none" stroke="#5b6b73" stroke-opacity=".5" stroke-width="1"/><path d="M128 48.0Q132.0 44.0 136.0 48.0Q140.0 52.0 144.0 48.0Q148.0 44.0 152.0 48.0Q156.0 52.0 160.0 48.0" fill="none" stroke="#7d2430" stroke-width="5" stroke-linecap="round"/><path d="M128 48.0Q132.0 44.0 136.0 48.0Q140.0 52.0 144.0 48.0Q148.0 44.0 152.0 48.0Q156.0 52.0 160.0 48.0" fill="none" stroke="#5b6b73" stroke-opacity=".5" stroke-width="1"/><path d="M160 48.0Q164.0 44.0 168.0 48.0Q172.0 52.0 176.0 48.0Q180.0 44.0 184.0 48.0Q188.0 52.0 192.0 48.0" fill="none" stroke="#7d2430" stroke-width="5" stroke-linecap="round"/><path d="M160 48.0Q164.0 44.0 168.0 48.0Q172.0 52.0 176.0 48.0Q180.0 44.0 184.0 48.0Q188.0 52.0 192.0 48.0" fill="none" stroke="#5b6b73" stroke-opacity=".5" stroke-width="1"/><path d="M192 48.0Q196.0 44.0 200.0 48.0Q204.0 52.0 208.0 48.0Q212.0 44.0 216.0 48.0Q220.0 52.0 224.0 48.0" fill="none" stroke="#7d2430" stroke-width="5" stroke-linecap="round"/><path d="M192 48.0Q196.0 44.0 200.0 48.0Q204.0 52.0 208.0 48.0Q212.0 44.0 216.0 48.0Q220.0 52.0 224.0 48.0" fill="none" stroke="#5b6b73" stroke-opacity=".5" stroke-width="1"/><rect x="288" y="32" width="32" height="32" fill="url(#wallface)" stroke="#5b6b73" stroke-width="1.5"/><rect x="288" y="32" width="32" height="32" fill="#000" fill-opacity=".12"/><rect x="323.5" y="36.0" width="28.0" height="14.7" rx="1" fill="#000" fill-opacity=".22"/><rect x="322.0" y="34.0" width="28.0" height="14.7" fill="#6a4524" stroke="#5b6b73" stroke-width="1.2"/><rect x="327.6" y="35.5" width="3.6" height="10.2" fill="#4a2a5a"/><rect x="331.6" y="35.5" width="2.7" height="9.8" fill="#6e4a1e"/><rect x="334.9" y="35.5" width="2.9" height="7.5" fill="#3d5a2a"/><rect x="338.3" y="35.5" width="3.1" height="7.2" fill="#7d2430"/><rect x="341.9" y="35.5" width="2.9" height="9.9" fill="#3d5a2a"/><rect x="345.3" y="35.5" width="3.8" height="6.7" fill="#9a3a1e"/><rect x="419.5" y="36.0" width="28.0" height="14.7" rx="1" fill="#000" fill-opacity=".22"/><rect x="418.0" y="34.0" width="28.0" height="14.7" fill="#6a4524" stroke="#5b6b73" stroke-width="1.2"/><rect x="419.5" y="35.5" width="2.4" height="9.9" fill="#9a3a1e"/><rect x="422.4" y="35.5" width="4.1" height="10.4" fill="#2a2a2a"/><rect x="427.0" y="35.5" width="3.7" height="6.7" fill="#8a6a2a"/><rect x="431.2" y="35.5" width="2.2" height="9.1" fill="#3d5a2a"/><rect x="433.8" y="35.5" width="2.2" height="10.2" fill="#9a3a1e"/><rect x="436.6" y="35.5" width="2.1" height="7.9" fill="#8a6a2a"/><rect x="439.1" y="35.5" width="2.9" height="7.6" fill="#8a6a2a"/><rect x="448" y="32" width="32" height="32" fill="url(#wallface)" stroke="#5b6b73" stroke-width="1.5"/><rect x="448" y="32" width="32" height="32" fill="#000" fill-opacity=".12"/><rect x="0" y="64" width="32" height="32" fill="url(#wallface)" stroke="#5b6b73" stroke-width="1.5"/><rect x="0" y="64" width="32" height="32" fill="#000" fill-opacity=".12"/><rect x="106.1" y="74.6" width="14.7" height="14.7" rx="2" fill="#000" fill-opacity=".22"/><rect x="104.6" y="72.6" width="14.7" height="14.7" rx="2" fill="#7a5530" stroke="#5b6b73" stroke-width="1"/><rect x="101.6" y="71.6" width="4" height="16.7" rx="1.5" fill="#6a4524" stroke="#5b6b73" stroke-width=".8"/><rect x="131.5" y="70.2" width="30.0" height="23.7" rx="2" fill="#000" fill-opacity=".22"/><rect x="130.0" y="68.2" width="30.0" height="23.7" rx="2" fill="#b38b5d" stroke="#5b6b73" stroke-width="1.2"/><path d="M130.0 76.1H160.0" stroke="#8a6a43" stroke-width=".8"/><path d="M130.0 83.9H160.0" stroke="#8a6a43" stroke-width=".8"/><circle cx="138.2" cy="74.2" r="4" fill="#efe8da" stroke="#9a8e78" stroke-width=".8"/><circle cx="138.2" cy="74.2" r="2" fill="none" stroke="#c9bfa9" stroke-width=".6"/><rect x="161.5" y="70.2" width="30.0" height="23.7" rx="2" fill="#000" fill-opacity=".22"/><rect x="160.0" y="68.2" width="30.0" height="23.7" rx="2" fill="#b38b5d" stroke="#5b6b73" stroke-width="1.2"/><path d="M160.0 76.1H190.0" stroke="#8a6a43" stroke-width=".8"/><path d="M160.0 83.9H190.0" stroke="#8a6a43" stroke-width=".8"/><rect x="170.5" y="78.5" width="7" height="5" fill="#3d5a2a" stroke="#1a130c" stroke-width=".6" transform="rotate(-11 174.0 81.0)"/><circle cx="177.9" cy="84.7" r="2.6" fill="#d9cdb4" stroke="#5a4a36" stroke-width=".8"/><rect x="202.1" y="74.6" width="14.7" height="14.7" rx="2" fill="#000" fill-opacity=".22"/><rect x="200.6" y="72.6" width="14.7" height="14.7" rx="2" fill="#7a5530" stroke="#5b6b73" stroke-width="1"/><rect x="214.4" y="71.6" width="4" height="16.7" rx="1.5" fill="#6a4524" stroke="#5b6b73" stroke-width=".8"/><rect x="288" y="64" width="32" height="32" fill="url(#wallface)" stroke="#5b6b73" stroke-width="1.5"/><rect x="288" y="64" width="32" height="32" fill="#000" fill-opacity=".12"/><rect x="388.5" y="71.0" width="26.0" height="22.0" rx="2" fill="#000" fill-opacity=".22"/><rect x="387" y="69" width="26" height="22" rx="2" fill="#6a4524" stroke="#5b6b73" stroke-width="1.2"/><rect x="391.0" y="73.6" width="10.9" height="12.8" fill="#f2ead8" stroke="#b9ab8e" stroke-width=".6" transform="rotate(-6 396.5 80.0)"/><path d="M392.6 77.4h7.0M392.6 80.0h5.8M392.6 82.6h6.4" stroke="#6b5a44" stroke-width=".6" transform="rotate(-6 396.5 80.0)"/><circle cx="407.0" cy="76.2" r="2.6" fill="#141018" stroke="#8a7a5a" stroke-width=".8"/><path d="M407.0 76.2L411.5 85.1" stroke="#efe6d0" stroke-width="1.6" stroke-linecap="round"/><rect x="448" y="64" width="32" height="32" fill="url(#wallface)" stroke="#5b6b73" stroke-width="1.5"/><rect x="448" y="64" width="32" height="32" fill="#000" fill-opacity=".12"/><rect x="0" y="96" width="32" height="32" fill="url(#wallface)" stroke="#5b6b73" stroke-width="1.5"/><rect x="0" y="96" width="32" height="32" fill="#000" fill-opacity=".12"/><rect x="36.5" y="101.0" width="26.0" height="26.0" rx="2" fill="#000" fill-opacity=".22"/><rect x="35" y="99" width="26" height="26" rx="2" fill="#2e2c2a" stroke="#0e0d0c" stroke-width="1.4"/><circle cx="42.2" cy="108.2" r="4.2" fill="#1a1918" stroke="#6a6662" stroke-width="1"/><circle cx="53.8" cy="108.2" r="4.2" fill="#1a1918" stroke="#6a6662" stroke-width="1"/><rect x="40.0" y="117.1" width="16.0" height="3" rx="1" fill="#f08a24" filter="url(#glow)"/><rect x="288" y="96" width="32" height="32" fill="url(#wallface)" stroke="#5b6b73" stroke-width="1.5"/><rect x="288" y="96" width="32" height="32" fill="#000" fill-opacity=".12"/><circle cx="341.9" cy="109.6" r="4.8" fill="#8e8576"/><circle cx="338.0" cy="105.0" r="4.4" fill="#8e8576"/><circle cx="337.0" cy="117.8" r="2.6" fill="#8e8576"/><circle cx="340.9" cy="109.2" r="4.2" fill="#8e8576"/><rect x="394.1" y="106.6" width="14.7" height="14.7" rx="2" fill="#000" fill-opacity=".22"/><rect x="392.6" y="104.6" width="14.7" height="14.7" rx="2" fill="#7a5530" stroke="#5b6b73" stroke-width="1"/><rect x="391.6" y="118.4" width="16.7" height="4" rx="1.5" fill="#6a4524" stroke="#5b6b73" stroke-width=".8"/><rect x="422.3" y="106.0" width="22.4" height="16.0" rx="2" fill="#000" fill-opacity=".22"/><rect x="420.8" y="104.0" width="22.4" height="16.0" rx="2" fill="#7a4a24" stroke="#3a2010" stroke-width="1.2"/><path d="M420.8 110.1H443.2" stroke="#3a2010" stroke-width="1"/><path d="M425.7 104.0V120.0M438.3 104.0V120.0" stroke="#8f8f8f" stroke-width="2"/><rect x="430.0" y="109.1" width="4" height="5" fill="#e0b448" stroke="#6a4a10" stroke-width=".6"/><rect x="448" y="96" width="32" height="32" fill="url(#wallface)" stroke="#5b6b73" stroke-width="1.5"/><rect x="448" y="96" width="32" height="32" fill="#000" fill-opacity=".12"/><rect x="32" y="128" width="32" height="32" fill="url(#wallface)" stroke="#5b6b73" stroke-width="1.5"/><rect x="32" y="128" width="32" height="32" fill="#000" fill-opacity=".12"/><rect x="64" y="128" width="32" height="32" fill="url(#wallface)" stroke="#5b6b73" stroke-width="1.5"/><rect x="64" y="128" width="32" height="32" fill="#000" fill-opacity=".12"/><rect x="96" y="128" width="32" height="32" fill="url(#wallface)" stroke="#5b6b73" stroke-width="1.5"/><rect x="96" y="128" width="32" height="32" fill="#000" fill-opacity=".12"/><rect x="129" y="137.6" width="30" height="12.8" fill="none" stroke="#7a4a1e" stroke-width="2" stroke-dasharray="3 2"/><rect x="160" y="128" width="32" height="32" fill="url(#wallface)" stroke="#5b6b73" stroke-width="1.5"/><rect x="160" y="128" width="32" height="32" fill="#000" fill-opacity=".12"/><rect x="192" y="128" width="32" height="32" fill="url(#wallface)" stroke="#5b6b73" stroke-width="1.5"/><rect x="192" y="128" width="32" height="32" fill="#000" fill-opacity=".12"/><rect x="224" y="128" width="32" height="32" fill="url(#wallface)" stroke="#5b6b73" stroke-width="1.5"/><rect x="224" y="128" width="32" height="32" fill="#000" fill-opacity=".12"/><rect x="256" y="128" width="32" height="32" fill="url(#wallface)" stroke="#5b6b73" stroke-width="1.5"/><rect x="256" y="128" width="32" height="32" fill="#000" fill-opacity=".12"/><rect x="288" y="128" width="32" height="32" fill="url(#wallface)" stroke="#5b6b73" stroke-width="1.5"/><rect x="288" y="128" width="32" height="32" fill="#000" fill-opacity=".12"/><rect x="321" y="137.6" width="30" height="12.8" fill="none" stroke="#7a4a1e" stroke-width="2" stroke-dasharray="3 2"/><rect x="352" y="128" width="32" height="32" fill="url(#wallface)" stroke="#5b6b73" stroke-width="1.5"/><rect x="352" y="128" width="32" height="32" fill="#000" fill-opacity=".12"/><rect x="384" y="128" width="32" height="32" fill="url(#wallface)" stroke="#5b6b73" stroke-width="1.5"/><rect x="384" y="128" width="32" height="32" fill="#000" fill-opacity=".12"/><rect x="416" y="128" width="32" height="32" fill="url(#wallface)" stroke="#5b6b73" stroke-width="1.5"/><rect x="416" y="128" width="32" height="32" fill="#000" fill-opacity=".12"/><rect x="0" y="160" width="32" height="32" fill="url(#wallface)" stroke="#5b6b73" stroke-width="1.5"/><rect x="0" y="160" width="32" height="32" fill="#000" fill-opacity=".12"/><circle cx="265.8" cy="165.5" r="5.0" fill="#8e8576"/><circle cx="261.9" cy="171.7" r="3.9" fill="#8e8576"/><circle cx="261.4" cy="175.3" r="3.4" fill="#8e8576"/><circle cx="280.9" cy="187.8" r="3.8" fill="#8e8576"/><line x1="388" y1="165" x2="412" y2="165" stroke="#6b6358" stroke-width="3.0"/><line x1="388" y1="172" x2="412" y2="172" stroke="#6b6358" stroke-width="2.5"/><line x1="388" y1="179" x2="412" y2="179" stroke="#6b6358" stroke-width="2.0"/><line x1="388" y1="186" x2="412" y2="186" stroke="#6b6358" stroke-width="1.5"/><text x="410" y="172" font-size="10" fill="#3a342e">▼</text><line x1="420" y1="165" x2="444" y2="165" stroke="#6b6358" stroke-width="3.0"/><line x1="420" y1="172" x2="444" y2="172" stroke="#6b6358" stroke-width="2.5"/><line x1="420" y1="179" x2="444" y2="179" stroke="#6b6358" stroke-width="2.0"/><line x1="420" y1="186" x2="444" y2="186" stroke="#6b6358" stroke-width="1.5"/><text x="442" y="172" font-size="10" fill="#3a342e">▼</text><rect x="448" y="160" width="32" height="32" fill="url(#wallface)" stroke="#5b6b73" stroke-width="1.5"/><rect x="448" y="160" width="32" height="32" fill="#000" fill-opacity=".12"/><rect x="0" y="192" width="32" height="32" fill="url(#wallface)" stroke="#5b6b73" stroke-width="1.5"/><rect x="0" y="192" width="32" height="32" fill="#000" fill-opacity=".12"/><line x1="388" y1="197" x2="412" y2="197" stroke="#6b6358" stroke-width="3.0"/><line x1="388" y1="204" x2="412" y2="204" stroke="#6b6358" stroke-width="2.5"/><line x1="388" y1="211" x2="412" y2="211" stroke="#6b6358" stroke-width="2.0"/><line x1="388" y1="218" x2="412" y2="218" stroke="#6b6358" stroke-width="1.5"/><text x="410" y="204" font-size="10" fill="#3a342e">▼</text><line x1="420" y1="197" x2="444" y2="197" stroke="#6b6358" stroke-width="3.0"/><line x1="420" y1="204" x2="444" y2="204" stroke="#6b6358" stroke-width="2.5"/><line x1="420" y1="211" x2="444" y2="211" stroke="#6b6358" stroke-width="2.0"/><line x1="420" y1="218" x2="444" y2="218" stroke="#6b6358" stroke-width="1.5"/><text x="442" y="204" font-size="10" fill="#3a342e">▼</text><rect x="448" y="192" width="32" height="32" fill="url(#wallface)" stroke="#5b6b73" stroke-width="1.5"/><rect x="448" y="192" width="32" height="32" fill="#000" fill-opacity=".12"/><rect x="32" y="224" width="32" height="32" fill="url(#wallface)" stroke="#5b6b73" stroke-width="1.5"/><rect x="32" y="224" width="32" height="32" fill="#000" fill-opacity=".12"/><rect x="64" y="224" width="32" height="32" fill="url(#wallface)" stroke="#5b6b73" stroke-width="1.5"/><rect x="64" y="224" width="32" height="32" fill="#000" fill-opacity=".12"/><rect x="97" y="233.6" width="30" height="12.8" fill="none" stroke="#7a4a1e" stroke-width="2" stroke-dasharray="3 2"/><rect x="128" y="224" width="32" height="32" fill="url(#wallface)" stroke="#5b6b73" stroke-width="1.5"/><rect x="128" y="224" width="32" height="32" fill="#000" fill-opacity=".12"/><rect x="160" y="224" width="32" height="32" fill="url(#wallface)" stroke="#5b6b73" stroke-width="1.5"/><rect x="160" y="224" width="32" height="32" fill="#000" fill-opacity=".12"/><rect x="192" y="224" width="32" height="32" fill="url(#wallface)" stroke="#5b6b73" stroke-width="1.5"/><rect x="192" y="224" width="32" height="32" fill="#000" fill-opacity=".12"/><rect x="224" y="224" width="32" height="32" fill="url(#wallface)" stroke="#5b6b73" stroke-width="1.5"/><rect x="224" y="224" width="32" height="32" fill="#000" fill-opacity=".12"/><rect x="256" y="224" width="32" height="32" fill="url(#wallface)" stroke="#5b6b73" stroke-width="1.5"/><rect x="256" y="224" width="32" height="32" fill="#000" fill-opacity=".12"/><rect x="288" y="224" width="32" height="32" fill="url(#wallface)" stroke="#5b6b73" stroke-width="1.5"/><rect x="288" y="224" width="32" height="32" fill="#000" fill-opacity=".12"/><rect x="320" y="224" width="32" height="32" fill="url(#wallface)" stroke="#5b6b73" stroke-width="1.5"/><rect x="320" y="224" width="32" height="32" fill="#000" fill-opacity=".12"/><rect x="353" y="233.6" width="30" height="12.8" fill="none" stroke="#7a4a1e" stroke-width="2" stroke-dasharray="3 2"/><rect x="384" y="224" width="32" height="32" fill="url(#wallface)" stroke="#5b6b73" stroke-width="1.5"/><rect x="384" y="224" width="32" height="32" fill="#000" fill-opacity=".12"/><rect x="416" y="224" width="32" height="32" fill="url(#wallface)" stroke="#5b6b73" stroke-width="1.5"/><rect x="416" y="224" width="32" height="32" fill="#000" fill-opacity=".12"/><rect x="0" y="256" width="32" height="32" fill="url(#wallface)" stroke="#5b6b73" stroke-width="1.5"/><rect x="0" y="256" width="32" height="32" fill="#000" fill-opacity=".12"/><rect x="36.5" y="263.0" width="26.0" height="22.0" rx="2" fill="#000" fill-opacity=".22"/><rect x="35" y="261" width="26" height="22" rx="2" fill="#6a4524" stroke="#5b6b73" stroke-width="1.2"/><rect x="39.0" y="265.6" width="10.9" height="12.8" fill="#f2ead8" stroke="#b9ab8e" stroke-width=".6" transform="rotate(-2 44.5 272.0)"/><path d="M40.6 269.4h7.0M40.6 272.0h5.8M40.6 274.6h6.4" stroke="#6b5a44" stroke-width=".6" transform="rotate(-2 44.5 272.0)"/><circle cx="55.0" cy="268.2" r="2.6" fill="#141018" stroke="#8a7a5a" stroke-width=".8"/><path d="M55.0 268.2L59.5 277.1" stroke="#efe6d0" stroke-width="1.6" stroke-linecap="round"/><rect x="132.5" y="263.0" width="26.0" height="22.0" rx="2" fill="#000" fill-opacity=".22"/><rect x="131" y="261" width="26" height="22" rx="2" fill="#6a4524" stroke="#5b6b73" stroke-width="1.2"/><rect x="135.0" y="265.6" width="10.9" height="12.8" fill="#f2ead8" stroke="#b9ab8e" stroke-width=".6" transform="rotate(3 140.5 272.0)"/><path d="M136.6 269.4h7.0M136.6 272.0h5.8M136.6 274.6h6.4" stroke="#6b5a44" stroke-width=".6" transform="rotate(3 140.5 272.0)"/><circle cx="151.0" cy="268.2" r="2.6" fill="#141018" stroke="#8a7a5a" stroke-width=".8"/><path d="M151.0 268.2L155.5 277.1" stroke="#efe6d0" stroke-width="1.6" stroke-linecap="round"/><rect x="163.5" y="260.0" width="28.0" height="14.7" rx="1" fill="#000" fill-opacity=".22"/><rect x="162.0" y="258.0" width="28.0" height="14.7" fill="#6a4524" stroke="#5b6b73" stroke-width="1.2"/><rect x="163.5" y="259.5" width="3.3" height="10.3" fill="#7d2430"/><rect x="167.3" y="259.5" width="3.0" height="6.7" fill="#2c4a6e"/><rect x="170.8" y="259.5" width="4.2" height="10.0" fill="#8a6a2a"/><rect x="175.5" y="259.5" width="2.5" height="10.0" fill="#2a2a2a"/><rect x="178.5" y="259.5" width="3.8" height="9.8" fill="#8a6a2a"/><rect x="182.9" y="259.5" width="3.3" height="8.5" fill="#8a6a2a"/><rect x="186.7" y="259.5" width="2.1" height="7.0" fill="#9a3a1e"/><rect x="224" y="256" width="32" height="32" fill="url(#wallface)" stroke="#5b6b73" stroke-width="1.5"/><rect x="224" y="256" width="32" height="32" fill="#000" fill-opacity=".12"/><circle cx="305.5" cy="274.0" r="11.5" fill="#000" fill-opacity=".22"/><circle cx="304.0" cy="272.0" r="11.5" fill="#8a5a30" stroke="#2e1a0c" stroke-width="2.2"/><circle cx="304.0" cy="272.0" r="8.3" fill="none" stroke="#3a2412" stroke-width="1.2"/><path d="M295.9 272.0H312.1M304.0 263.9V280.1" stroke="#6a4222" stroke-width=".7"/><circle cx="308.0" cy="268.5" r="1.6" fill="#2e1a0c"/><circle cx="337.5" cy="274.0" r="11.5" fill="#000" fill-opacity=".22"/><circle cx="336.0" cy="272.0" r="11.5" fill="#8a5a30" stroke="#2e1a0c" stroke-width="2.2"/><circle cx="336.0" cy="272.0" r="8.3" fill="none" stroke="#3a2412" stroke-width="1.2"/><path d="M327.9 272.0H344.1M336.0 263.9V280.1" stroke="#6a4222" stroke-width=".7"/><circle cx="340.0" cy="268.5" r="1.6" fill="#2e1a0c"/><circle cx="400.7" cy="268.0" r="2.3" fill="#8e8576"/><circle cx="389.4" cy="265.9" r="2.5" fill="#8e8576"/><circle cx="401.5" cy="282.0" r="2.7" fill="#8e8576"/><circle cx="395.0" cy="279.8" r="2.5" fill="#8e8576"/><rect x="448" y="256" width="32" height="32" fill="url(#wallface)" stroke="#5b6b73" stroke-width="1.5"/><rect x="448" y="256" width="32" height="32" fill="#000" fill-opacity=".12"/><rect x="0" y="288" width="32" height="32" fill="url(#wallface)" stroke="#5b6b73" stroke-width="1.5"/><rect x="0" y="288" width="32" height="32" fill="#000" fill-opacity=".12"/><rect x="42.1" y="298.6" width="14.7" height="14.7" rx="2" fill="#000" fill-opacity=".22"/><rect x="40.6" y="296.6" width="14.7" height="14.7" rx="2" fill="#7a5530" stroke="#5b6b73" stroke-width="1"/><rect x="39.6" y="310.4" width="16.7" height="4" rx="1.5" fill="#6a4524" stroke="#5b6b73" stroke-width=".8"/><rect x="138.1" y="298.6" width="14.7" height="14.7" rx="2" fill="#000" fill-opacity=".22"/><rect x="136.6" y="296.6" width="14.7" height="14.7" rx="2" fill="#7a5530" stroke="#5b6b73" stroke-width="1"/><rect x="135.6" y="310.4" width="16.7" height="4" rx="1.5" fill="#6a4524" stroke="#5b6b73" stroke-width=".8"/><rect x="224" y="288" width="32" height="32" fill="url(#wallface)" stroke="#5b6b73" stroke-width="1.5"/><rect x="224" y="288" width="32" height="32" fill="#000" fill-opacity=".12"/><ellipse cx="300.9" cy="307.8" rx="7.0" ry="5.4" fill="#000" fill-opacity=".2" transform="rotate(7 299.9 306.3)"/><ellipse cx="299.9" cy="306.3" rx="7.0" ry="5.4" fill="#cbb58a" stroke="#7a6a48" stroke-width="1" transform="rotate(7 299.9 306.3)"/><circle cx="299.9" cy="303.0" r="1.4" fill="#7a6a48"/><ellipse cx="309.6" cy="306.1" rx="7.0" ry="5.4" fill="#000" fill-opacity=".2" transform="rotate(37 308.6 304.6)"/><ellipse cx="308.6" cy="304.6" rx="7.0" ry="5.4" fill="#cbb58a" stroke="#7a6a48" stroke-width="1" transform="rotate(37 308.6 304.6)"/><circle cx="308.6" cy="301.4" r="1.4" fill="#7a6a48"/><ellipse cx="335.3" cy="311.1" rx="7.0" ry="5.4" fill="#000" fill-opacity=".2" transform="rotate(16 334.3 309.6)"/><ellipse cx="334.3" cy="309.6" rx="7.0" ry="5.4" fill="#cbb58a" stroke="#7a6a48" stroke-width="1" transform="rotate(16 334.3 309.6)"/><circle cx="334.3" cy="306.3" r="1.4" fill="#7a6a48"/><ellipse cx="339.5" cy="305.4" rx="7.0" ry="5.4" fill="#000" fill-opacity=".2" transform="rotate(1 338.5 303.9)"/><ellipse cx="338.5" cy="303.9" rx="7.0" ry="5.4" fill="#cbb58a" stroke="#7a6a48" stroke-width="1" transform="rotate(1 338.5 303.9)"/><circle cx="338.5" cy="300.6" r="1.4" fill="#7a6a48"/><rect x="448" y="288" width="32" height="32" fill="url(#wallface)" stroke="#5b6b73" stroke-width="1.5"/><rect x="448" y="288" width="32" height="32" fill="#000" fill-opacity=".12"/><rect x="32" y="320" width="32" height="32" fill="url(#wallface)" stroke="#5b6b73" stroke-width="1.5"/><rect x="32" y="320" width="32" height="32" fill="#000" fill-opacity=".12"/><rect x="64" y="320" width="32" height="32" fill="url(#wallface)" stroke="#5b6b73" stroke-width="1.5"/><rect x="64" y="320" width="32" height="32" fill="#000" fill-opacity=".12"/><rect x="96" y="320" width="32" height="32" fill="url(#wallface)" stroke="#5b6b73" stroke-width="1.5"/><rect x="96" y="320" width="32" height="32" fill="#000" fill-opacity=".12"/><rect x="128" y="320" width="32" height="32" fill="url(#wallface)" stroke="#5b6b73" stroke-width="1.5"/><rect x="128" y="320" width="32" height="32" fill="#000" fill-opacity=".12"/><rect x="160" y="320" width="32" height="32" fill="url(#wallface)" stroke="#5b6b73" stroke-width="1.5"/><rect x="160" y="320" width="32" height="32" fill="#000" fill-opacity=".12"/><rect x="192" y="320" width="32" height="32" fill="url(#wallface)" stroke="#5b6b73" stroke-width="1.5"/><rect x="192" y="320" width="32" height="32" fill="#000" fill-opacity=".12"/><rect x="256" y="320" width="32" height="32" fill="url(#wallface)" stroke="#5b6b73" stroke-width="1.5"/><rect x="256" y="320" width="32" height="32" fill="#000" fill-opacity=".12"/><rect x="288" y="320" width="32" height="32" fill="url(#wallface)" stroke="#5b6b73" stroke-width="1.5"/><rect x="288" y="320" width="32" height="32" fill="#000" fill-opacity=".12"/><rect x="320" y="320" width="32" height="32" fill="url(#wallface)" stroke="#5b6b73" stroke-width="1.5"/><rect x="320" y="320" width="32" height="32" fill="#000" fill-opacity=".12"/><rect x="352" y="320" width="32" height="32" fill="url(#wallface)" stroke="#5b6b73" stroke-width="1.5"/><rect x="352" y="320" width="32" height="32" fill="#000" fill-opacity=".12"/><rect x="384" y="320" width="32" height="32" fill="url(#wallface)" stroke="#5b6b73" stroke-width="1.5"/><rect x="384" y="320" width="32" height="32" fill="#000" fill-opacity=".12"/><rect x="416" y="320" width="32" height="32" fill="url(#wallface)" stroke="#5b6b73" stroke-width="1.5"/><rect x="416" y="320" width="32" height="32" fill="#000" fill-opacity=".12"/><path d="M0 0V448M32 0V448M64 0V448M96 0V448M128 0V448M160 0V448M192 0V448M224 0V448M256 0V448M288 0V448M320 0V448M352 0V448M384 0V448M416 0V448M448 0V448M480 0V448M512 0V448M0 0H512M0 32H512M0 64H512M0 96H512M0 128H512M0 160H512M0 192H512M0 224H512M0 256H512M0 288H512M0 320H512M0 352H512M0 384H512M0 416H512M0 448H512" stroke="#000" stroke-opacity=".13" stroke-width="1"/><g class="prop"><title>Unlit candle</title><svg x="137.5" y="74.0" width="16.0" height="16.0" viewBox="0 0 512 512" fill="#000" fill-opacity=".25"><path  d="M290.75 14.625c-14.073 0-47.344 43.993-47.344 79.97c0 26.674 11.15 44.41 38.375 46.81c3.648-21.18 3.137-42.01-3-62.874l17.908-5.28c6.65 22.616 7.458 45.273 4.093 67.625c27.623-3.88 37.283-20.537 37.283-46.28c0-35.977-33.655-79.97-47.313-79.97zm-45.188 140.063v11.843l-.187-3.905c.774 26.386-17.415 28.686-17.125 48.156c.227 15.365 12.172 20.084 17.313 12.69v145.75h97.156v-83.5c6.51 7.5 19.83 1.552 20.092-16.22c.31-20.772-16.87-25.295-20.093-48.22v-66.593c-32.392 10.276-65.8 9.795-97.158 0zM113.625 285.344c-19.435.005-37.23 10.322-48.094 26.125c-14.485 21.068-17.477 52.02-.81 81.405c7.814 13.78 4.407 25.93-2.126 32.28c-6.533 6.352-15.494 8.594-27.563-2.53l-12.655 13.72c17.56 16.183 40.3 14.805 53.25 2.217s16.81-34.69 5.344-54.906c-13.474-23.753-10.43-46.47-.032-61.594s27.313-22.524 45.968-15.593c23.738 8.82 34.46 29.795 32.813 48.124c-1.355 15.062-9.978 28.618-30.095 33.437h-25.688c3.313 6.736 7.145 13.262 11.407 19.533l.03 1c.213-.006.415-.025.626-.032c10.88 15.772 24.687 29.972 41.063 42.158H443c23.286-17.327 41.907-38.453 53.75-62.657H164.28c8.205-9.01 13.02-20.162 14.064-31.78c2.414-26.863-13.754-55.694-44.938-67.28c-6.646-2.47-13.303-3.628-19.78-3.626z"/></svg><svg x="136.0" y="72.0" width="16.0" height="16.0" viewBox="0 0 512 512" fill="#5b6b73"><path  d="M290.75 14.625c-14.073 0-47.344 43.993-47.344 79.97c0 26.674 11.15 44.41 38.375 46.81c3.648-21.18 3.137-42.01-3-62.874l17.908-5.28c6.65 22.616 7.458 45.273 4.093 67.625c27.623-3.88 37.283-20.537 37.283-46.28c0-35.977-33.655-79.97-47.313-79.97zm-45.188 140.063v11.843l-.187-3.905c.774 26.386-17.415 28.686-17.125 48.156c.227 15.365 12.172 20.084 17.313 12.69v145.75h97.156v-83.5c6.51 7.5 19.83 1.552 20.092-16.22c.31-20.772-16.87-25.295-20.093-48.22v-66.593c-32.392 10.276-65.8 9.795-97.158 0zM113.625 285.344c-19.435.005-37.23 10.322-48.094 26.125c-14.485 21.068-17.477 52.02-.81 81.405c7.814 13.78 4.407 25.93-2.126 32.28c-6.533 6.352-15.494 8.594-27.563-2.53l-12.655 13.72c17.56 16.183 40.3 14.805 53.25 2.217s16.81-34.69 5.344-54.906c-13.474-23.753-10.43-46.47-.032-61.594s27.313-22.524 45.968-15.593c23.738 8.82 34.46 29.795 32.813 48.124c-1.355 15.062-9.978 28.618-30.095 33.437h-25.688c3.313 6.736 7.145 13.262 11.407 19.533l.03 1c.213-.006.415-.025.626-.032c10.88 15.772 24.687 29.972 41.063 42.158H443c23.286-17.327 41.907-38.453 53.75-62.657H164.28c8.205-9.01 13.02-20.162 14.064-31.78c2.414-26.863-13.754-55.694-44.938-67.28c-6.646-2.47-13.303-3.628-19.78-3.626z"/></svg></g><g class="prop"><title>Unlit candle</title><svg x="169.5" y="74.0" width="16.0" height="16.0" viewBox="0 0 512 512" fill="#000" fill-opacity=".25"><path  d="M290.75 14.625c-14.073 0-47.344 43.993-47.344 79.97c0 26.674 11.15 44.41 38.375 46.81c3.648-21.18 3.137-42.01-3-62.874l17.908-5.28c6.65 22.616 7.458 45.273 4.093 67.625c27.623-3.88 37.283-20.537 37.283-46.28c0-35.977-33.655-79.97-47.313-79.97zm-45.188 140.063v11.843l-.187-3.905c.774 26.386-17.415 28.686-17.125 48.156c.227 15.365 12.172 20.084 17.313 12.69v145.75h97.156v-83.5c6.51 7.5 19.83 1.552 20.092-16.22c.31-20.772-16.87-25.295-20.093-48.22v-66.593c-32.392 10.276-65.8 9.795-97.158 0zM113.625 285.344c-19.435.005-37.23 10.322-48.094 26.125c-14.485 21.068-17.477 52.02-.81 81.405c7.814 13.78 4.407 25.93-2.126 32.28c-6.533 6.352-15.494 8.594-27.563-2.53l-12.655 13.72c17.56 16.183 40.3 14.805 53.25 2.217s16.81-34.69 5.344-54.906c-13.474-23.753-10.43-46.47-.032-61.594s27.313-22.524 45.968-15.593c23.738 8.82 34.46 29.795 32.813 48.124c-1.355 15.062-9.978 28.618-30.095 33.437h-25.688c3.313 6.736 7.145 13.262 11.407 19.533l.03 1c.213-.006.415-.025.626-.032c10.88 15.772 24.687 29.972 41.063 42.158H443c23.286-17.327 41.907-38.453 53.75-62.657H164.28c8.205-9.01 13.02-20.162 14.064-31.78c2.414-26.863-13.754-55.694-44.938-67.28c-6.646-2.47-13.303-3.628-19.78-3.626z"/></svg><svg x="168.0" y="72.0" width="16.0" height="16.0" viewBox="0 0 512 512" fill="#5b6b73"><path  d="M290.75 14.625c-14.073 0-47.344 43.993-47.344 79.97c0 26.674 11.15 44.41 38.375 46.81c3.648-21.18 3.137-42.01-3-62.874l17.908-5.28c6.65 22.616 7.458 45.273 4.093 67.625c27.623-3.88 37.283-20.537 37.283-46.28c0-35.977-33.655-79.97-47.313-79.97zm-45.188 140.063v11.843l-.187-3.905c.774 26.386-17.415 28.686-17.125 48.156c.227 15.365 12.172 20.084 17.313 12.69v145.75h97.156v-83.5c6.51 7.5 19.83 1.552 20.092-16.22c.31-20.772-16.87-25.295-20.093-48.22v-66.593c-32.392 10.276-65.8 9.795-97.158 0zM113.625 285.344c-19.435.005-37.23 10.322-48.094 26.125c-14.485 21.068-17.477 52.02-.81 81.405c7.814 13.78 4.407 25.93-2.126 32.28c-6.533 6.352-15.494 8.594-27.563-2.53l-12.655 13.72c17.56 16.183 40.3 14.805 53.25 2.217s16.81-34.69 5.344-54.906c-13.474-23.753-10.43-46.47-.032-61.594s27.313-22.524 45.968-15.593c23.738 8.82 34.46 29.795 32.813 48.124c-1.355 15.062-9.978 28.618-30.095 33.437h-25.688c3.313 6.736 7.145 13.262 11.407 19.533l.03 1c.213-.006.415-.025.626-.032c10.88 15.772 24.687 29.972 41.063 42.158H443c23.286-17.327 41.907-38.453 53.75-62.657H164.28c8.205-9.01 13.02-20.162 14.064-31.78c2.414-26.863-13.754-55.694-44.938-67.28c-6.646-2.47-13.303-3.628-19.78-3.626z"/></svg></g><g class="prop"><title>Gull feathers and droppings under the roof hole</title><svg x="265.5" y="170.0" width="16.0" height="16.0" viewBox="0 0 512 512" fill="#000" fill-opacity=".25"><path  d="M377 67.5c-29.1.42-59.1 23.22-68.2 91.7c-1.7 12.6-8.4 24.8-18.2 36.5c7.1-3 14.1-4.8 21-4.8c5 0 9.8.9 14.5 2.9c19.1 8.4 30.9 19.7 36.4 32.5s4.3 26.1.7 37.6c-3.6 11.4-9.6 21.4-15.1 28.9c-5.4 7.6-9.6 12.1-12.2 14.4c-33.6 30.6-94.9 37.4-148.2 38.7c-43.3 1.7-86.3-3-129.12-8.2c0 0-31.13 10-41.99 14.5c51.99 15.9 96.11 11 139.61 4.3c52 17.3 165.8 31.6 241.1-37.2c37.6-30.9 36.2-86.1 17.5-152.2l25.9-53C438 91.95 408 67.04 377 67.5m24.9 33c4.4 0 8 3.6 8 8s-3.6 8-8 8s-8-3.6-8-8s3.6-8 8-8m57.6 14.6L442.7 145c6.2-.1 12.3-.4 16.9-1.1c13.7-3 22-8.5 35.8-8.3c-6.7-11.4-19.1-17.8-35.9-20.5m-148.6 93.6c-4.5.2-9.8 1.7-16.5 5c-11.2 5.4-25.3 15.4-42.9 28.3c-30.5 22.4-71.6 53.3-129.6 84.3c17.4 1.1 40.4 2.1 65.4 1.6c51.8-1.2 110.5-10.4 136.5-34.1h.1c-.1.1 4.9-5 9.6-11.5s9.8-15.1 12.5-23.8c2.8-8.8 3.3-17.3 0-25.1c-3.4-7.9-10.8-16-27.1-23c-1.6-.8-3.3-1.2-5-1.5c-1-.1-2-.2-3-.2m-2 173q-9.15 2.25-18 3.6v38.1c-5.8-.1-11.8 0-18 .5v-36.8c-6.1.4-12.1.5-18 .4V426c-4.3.7-8.6 1.5-13 2.5v16h104c-8-10.1-21-16.4-37-19.2z"/></svg><svg x="264.0" y="168.0" width="16.0" height="16.0" viewBox="0 0 512 512" fill="#d8d8d0"><path  d="M377 67.5c-29.1.42-59.1 23.22-68.2 91.7c-1.7 12.6-8.4 24.8-18.2 36.5c7.1-3 14.1-4.8 21-4.8c5 0 9.8.9 14.5 2.9c19.1 8.4 30.9 19.7 36.4 32.5s4.3 26.1.7 37.6c-3.6 11.4-9.6 21.4-15.1 28.9c-5.4 7.6-9.6 12.1-12.2 14.4c-33.6 30.6-94.9 37.4-148.2 38.7c-43.3 1.7-86.3-3-129.12-8.2c0 0-31.13 10-41.99 14.5c51.99 15.9 96.11 11 139.61 4.3c52 17.3 165.8 31.6 241.1-37.2c37.6-30.9 36.2-86.1 17.5-152.2l25.9-53C438 91.95 408 67.04 377 67.5m24.9 33c4.4 0 8 3.6 8 8s-3.6 8-8 8s-8-3.6-8-8s3.6-8 8-8m57.6 14.6L442.7 145c6.2-.1 12.3-.4 16.9-1.1c13.7-3 22-8.5 35.8-8.3c-6.7-11.4-19.1-17.8-35.9-20.5m-148.6 93.6c-4.5.2-9.8 1.7-16.5 5c-11.2 5.4-25.3 15.4-42.9 28.3c-30.5 22.4-71.6 53.3-129.6 84.3c17.4 1.1 40.4 2.1 65.4 1.6c51.8-1.2 110.5-10.4 136.5-34.1h.1c-.1.1 4.9-5 9.6-11.5s9.8-15.1 12.5-23.8c2.8-8.8 3.3-17.3 0-25.1c-3.4-7.9-10.8-16-27.1-23c-1.6-.8-3.3-1.2-5-1.5c-1-.1-2-.2-3-.2m-2 173q-9.15 2.25-18 3.6v38.1c-5.8-.1-11.8 0-18 .5v-36.8c-6.1.4-12.1.5-18 .4V426c-4.3.7-8.6 1.5-13 2.5v16h104c-8-10.1-21-16.4-37-19.2z"/></svg></g><g class="prop"><title>Shuttered lantern</title><svg x="233.5" y="106.0" width="16.0" height="16.0" viewBox="0 0 512 512" fill="#000" fill-opacity=".25"><path  d="M256.53 19.094c-28.53 0-51.842 23.313-51.842 51.843c0 13.565 5.28 25.95 13.875 35.22l-110.532 78.53h296.814l-110.594-78.25c8.755-9.297 14.156-21.8 14.156-35.5c0-28.53-23.344-51.843-51.875-51.843zm0 18.687c18.432 0 33.19 14.727 33.19 33.157c0 9.792-4.177 18.538-10.845 24.594l-22.72-16.06l-22.25 15.81c-6.497-6.044-10.53-14.687-10.53-24.343c0-18.43 14.726-33.156 33.156-33.156zM96.44 204l3.343 11.875l65.376 232.75l1.906 6.813h178.876l1.937-6.813l65.375-232.75L416.594 204H96.437zm24.656 18.688h270.812L331.78 436.75H181.25l-60.156-214.063zm146.187 16.687c29.012 47.73-76.807 70.517-60.155 133.75c11.2 25 29.146 41.394 50.22 42.03c48.84 0 73.57-53.528 60.75-99.842c-4.847 24.07-24.934 34.845-34.876 22.375c-24.115-30.248 36.436-56.768-15.94-98.313zM127.25 473.72v18.686h258.594V473.72z"/></svg><svg x="232.0" y="104.0" width="16.0" height="16.0" viewBox="0 0 512 512" fill="#5b6b73"><path  d="M256.53 19.094c-28.53 0-51.842 23.313-51.842 51.843c0 13.565 5.28 25.95 13.875 35.22l-110.532 78.53h296.814l-110.594-78.25c8.755-9.297 14.156-21.8 14.156-35.5c0-28.53-23.344-51.843-51.875-51.843zm0 18.687c18.432 0 33.19 14.727 33.19 33.157c0 9.792-4.177 18.538-10.845 24.594l-22.72-16.06l-22.25 15.81c-6.497-6.044-10.53-14.687-10.53-24.343c0-18.43 14.726-33.156 33.156-33.156zM96.44 204l3.343 11.875l65.376 232.75l1.906 6.813h178.876l1.937-6.813l65.375-232.75L416.594 204H96.437zm24.656 18.688h270.812L331.78 436.75H181.25l-60.156-214.063zm146.187 16.687c29.012 47.73-76.807 70.517-60.155 133.75c11.2 25 29.146 41.394 50.22 42.03c48.84 0 73.57-53.528 60.75-99.842c-4.847 24.07-24.934 34.845-34.876 22.375c-24.115-30.248 36.436-56.768-15.94-98.313zM127.25 473.72v18.686h258.594V473.72z"/></svg></g><g class="poi" data-poi="poi-1" style="cursor:pointer"><title>Head of the stair</title><circle cx="425" cy="169" r="7.5" fill="#6fb0ff" stroke="#10243d" stroke-width="2"/><text x="425" y="172.6" text-anchor="middle" font-family="Georgia,serif" font-weight="bold" font-size="10.5" fill="#10243d">i</text></g><g class="poi" data-poi="poi-2" style="cursor:pointer"><title>The swept track on the landing</title><circle cx="201" cy="201" r="7.5" fill="#6fb0ff" stroke="#10243d" stroke-width="2"/><text x="201" y="204.6" text-anchor="middle" font-family="Georgia,serif" font-weight="bold" font-size="10.5" fill="#10243d">i</text></g><g class="poi" data-poi="poi-3" style="cursor:pointer"><title>Hole in the roof</title><circle cx="265" cy="169" r="7.5" fill="#6fb0ff" stroke="#10243d" stroke-width="2"/><text x="265" y="172.6" text-anchor="middle" font-family="Georgia,serif" font-weight="bold" font-size="10.5" fill="#10243d">i</text></g><g class="poi" data-poi="poi-4" style="cursor:pointer"><title>The north room door</title><circle cx="137" cy="137" r="7.5" fill="#6fb0ff" stroke="#10243d" stroke-width="2"/><text x="137" y="140.6" text-anchor="middle" font-family="Georgia,serif" font-weight="bold" font-size="10.5" fill="#10243d">i</text></g><g class="poi" data-poi="poi-6" style="cursor:pointer"><title>Clerks&#x27; room door</title><circle cx="105" cy="233" r="7.5" fill="#6fb0ff" stroke="#10243d" stroke-width="2"/><text x="105" y="236.6" text-anchor="middle" font-family="Georgia,serif" font-weight="bold" font-size="10.5" fill="#10243d">i</text></g><g class="poi" data-poi="poi-7" style="cursor:pointer"><title>Store-room door</title><circle cx="361" cy="233" r="7.5" fill="#6fb0ff" stroke="#10243d" stroke-width="2"/><text x="361" y="236.6" text-anchor="middle" font-family="Georgia,serif" font-weight="bold" font-size="10.5" fill="#10243d">i</text></g><g class="poi" data-poi="poi-9" style="cursor:pointer"><title>Chair facing the window</title><circle cx="105" cy="73" r="7.5" fill="#6fb0ff" stroke="#10243d" stroke-width="2"/><text x="105" y="76.6" text-anchor="middle" font-family="Georgia,serif" font-weight="bold" font-size="10.5" fill="#10243d">i</text></g><g class="poi" data-poi="poi-10" style="cursor:pointer"><title>Chair with its back to the window</title><circle cx="201" cy="73" r="7.5" fill="#6fb0ff" stroke="#10243d" stroke-width="2"/><text x="201" y="76.6" text-anchor="middle" font-family="Georgia,serif" font-weight="bold" font-size="10.5" fill="#10243d">i</text></g><g class="poi" data-poi="poi-11" style="cursor:pointer"><title>Black cloth over the window</title><circle cx="137" cy="41" r="7.5" fill="#6fb0ff" stroke="#10243d" stroke-width="2"/><text x="137" y="44.6" text-anchor="middle" font-family="Georgia,serif" font-weight="bold" font-size="10.5" fill="#10243d">i</text></g><g class="poi" data-poi="poi-12" style="cursor:pointer"><title>Cold hearth</title><circle cx="41" cy="105" r="7.5" fill="#6fb0ff" stroke="#10243d" stroke-width="2"/><text x="41" y="108.6" text-anchor="middle" font-family="Georgia,serif" font-weight="bold" font-size="10.5" fill="#10243d">i</text></g><g class="poi" data-poi="poi-13" style="cursor:pointer"><title>Ledger shelves</title><circle cx="329" cy="41" r="7.5" fill="#6fb0ff" stroke="#10243d" stroke-width="2"/><text x="329" y="44.6" text-anchor="middle" font-family="Georgia,serif" font-weight="bold" font-size="10.5" fill="#10243d">i</text></g><g class="poi" data-poi="poi-14" style="cursor:pointer"><title>The Collector&#x27;s desk</title><circle cx="393" cy="73" r="7.5" fill="#6fb0ff" stroke="#10243d" stroke-width="2"/><text x="393" y="76.6" text-anchor="middle" font-family="Georgia,serif" font-weight="bold" font-size="10.5" fill="#10243d">i</text></g><g class="poi" data-poi="poi-15" style="cursor:pointer"><title>Collector&#x27;s chair</title><circle cx="393" cy="105" r="7.5" fill="#6fb0ff" stroke="#10243d" stroke-width="2"/><text x="393" y="108.6" text-anchor="middle" font-family="Georgia,serif" font-weight="bold" font-size="10.5" fill="#10243d">i</text></g><g class="poi" data-poi="poi-16" style="cursor:pointer"><title>Fallen slate</title><circle cx="329" cy="105" r="7.5" fill="#6fb0ff" stroke="#10243d" stroke-width="2"/><text x="329" y="108.6" text-anchor="middle" font-family="Georgia,serif" font-weight="bold" font-size="10.5" fill="#10243d">i</text></g><g class="poi" data-poi="poi-17" style="cursor:pointer"><title>Iron-bound chest</title><circle cx="425" cy="105" r="7.5" fill="#6fb0ff" stroke="#10243d" stroke-width="2"/><text x="425" y="108.6" text-anchor="middle" font-family="Georgia,serif" font-weight="bold" font-size="10.5" fill="#10243d">i</text></g><g class="poi" data-poi="poi-18" style="cursor:pointer"><title>Collector&#x27;s office door</title><circle cx="329" cy="137" r="7.5" fill="#6fb0ff" stroke="#10243d" stroke-width="2"/><text x="329" y="140.6" text-anchor="middle" font-family="Georgia,serif" font-weight="bold" font-size="10.5" fill="#10243d">i</text></g><g class="poi" data-poi="poi-19" style="cursor:pointer"><title>Clerks&#x27; sloped desks</title><circle cx="41" cy="265" r="7.5" fill="#6fb0ff" stroke="#10243d" stroke-width="2"/><text x="41" y="268.6" text-anchor="middle" font-family="Georgia,serif" font-weight="bold" font-size="10.5" fill="#10243d">i</text></g><g class="poi" data-poi="poi-20" style="cursor:pointer"><title>Pigeonhole shelf</title><circle cx="169" cy="265" r="7.5" fill="#6fb0ff" stroke="#10243d" stroke-width="2"/><text x="169" y="268.6" text-anchor="middle" font-family="Georgia,serif" font-weight="bold" font-size="10.5" fill="#10243d">i</text></g><g class="poi" data-poi="poi-21" style="cursor:pointer"><title>Clerks&#x27; stools</title><circle cx="137" cy="297" r="7.5" fill="#6fb0ff" stroke="#10243d" stroke-width="2"/><text x="137" y="300.6" text-anchor="middle" font-family="Georgia,serif" font-weight="bold" font-size="10.5" fill="#10243d">i</text></g><g class="poi" data-poi="poi-22" style="cursor:pointer"><title>Staved casks</title><circle cx="297" cy="265" r="7.5" fill="#6fb0ff" stroke="#10243d" stroke-width="2"/><text x="297" y="268.6" text-anchor="middle" font-family="Georgia,serif" font-weight="bold" font-size="10.5" fill="#10243d">i</text></g><g class="poi" data-poi="poi-23" style="cursor:pointer"><title>Rotten sacks</title><circle cx="297" cy="297" r="7.5" fill="#6fb0ff" stroke="#10243d" stroke-width="2"/><text x="297" y="300.6" text-anchor="middle" font-family="Georgia,serif" font-weight="bold" font-size="10.5" fill="#10243d">i</text></g><g class="poi" data-poi="poi-24" style="cursor:pointer"><title>Slate and gull mess</title><circle cx="393" cy="265" r="7.5" fill="#6fb0ff" stroke="#10243d" stroke-width="2"/><text x="393" y="268.6" text-anchor="middle" font-family="Georgia,serif" font-weight="bold" font-size="10.5" fill="#10243d">i</text></g><g class="poi" data-poi="poi-25" style="cursor:pointer"><title>Coil of tarred rope</title><circle cx="425" cy="297" r="7.5" fill="#6fb0ff" stroke="#10243d" stroke-width="2"/><text x="425" y="300.6" text-anchor="middle" font-family="Georgia,serif" font-weight="bold" font-size="10.5" fill="#10243d">i</text></g><g class="poi" data-poi="poi-26" style="cursor:pointer"><title>The meeting table (candles lit)</title><circle cx="137" cy="73" r="7.5" fill="#6fb0ff" stroke="#10243d" stroke-width="2"/><text x="137" y="76.6" text-anchor="middle" font-family="Georgia,serif" font-weight="bold" font-size="10.5" fill="#10243d">i</text></g><defs></defs><g id='tokens'></g><g id="fog" fill="#0b0a0f" shape-rendering="crispEdges"></g></svg>