<svg xmlns="http://www.w3.org/2000/svg" viewBox="0 0 320 400" width="320" height="400">
<defs>
 <linearGradient id="bg" x1="0" y1="0" x2="0" y2="1"><stop offset="0" stop-color="hsl(37,45%,30%)"/><stop offset="1" stop-color="hsl(37,50%,10%)"/></linearGradient>
 <linearGradient id="sh" x1="0" y1="0" x2="1" y2="1"><stop offset="0" stop-color="hsl(177,55%,55%)"/><stop offset="1" stop-color="hsl(177,60%,28%)"/></linearGradient>
 <pattern id="dots" width="16" height="16" patternUnits="userSpaceOnUse"><circle cx="8" cy="8" r="1.2" fill="#fff" fill-opacity=".07"/></pattern>
</defs>
<rect width="320" height="400" rx="18" fill="url(#bg)"/><rect width="320" height="400" rx="18" fill="url(#dots)"/>
<rect x="8" y="8" width="304" height="384" rx="14" fill="none" stroke="#d8c08a" stroke-width="3"/>
<rect x="14" y="14" width="292" height="372" rx="10" fill="none" stroke="#d8c08a" stroke-opacity=".4"/>
<path d="M160 40 L262 70 L262 170 C262 240 214 282 160 306 C106 282 58 240 58 170 L58 70 Z" fill="url(#sh)" stroke="#f1dfae" stroke-width="5"/>
<g transform="translate(92 84) scale(0.265625)" fill="#fbf6ea"><path fill="#fbf6ea" d="M19.75 14.438c59.538 112.29 142.51 202.35 232.28 292.718l3.626 3.75l.063-.062c21.827 21.93 44.04 43.923 66.405 66.25c-18.856 14.813-38.974 28.2-59.938 40.312l28.532 28.53l68.717-68.717c42.337 27.636 76.286 63.646 104.094 105.81l28.064-28.06c-42.47-27.493-79.74-60.206-106.03-103.876l68.936-68.938l-28.53-28.53c-11.115 21.853-24.413 42.015-39.47 60.593c-43.852-43.8-86.462-85.842-130.125-125.47c-.224-.203-.432-.422-.656-.625C183.624 122.75 108.515 63.91 19.75 14.437zm471.875 0c-83.038 46.28-154.122 100.78-221.97 161.156l22.814 21.562l56.81-56.812l13.22 13.187l-56.438 56.44l24.594 23.186c61.802-66.92 117.6-136.92 160.97-218.72zm-329.53 125.906l200.56 200.53a403 403 0 0 1-13.405 13.032L148.875 153.53zm-76.69 113.28l-28.5 28.532l68.907 68.906c-26.29 43.673-63.53 76.414-106 103.907l28.063 28.06c27.807-42.164 61.758-78.174 104.094-105.81l68.718 68.717l28.53-28.53c-20.962-12.113-41.08-25.5-59.937-40.313c17.865-17.83 35.61-35.433 53.157-52.97l-24.843-25.655l-55.47 55.467c-4.565-4.238-9.014-8.62-13.374-13.062l55.844-55.844l-24.53-25.374c-18.28 17.856-36.602 36.06-55.158 54.594c-15.068-18.587-28.38-38.758-39.5-60.625z"/></g>
<rect x="30" y="318" width="260" height="46" rx="8" fill="#1a140e" fill-opacity=".75" stroke="#d8c08a"/>
<text x="160" y="347" text-anchor="middle" font-family="Georgia,serif" font-size="22" fill="#f6e7c1">Hedda Vask</text>
<text x="160" y="384" text-anchor="middle" font-family="Georgia,serif" font-size="13" fill="#d8c08a">Dwarf Fighter 3</text>
</svg>