<svg xmlns="http://www.w3.org/2000/svg" viewBox="0 0 320 400" width="320" height="400">
<defs>
 <linearGradient id="bg" x1="0" y1="0" x2="0" y2="1"><stop offset="0" stop-color="hsl(132,45%,30%)"/><stop offset="1" stop-color="hsl(132,50%,10%)"/></linearGradient>
 <linearGradient id="sh" x1="0" y1="0" x2="1" y2="1"><stop offset="0" stop-color="hsl(272,55%,55%)"/><stop offset="1" stop-color="hsl(272,60%,28%)"/></linearGradient>
 <pattern id="dots" width="16" height="16" patternUnits="userSpaceOnUse"><circle cx="8" cy="8" r="1.2" fill="#fff" fill-opacity=".07"/></pattern>
</defs>
<rect width="320" height="400" rx="18" fill="url(#bg)"/><rect width="320" height="400" rx="18" fill="url(#dots)"/>
<rect x="8" y="8" width="304" height="384" rx="14" fill="none" stroke="#d8c08a" stroke-width="3"/>
<rect x="14" y="14" width="292" height="372" rx="10" fill="none" stroke="#d8c08a" stroke-opacity=".4"/>
<path d="M160 40 L262 70 L262 170 C262 240 214 282 160 306 C106 282 58 240 58 170 L58 70 Z" fill="url(#sh)" stroke="#f1dfae" stroke-width="5"/>
<g transform="translate(92 84) scale(0.265625)" fill="#fbf6ea"><path fill="#fbf6ea" d="M332.031 66.13c-28.807-.01-55.439 14.149-67.88 40.65c20.79 1.744 16 55.07 16 55.07c-11.814 16.687-24.73 33.186-36.589 50.146c0 0-99.046 132.283-178.378 168.025c-28.049 22.593-33.305 36.532-44.137 52.649c-4.877 9.54 9.257 14.324 11.701 13.2c22.726-10.461 25.176-20.866 47.07-35.675c12.805-5.026 23.839-15.9 31.854-11.049c34.962 20.86 107.556 44.28 118.271 38.706c17.857-9.263-5.78-43.585 16.174-89.057c31.97-3.352 58.916-.885 88.332-12.094c3.483 50.279 10.106 54.59 6.766 107.092l71.2 1.045l.698-14.61l-41.814-11.105c11.528-56.054 11.816-78.996 4.672-127.996c-.956-6.622-53.746-8.275-81.012-3.79c24.449-24.202 40.274-45.24 47.506-68.44l.027.189c7.637 15.923 30.083 33.958 35.336 37.125c27.704 11.048 38.214 7.982 62.955 3.887c4.907-.784 27.47 24.537 44.807 9.597c2.642-20.238 16.522-20.369-4.938-32.71c-4.847-2.73-27.063 7.462-31.418 6.898c-20.21-2.481-30.954-5.211-58.45-12.703c-10.23-13.187-32.676-56.136-55.43-59.744c6.535-14.15 28.226-53.108 73.664-66.237c-20.943-26.54-49.925-39.057-76.987-39.068zm82.405 46.722c-46.658 19.516-58.266 50.4-58.266 50.4l9.916 7.644s9.646-4.765 48.35-58.044m23.04 160.005l-4.658 11.418c5.233-.083 10.425.47 15.328 1.608c-12.774 30.856-23.938 59.635-28.181 93.094l-.908 7.558l4.863-5.889c20.805-25.671 32.303-55.25 44.95-85.78c4.203 2.656 8.24 5.885 12.071 9.35l4.78-11.374l-20.518-8.526l-31.767 66.579l24.062-69.713z"/></g>
<rect x="30" y="318" width="260" height="46" rx="8" fill="#1a140e" fill-opacity=".75" stroke="#d8c08a"/>
<text x="160" y="347" text-anchor="middle" font-family="Georgia,serif" font-size="22" fill="#f6e7c1">Kit Corvell</text>
<text x="160" y="384" text-anchor="middle" font-family="Georgia,serif" font-size="13" fill="#d8c08a">Human Rogue 3</text>
</svg>