<svg data-focus="0,0,832,576" xmlns="http://www.w3.org/2000/svg" viewBox="0 0 832 576" width="832" height="576" font-family="Georgia,serif" data-cell="32"><defs><pattern id="tiles" width="16" height="16" patternUnits="userSpaceOnUse"><rect width="16" height="16" fill="#b9ad95"/><rect x=".6" y=".6" width="6.8" height="6.8" fill="#e6e1d8"/><rect x="8.6" y=".6" width="6.8" height="6.8" fill="#c9c2b5" fill-opacity=".6"/><rect x=".6" y="8.6" width="6.8" height="6.8" fill="#c9c2b5" fill-opacity=".6"/><rect x="8.6" y="8.6" width="6.8" height="6.8" fill="#e6e1d8"/></pattern>
<pattern id="hatch" width="8" height="8" patternUnits="userSpaceOnUse" patternTransform="rotate(45)"><rect width="8" height="8" fill="#3a342e"/><line x1="0" y1="0" x2="0" y2="8" stroke="#2a2521" stroke-width="3"/></pattern>
<pattern id="waves" width="24" height="12" patternUnits="userSpaceOnUse"><path d="M0 6 Q6 0 12 6 T24 6" fill="none" stroke="#ffffff" stroke-opacity=".25" stroke-width="1.5"/></pattern>
<pattern id="planks" width="64" height="8" patternUnits="userSpaceOnUse"><rect width="64" height="8" fill="#b38b5d"/><line x1="0" y1="7.5" x2="64" y2="7.5" stroke="#8a6a43" stroke-width="1"/><line x1="23" y1="0" x2="23" y2="7.5" stroke="#8a6a43" stroke-width=".8"/><line x1="51" y1="0" x2="51" y2="7.5" stroke="#8a6a43" stroke-width=".8"/></pattern>
<pattern id="cobble" width="16" height="16" patternUnits="userSpaceOnUse"><rect width="16" height="16" fill="#a8a39a"/><circle cx="4" cy="4" r="3" fill="#b8b3aa"/><circle cx="12" cy="11" r="3.5" fill="#9b968d"/></pattern>
<pattern id="flag" width="32" height="32" patternUnits="userSpaceOnUse"><rect width="32" height="32" fill="#cfc4ae"/><path d="M0 16H32M16 0V16M8 16V32M24 16V32" stroke="#b9ad95" stroke-width="1"/></pattern>
<pattern id="carpet" width="32" height="32" patternUnits="userSpaceOnUse"><rect width="32" height="32" fill="#7d2430"/><path d="M16 4 L28 16 L16 28 L4 16 Z" fill="none" stroke="#c9a14a" stroke-opacity=".55" stroke-width="1.2"/><circle cx="16" cy="16" r="2" fill="#c9a14a" fill-opacity=".6"/></pattern>
<pattern id="marble" width="64" height="64" patternUnits="userSpaceOnUse"><rect width="64" height="64" fill="#e6e1d8"/><path d="M0 40 C16 30 26 52 44 38 S60 20 64 26" fill="none" stroke="#c9c2b5" stroke-width="1.2"/><path d="M10 0 C14 12 4 20 12 32" fill="none" stroke="#c9c2b5" stroke-width=".8"/><path d="M0 0H64V64" fill="none" stroke="#c9c2b5" stroke-opacity=".6"/></pattern>
<radialGradient id="canopy" cx="40%" cy="35%"><stop offset="0" stop-color="#5f9a3c"/><stop offset="1" stop-color="#2e5a22"/></radialGradient>
<radialGradient id="rock" cx="35%" cy="30%"><stop offset="0" stop-color="#b5aea3"/><stop offset="1" stop-color="#6b645a"/></radialGradient>
<radialGradient id="lampglow"><stop offset="0" stop-color="#ffd98a" stop-opacity=".75"/><stop offset=".45" stop-color="#ffb347" stop-opacity=".25"/><stop offset="1" stop-color="#ffb347" stop-opacity="0"/></radialGradient>
<radialGradient id="felt" cx="45%" cy="40%"><stop offset="0" stop-color="#2f7a4a"/><stop offset="1" stop-color="#174a2c"/></radialGradient>
<filter id="glow"><feGaussianBlur stdDeviation="3" result="b"/><feMerge><feMergeNode in="b"/><feMergeNode in="SourceGraphic"/></feMerge></filter>
</defs><rect x="0" y="0" width="832" height="32" fill="url(#hatch)"/><rect x="0" y="32" width="32" height="32" fill="url(#hatch)"/><rect x="32" y="32" width="768" height="32" fill="url(#flag)"/><rect x="800" y="32" width="32" height="32" fill="url(#hatch)"/><rect x="0" y="64" width="32" height="32" fill="url(#hatch)"/><rect x="32" y="64" width="768" height="32" fill="url(#flag)"/><rect x="800" y="64" width="32" height="32" fill="url(#hatch)"/><rect x="0" y="96" width="32" height="32" fill="url(#hatch)"/><rect x="32" y="96" width="768" height="32" fill="url(#flag)"/><rect x="800" y="96" width="32" height="32" fill="url(#hatch)"/><rect x="0" y="128" width="32" height="32" fill="url(#hatch)"/><rect x="32" y="128" width="768" height="32" fill="url(#flag)"/><rect x="800" y="128" width="32" height="32" fill="url(#hatch)"/><rect x="0" y="160" width="32" height="32" fill="url(#hatch)"/><rect x="32" y="160" width="768" height="32" fill="url(#flag)"/><rect x="800" y="160" width="32" height="32" fill="url(#hatch)"/><rect x="0" y="192" width="32" height="32" fill="url(#hatch)"/><rect x="32" y="192" width="768" height="32" fill="url(#flag)"/><rect x="800" y="192" width="32" height="32" fill="url(#hatch)"/><rect x="0" y="224" width="32" height="32" fill="url(#hatch)"/><rect x="32" y="224" width="768" height="32" fill="url(#flag)"/><rect x="800" y="224" width="32" height="32" fill="url(#hatch)"/><rect x="0" y="256" width="32" height="32" fill="url(#hatch)"/><rect x="32" y="256" width="768" height="32" fill="url(#flag)"/><rect x="800" y="256" width="32" height="32" fill="url(#hatch)"/><rect x="0" y="288" width="32" height="32" fill="url(#hatch)"/><rect x="32" y="288" width="768" height="32" fill="url(#flag)"/><rect x="800" y="288" width="32" height="32" fill="url(#hatch)"/><rect x="0" y="320" width="32" height="32" fill="url(#hatch)"/><rect x="32" y="320" width="768" height="32" fill="url(#flag)"/><rect x="800" y="320" width="32" height="32" fill="url(#hatch)"/><rect x="0" y="352" width="32" height="32" fill="url(#hatch)"/><rect x="32" y="352" width="768" height="32" fill="url(#flag)"/><rect x="800" y="352" width="32" height="32" fill="url(#hatch)"/><rect x="0" y="384" width="32" height="32" fill="url(#hatch)"/><rect x="32" y="384" width="768" height="32" fill="url(#flag)"/><rect x="800" y="384" width="32" height="32" fill="url(#hatch)"/><rect x="0" y="416" width="32" height="32" fill="url(#hatch)"/><rect x="32" y="416" width="768" height="32" fill="url(#flag)"/><rect x="800" y="416" width="32" height="32" fill="url(#hatch)"/><rect x="0" y="448" width="32" height="32" fill="url(#hatch)"/><rect x="32" y="448" width="768" height="32" fill="url(#flag)"/><rect x="800" y="448" width="32" height="32" fill="url(#hatch)"/><rect x="0" y="480" width="32" height="32" fill="url(#hatch)"/><rect x="32" y="480" width="768" height="32" fill="url(#flag)"/><rect x="800" y="480" width="32" height="32" fill="url(#hatch)"/><rect x="0" y="512" width="32" height="32" fill="url(#hatch)"/><rect x="32" y="512" width="544" height="32" fill="url(#flag)"/><rect x="576" y="512" width="64" height="32" fill="url(#planks)"/><rect x="640" y="512" width="160" height="32" fill="url(#flag)"/><rect x="800" y="512" width="32" height="32" fill="url(#hatch)"/><rect x="0" y="544" width="384" height="32" fill="url(#hatch)"/><rect x="384" y="544" width="32" height="32" fill="url(#flag)"/><rect x="416" y="544" width="416" height="32" fill="url(#hatch)"/><rect x="32" y="0" width="32" height="32" fill="#4a423a" stroke="#211d19" stroke-width="1"/><rect x="64" y="0" width="32" height="32" fill="#4a423a" stroke="#211d19" stroke-width="1"/><rect x="96" y="0" width="32" height="32" fill="#4a423a" stroke="#211d19" stroke-width="1"/><rect x="128" y="0" width="32" height="32" fill="#4a423a" stroke="#211d19" stroke-width="1"/><rect x="160" y="0" width="32" height="32" fill="#4a423a" stroke="#211d19" stroke-width="1"/><rect x="192" y="0" width="32" height="32" fill="#4a423a" stroke="#211d19" stroke-width="1"/><rect x="224" y="0" width="32" height="32" fill="#4a423a" stroke="#211d19" stroke-width="1"/><rect x="256" y="0" width="32" height="32" fill="#4a423a" stroke="#211d19" stroke-width="1"/><rect x="288" y="0" width="32" height="32" fill="#4a423a" stroke="#211d19" stroke-width="1"/><rect x="320" y="0" width="32" height="32" fill="#4a423a" stroke="#211d19" stroke-width="1"/><rect x="352" y="0" width="32" height="32" fill="#4a423a" stroke="#211d19" stroke-width="1"/><rect x="384" y="0" width="32" height="32" fill="#4a423a" stroke="#211d19" stroke-width="1"/><rect x="416" y="0" width="32" height="32" fill="#4a423a" stroke="#211d19" stroke-width="1"/><rect x="448" y="0" width="32" height="32" fill="#4a423a" stroke="#211d19" stroke-width="1"/><rect x="480" y="0" width="32" height="32" fill="#4a423a" stroke="#211d19" stroke-width="1"/><rect x="512" y="0" width="32" height="32" fill="#4a423a" stroke="#211d19" stroke-width="1"/><rect x="544" y="0" width="32" height="32" fill="#4a423a" stroke="#211d19" stroke-width="1"/><rect x="576" y="0" width="32" height="32" fill="#4a423a" stroke="#211d19" stroke-width="1"/><rect x="608" y="0" width="32" height="32" fill="#4a423a" stroke="#211d19" stroke-width="1"/><rect x="640" y="0" width="32" height="32" fill="#4a423a" stroke="#211d19" stroke-width="1"/><rect x="672" y="0" width="32" height="32" fill="#4a423a" stroke="#211d19" stroke-width="1"/><rect x="704" y="0" width="32" height="32" fill="#4a423a" stroke="#211d19" stroke-width="1"/><rect x="736" y="0" width="32" height="32" fill="#4a423a" stroke="#211d19" stroke-width="1"/><rect x="768" y="0" width="32" height="32" fill="#4a423a" stroke="#211d19" stroke-width="1"/><rect x="0" y="32" width="32" height="32" fill="#4a423a" stroke="#211d19" stroke-width="1"/><rect x="320" y="45.44" width="32" height="5.12" fill="#8a6a43"/><circle cx="324" cy="48.0" r="3" fill="#8a6a43"/><circle cx="348" cy="48.0" r="3" fill="#8a6a43"/><rect x="480" y="45.44" width="32" height="5.12" fill="#8a6a43"/><circle cx="484" cy="48.0" r="3" fill="#8a6a43"/><circle cx="508" cy="48.0" r="3" fill="#8a6a43"/><circle cx="720.0" cy="48.0" r="51.2" fill="url(#lampglow)"/><circle cx="720.0" cy="48.0" r="3.5" fill="#fff2c4" stroke="#8a6a2a"/><line x1="740" y1="37" x2="764" y2="37" stroke="#6b6358" stroke-width="3.0"/><line x1="740" y1="44" x2="764" y2="44" stroke="#6b6358" stroke-width="2.5"/><line x1="740" y1="51" x2="764" y2="51" stroke="#6b6358" stroke-width="2.0"/><line x1="740" y1="58" x2="764" y2="58" stroke="#6b6358" stroke-width="1.5"/><text x="762" y="44" font-size="10" fill="#3a342e">▼</text><rect x="800" y="32" width="32" height="32" fill="#4a423a" stroke="#211d19" stroke-width="1"/><rect x="0" y="64" width="32" height="32" fill="#4a423a" stroke="#211d19" stroke-width="1"/><rect x="67" y="67" width="16.0" height="16.0" fill="#8a6a3a" stroke="#4a3418"/><path d="M67 67 L83.0 83.0 M83.0 67 L67 83.0" stroke="#4a3418"/><circle cx="86.4" cy="85.76" r="7.68" fill="#7a5530" stroke="#3a2412" stroke-width="2"/><rect x="99" y="67" width="16.0" height="16.0" fill="#8a6a3a" stroke="#4a3418"/><path d="M99 67 L115.0 83.0 M115.0 67 L99 83.0" stroke="#4a3418"/><circle cx="118.4" cy="85.76" r="7.68" fill="#7a5530" stroke="#3a2412" stroke-width="2"/><rect x="259" y="67" width="16.0" height="16.0" fill="#8a6a3a" stroke="#4a3418"/><path d="M259 67 L275.0 83.0 M275.0 67 L259 83.0" stroke="#4a3418"/><circle cx="278.4" cy="85.76" r="7.68" fill="#7a5530" stroke="#3a2412" stroke-width="2"/><rect x="320" y="77.44" width="32" height="5.12" fill="#8a6a43"/><circle cx="324" cy="80.0" r="3" fill="#8a6a43"/><circle cx="348" cy="80.0" r="3" fill="#8a6a43"/><rect x="480" y="77.44" width="32" height="5.12" fill="#8a6a43"/><circle cx="484" cy="80.0" r="3" fill="#8a6a43"/><circle cx="508" cy="80.0" r="3" fill="#8a6a43"/><rect x="800" y="64" width="32" height="32" fill="#4a423a" stroke="#211d19" stroke-width="1"/><rect x="0" y="96" width="32" height="32" fill="#4a423a" stroke="#211d19" stroke-width="1"/><rect x="67" y="99" width="16.0" height="16.0" fill="#8a6a3a" stroke="#4a3418"/><path d="M67 99 L83.0 115.0 M83.0 99 L67 115.0" stroke="#4a3418"/><circle cx="86.4" cy="117.76" r="7.68" fill="#7a5530" stroke="#3a2412" stroke-width="2"/><rect x="329.6" y="97" width="12.8" height="30" fill="#7a4a1e" stroke="#3a2008" stroke-width="2"/><rect x="489.6" y="97" width="12.8" height="30" fill="none" stroke="#7a4a1e" stroke-width="2" stroke-dasharray="3 2"/><rect x="579" y="99" width="16.0" height="16.0" fill="#8a6a3a" stroke="#4a3418"/><path d="M579 99 L595.0 115.0 M595.0 99 L579 115.0" stroke="#4a3418"/><circle cx="598.4" cy="117.76" r="7.68" fill="#7a5530" stroke="#3a2412" stroke-width="2"/><rect x="611" y="99" width="16.0" height="16.0" fill="#8a6a3a" stroke="#4a3418"/><path d="M611 99 L627.0 115.0 M627.0 99 L611 115.0" stroke="#4a3418"/><circle cx="630.4" cy="117.76" r="7.68" fill="#7a5530" stroke="#3a2412" stroke-width="2"/><rect x="643" y="99" width="16.0" height="16.0" fill="#8a6a3a" stroke="#4a3418"/><path d="M643 99 L659.0 115.0 M659.0 99 L643 115.0" stroke="#4a3418"/><circle cx="662.4" cy="117.76" r="7.68" fill="#7a5530" stroke="#3a2412" stroke-width="2"/><rect x="800" y="96" width="32" height="32" fill="#4a423a" stroke="#211d19" stroke-width="1"/><rect x="0" y="128" width="32" height="32" fill="#4a423a" stroke="#211d19" stroke-width="1"/><rect x="195" y="131" width="16.0" height="16.0" fill="#8a6a3a" stroke="#4a3418"/><path d="M195 131 L211.0 147.0 M211.0 131 L195 147.0" stroke="#4a3418"/><circle cx="214.4" cy="149.76" r="7.68" fill="#7a5530" stroke="#3a2412" stroke-width="2"/><rect x="227" y="131" width="16.0" height="16.0" fill="#8a6a3a" stroke="#4a3418"/><path d="M227 131 L243.0 147.0 M243.0 131 L227 147.0" stroke="#4a3418"/><circle cx="246.4" cy="149.76" r="7.68" fill="#7a5530" stroke="#3a2412" stroke-width="2"/><rect x="320" y="141.44" width="32" height="5.12" fill="#8a6a43"/><circle cx="324" cy="144.0" r="3" fill="#8a6a43"/><circle cx="348" cy="144.0" r="3" fill="#8a6a43"/><rect x="480" y="141.44" width="32" height="5.12" fill="#8a6a43"/><circle cx="484" cy="144.0" r="3" fill="#8a6a43"/><circle cx="508" cy="144.0" r="3" fill="#8a6a43"/><rect x="800" y="128" width="32" height="32" fill="#4a423a" stroke="#211d19" stroke-width="1"/><rect x="0" y="160" width="32" height="32" fill="#4a423a" stroke="#211d19" stroke-width="1"/><rect x="320" y="173.44" width="32" height="5.12" fill="#8a6a43"/><circle cx="324" cy="176.0" r="3" fill="#8a6a43"/><circle cx="348" cy="176.0" r="3" fill="#8a6a43"/><rect x="480" y="173.44" width="32" height="5.12" fill="#8a6a43"/><circle cx="484" cy="176.0" r="3" fill="#8a6a43"/><circle cx="508" cy="176.0" r="3" fill="#8a6a43"/><rect x="800" y="160" width="32" height="32" fill="#4a423a" stroke="#211d19" stroke-width="1"/><rect x="0" y="192" width="32" height="32" fill="#4a423a" stroke="#211d19" stroke-width="1"/><rect x="32" y="205.44" width="32" height="5.12" fill="#8a6a43"/><circle cx="36" cy="208.0" r="3" fill="#8a6a43"/><circle cx="60" cy="208.0" r="3" fill="#8a6a43"/><rect x="64" y="205.44" width="32" height="5.12" fill="#8a6a43"/><circle cx="68" cy="208.0" r="3" fill="#8a6a43"/><circle cx="92" cy="208.0" r="3" fill="#8a6a43"/><rect x="96" y="205.44" width="32" height="5.12" fill="#8a6a43"/><circle cx="100" cy="208.0" r="3" fill="#8a6a43"/><circle cx="124" cy="208.0" r="3" fill="#8a6a43"/><rect x="128" y="205.44" width="32" height="5.12" fill="#8a6a43"/><circle cx="132" cy="208.0" r="3" fill="#8a6a43"/><circle cx="156" cy="208.0" r="3" fill="#8a6a43"/><rect x="160" y="205.44" width="32" height="5.12" fill="#8a6a43"/><circle cx="164" cy="208.0" r="3" fill="#8a6a43"/><circle cx="188" cy="208.0" r="3" fill="#8a6a43"/><rect x="192" y="205.44" width="32" height="5.12" fill="#8a6a43"/><circle cx="196" cy="208.0" r="3" fill="#8a6a43"/><circle cx="220" cy="208.0" r="3" fill="#8a6a43"/><rect x="224" y="205.44" width="32" height="5.12" fill="#8a6a43"/><circle cx="228" cy="208.0" r="3" fill="#8a6a43"/><circle cx="252" cy="208.0" r="3" fill="#8a6a43"/><rect x="256" y="205.44" width="32" height="5.12" fill="#8a6a43"/><circle cx="260" cy="208.0" r="3" fill="#8a6a43"/><circle cx="284" cy="208.0" r="3" fill="#8a6a43"/><rect x="288" y="205.44" width="32" height="5.12" fill="#8a6a43"/><circle cx="292" cy="208.0" r="3" fill="#8a6a43"/><circle cx="316" cy="208.0" r="3" fill="#8a6a43"/><rect x="320" y="205.44" width="32" height="5.12" fill="#8a6a43"/><circle cx="324" cy="208.0" r="3" fill="#8a6a43"/><circle cx="348" cy="208.0" r="3" fill="#8a6a43"/><rect x="480" y="205.44" width="32" height="5.12" fill="#8a6a43"/><circle cx="484" cy="208.0" r="3" fill="#8a6a43"/><circle cx="508" cy="208.0" r="3" fill="#8a6a43"/><rect x="512" y="205.44" width="32" height="5.12" fill="#8a6a43"/><circle cx="516" cy="208.0" r="3" fill="#8a6a43"/><circle cx="540" cy="208.0" r="3" fill="#8a6a43"/><rect x="544" y="205.44" width="32" height="5.12" fill="#8a6a43"/><circle cx="548" cy="208.0" r="3" fill="#8a6a43"/><circle cx="572" cy="208.0" r="3" fill="#8a6a43"/><rect x="576" y="205.44" width="32" height="5.12" fill="#8a6a43"/><circle cx="580" cy="208.0" r="3" fill="#8a6a43"/><circle cx="604" cy="208.0" r="3" fill="#8a6a43"/><rect x="608" y="205.44" width="32" height="5.12" fill="#8a6a43"/><circle cx="612" cy="208.0" r="3" fill="#8a6a43"/><circle cx="636" cy="208.0" r="3" fill="#8a6a43"/><rect x="640" y="205.44" width="32" height="5.12" fill="#8a6a43"/><circle cx="644" cy="208.0" r="3" fill="#8a6a43"/><circle cx="668" cy="208.0" r="3" fill="#8a6a43"/><rect x="672" y="205.44" width="32" height="5.12" fill="#8a6a43"/><circle cx="676" cy="208.0" r="3" fill="#8a6a43"/><circle cx="700" cy="208.0" r="3" fill="#8a6a43"/><rect x="704" y="205.44" width="32" height="5.12" fill="#8a6a43"/><circle cx="708" cy="208.0" r="3" fill="#8a6a43"/><circle cx="732" cy="208.0" r="3" fill="#8a6a43"/><rect x="736" y="205.44" width="32" height="5.12" fill="#8a6a43"/><circle cx="740" cy="208.0" r="3" fill="#8a6a43"/><circle cx="764" cy="208.0" r="3" fill="#8a6a43"/><rect x="768" y="205.44" width="32" height="5.12" fill="#8a6a43"/><circle cx="772" cy="208.0" r="3" fill="#8a6a43"/><circle cx="796" cy="208.0" r="3" fill="#8a6a43"/><rect x="800" y="192" width="32" height="32" fill="#4a423a" stroke="#211d19" stroke-width="1"/><rect x="0" y="224" width="32" height="32" fill="#4a423a" stroke="#211d19" stroke-width="1"/><rect x="70" y="230" width="20" height="22" rx="5" fill="#7d2430" stroke="#4a3018" stroke-width="1.2"/><rect x="70" y="228" width="20" height="6" rx="3" fill="#7a5530" stroke="#4a3018"/><rect x="261.5" y="230" width="24" height="24" rx="3" fill="#000" fill-opacity=".2"/><rect x="260" y="228" width="24" height="24" rx="3" fill="#7a5530" stroke="#4a3018"/><path d="M264 240.0H280" stroke="#4a3018" stroke-opacity=".5"/><rect x="320" y="237.44" width="32" height="5.12" fill="#8a6a43"/><circle cx="324" cy="240.0" r="3" fill="#8a6a43"/><circle cx="348" cy="240.0" r="3" fill="#8a6a43"/><rect x="480" y="237.44" width="32" height="5.12" fill="#8a6a43"/><circle cx="484" cy="240.0" r="3" fill="#8a6a43"/><circle cx="508" cy="240.0" r="3" fill="#8a6a43"/><rect x="547" y="227" width="16.0" height="16.0" fill="#8a6a3a" stroke="#4a3418"/><path d="M547 227 L563.0 243.0 M563.0 227 L547 243.0" stroke="#4a3418"/><circle cx="566.4" cy="245.76" r="7.68" fill="#7a5530" stroke="#3a2412" stroke-width="2"/><rect x="800" y="224" width="32" height="32" fill="#4a423a" stroke="#211d19" stroke-width="1"/><rect x="0" y="256" width="32" height="32" fill="#4a423a" stroke="#211d19" stroke-width="1"/><rect x="70" y="262" width="20" height="22" rx="5" fill="#7d2430" stroke="#4a3018" stroke-width="1.2"/><rect x="70" y="260" width="20" height="6" rx="3" fill="#7a5530" stroke="#4a3018"/><rect x="163" y="259" width="26" height="26" fill="#d8d2c6" stroke="#8f8576" stroke-width="2"/><circle cx="176.0" cy="272.0" r="7.04" fill="#b8b0a2" stroke="#6e6557"/><rect x="261.5" y="262" width="24" height="24" rx="3" fill="#000" fill-opacity=".2"/><rect x="260" y="260" width="24" height="24" rx="3" fill="#7a5530" stroke="#4a3018"/><path d="M264 272.0H280" stroke="#4a3018" stroke-opacity=".5"/><rect x="329.6" y="257" width="12.8" height="30" fill="#7a4a1e" stroke="#3a2008" stroke-width="2"/><rect x="489.6" y="257" width="12.8" height="30" fill="#7a4a1e" stroke="#3a2008" stroke-width="2"/><rect x="643" y="259" width="26" height="26" fill="#d8d2c6" stroke="#8f8576" stroke-width="2"/><circle cx="656.0" cy="272.0" r="7.04" fill="#b8b0a2" stroke="#6e6557"/><rect x="800" y="256" width="32" height="32" fill="#4a423a" stroke="#211d19" stroke-width="1"/><rect x="0" y="288" width="32" height="32" fill="#4a423a" stroke="#211d19" stroke-width="1"/><circle cx="81.5" cy="306.0" r="9.6" fill="#000" fill-opacity=".2"/><circle cx="80.0" cy="304.0" r="9.6" fill="#7a5530" stroke="#4a3018" stroke-width="1.5"/><circle cx="80.0" cy="290.6" r="3.2" fill="#7a5530" stroke="#4a3018" stroke-width=".8"/><circle cx="66.6" cy="304.0" r="3.2" fill="#7a5530" stroke="#4a3018" stroke-width=".8"/><circle cx="273.5" cy="306.0" r="9.6" fill="#000" fill-opacity=".2"/><circle cx="272.0" cy="304.0" r="9.6" fill="#7a5530" stroke="#4a3018" stroke-width="1.5"/><circle cx="272.0" cy="317.4" r="3.2" fill="#7a5530" stroke="#4a3018" stroke-width=".8"/><circle cx="285.4" cy="304.0" r="3.2" fill="#7a5530" stroke="#4a3018" stroke-width=".8"/><rect x="320" y="301.44" width="32" height="5.12" fill="#8a6a43"/><circle cx="324" cy="304.0" r="3" fill="#8a6a43"/><circle cx="348" cy="304.0" r="3" fill="#8a6a43"/><rect x="480" y="301.44" width="32" height="5.12" fill="#8a6a43"/><circle cx="484" cy="304.0" r="3" fill="#8a6a43"/><circle cx="508" cy="304.0" r="3" fill="#8a6a43"/><rect x="800" y="288" width="32" height="32" fill="#4a423a" stroke="#211d19" stroke-width="1"/><rect x="0" y="320" width="32" height="32" fill="#4a423a" stroke="#211d19" stroke-width="1"/><circle cx="81.5" cy="338.0" r="9.6" fill="#000" fill-opacity=".2"/><circle cx="80.0" cy="336.0" r="9.6" fill="#7a5530" stroke="#4a3018" stroke-width="1.5"/><circle cx="80.0" cy="349.4" r="3.2" fill="#7a5530" stroke="#4a3018" stroke-width=".8"/><circle cx="93.4" cy="336.0" r="3.2" fill="#7a5530" stroke="#4a3018" stroke-width=".8"/><rect x="261.5" y="326" width="24" height="24" rx="3" fill="#000" fill-opacity=".2"/><rect x="260" y="324" width="24" height="24" rx="3" fill="#7a5530" stroke="#4a3018"/><path d="M264 336.0H280" stroke="#4a3018" stroke-opacity=".5"/><rect x="320" y="333.44" width="32" height="5.12" fill="#8a6a43"/><circle cx="324" cy="336.0" r="3" fill="#8a6a43"/><circle cx="348" cy="336.0" r="3" fill="#8a6a43"/><rect x="480" y="333.44" width="32" height="5.12" fill="#8a6a43"/><circle cx="484" cy="336.0" r="3" fill="#8a6a43"/><circle cx="508" cy="336.0" r="3" fill="#8a6a43"/><rect x="739" y="323" width="16.0" height="16.0" fill="#8a6a3a" stroke="#4a3418"/><path d="M739 323 L755.0 339.0 M755.0 323 L739 339.0" stroke="#4a3418"/><circle cx="758.4" cy="341.76" r="7.68" fill="#7a5530" stroke="#3a2412" stroke-width="2"/><rect x="800" y="320" width="32" height="32" fill="#4a423a" stroke="#211d19" stroke-width="1"/><rect x="0" y="352" width="32" height="32" fill="#4a423a" stroke="#211d19" stroke-width="1"/><rect x="32" y="365.44" width="32" height="5.12" fill="#8a6a43"/><circle cx="36" cy="368.0" r="3" fill="#8a6a43"/><circle cx="60" cy="368.0" r="3" fill="#8a6a43"/><rect x="64" y="365.44" width="32" height="5.12" fill="#8a6a43"/><circle cx="68" cy="368.0" r="3" fill="#8a6a43"/><circle cx="92" cy="368.0" r="3" fill="#8a6a43"/><rect x="96" y="365.44" width="32" height="5.12" fill="#8a6a43"/><circle cx="100" cy="368.0" r="3" fill="#8a6a43"/><circle cx="124" cy="368.0" r="3" fill="#8a6a43"/><rect x="128" y="365.44" width="32" height="5.12" fill="#8a6a43"/><circle cx="132" cy="368.0" r="3" fill="#8a6a43"/><circle cx="156" cy="368.0" r="3" fill="#8a6a43"/><rect x="160" y="365.44" width="32" height="5.12" fill="#8a6a43"/><circle cx="164" cy="368.0" r="3" fill="#8a6a43"/><circle cx="188" cy="368.0" r="3" fill="#8a6a43"/><rect x="192" y="365.44" width="32" height="5.12" fill="#8a6a43"/><circle cx="196" cy="368.0" r="3" fill="#8a6a43"/><circle cx="220" cy="368.0" r="3" fill="#8a6a43"/><rect x="224" y="365.44" width="32" height="5.12" fill="#8a6a43"/><circle cx="228" cy="368.0" r="3" fill="#8a6a43"/><circle cx="252" cy="368.0" r="3" fill="#8a6a43"/><rect x="256" y="365.44" width="32" height="5.12" fill="#8a6a43"/><circle cx="260" cy="368.0" r="3" fill="#8a6a43"/><circle cx="284" cy="368.0" r="3" fill="#8a6a43"/><rect x="288" y="365.44" width="32" height="5.12" fill="#8a6a43"/><circle cx="292" cy="368.0" r="3" fill="#8a6a43"/><circle cx="316" cy="368.0" r="3" fill="#8a6a43"/><rect x="320" y="365.44" width="32" height="5.12" fill="#8a6a43"/><circle cx="324" cy="368.0" r="3" fill="#8a6a43"/><circle cx="348" cy="368.0" r="3" fill="#8a6a43"/><rect x="480" y="365.44" width="32" height="5.12" fill="#8a6a43"/><circle cx="484" cy="368.0" r="3" fill="#8a6a43"/><circle cx="508" cy="368.0" r="3" fill="#8a6a43"/><rect x="512" y="365.44" width="32" height="5.12" fill="#8a6a43"/><circle cx="516" cy="368.0" r="3" fill="#8a6a43"/><circle cx="540" cy="368.0" r="3" fill="#8a6a43"/><rect x="544" y="365.44" width="32" height="5.12" fill="#8a6a43"/><circle cx="548" cy="368.0" r="3" fill="#8a6a43"/><circle cx="572" cy="368.0" r="3" fill="#8a6a43"/><rect x="576" y="365.44" width="32" height="5.12" fill="#8a6a43"/><circle cx="580" cy="368.0" r="3" fill="#8a6a43"/><circle cx="604" cy="368.0" r="3" fill="#8a6a43"/><rect x="608" y="365.44" width="32" height="5.12" fill="#8a6a43"/><circle cx="612" cy="368.0" r="3" fill="#8a6a43"/><circle cx="636" cy="368.0" r="3" fill="#8a6a43"/><rect x="640" y="365.44" width="32" height="5.12" fill="#8a6a43"/><circle cx="644" cy="368.0" r="3" fill="#8a6a43"/><circle cx="668" cy="368.0" r="3" fill="#8a6a43"/><rect x="672" y="365.44" width="32" height="5.12" fill="#8a6a43"/><circle cx="676" cy="368.0" r="3" fill="#8a6a43"/><circle cx="700" cy="368.0" r="3" fill="#8a6a43"/><rect x="704" y="365.44" width="32" height="5.12" fill="#8a6a43"/><circle cx="708" cy="368.0" r="3" fill="#8a6a43"/><circle cx="732" cy="368.0" r="3" fill="#8a6a43"/><rect x="736" y="365.44" width="32" height="5.12" fill="#8a6a43"/><circle cx="740" cy="368.0" r="3" fill="#8a6a43"/><circle cx="764" cy="368.0" r="3" fill="#8a6a43"/><rect x="768" y="365.44" width="32" height="5.12" fill="#8a6a43"/><circle cx="772" cy="368.0" r="3" fill="#8a6a43"/><circle cx="796" cy="368.0" r="3" fill="#8a6a43"/><rect x="800" y="352" width="32" height="32" fill="#4a423a" stroke="#211d19" stroke-width="1"/><rect x="0" y="384" width="32" height="32" fill="#4a423a" stroke="#211d19" stroke-width="1"/><rect x="69.5" y="390" width="24" height="24" rx="3" fill="#000" fill-opacity=".2"/><rect x="68" y="388" width="24" height="24" rx="3" fill="#7a5530" stroke="#4a3018"/><path d="M72 400.0H88" stroke="#4a3018" stroke-opacity=".5"/><circle cx="113.5" cy="402.0" r="9.6" fill="#000" fill-opacity=".2"/><circle cx="112.0" cy="400.0" r="9.6" fill="#7a5530" stroke="#4a3018" stroke-width="1.5"/><circle cx="112.0" cy="386.6" r="3.2" fill="#7a5530" stroke="#4a3018" stroke-width=".8"/><circle cx="112.0" cy="413.4" r="3.2" fill="#7a5530" stroke="#4a3018" stroke-width=".8"/><circle cx="145.5" cy="402.0" r="9.6" fill="#000" fill-opacity=".2"/><circle cx="144.0" cy="400.0" r="9.6" fill="#7a5530" stroke="#4a3018" stroke-width="1.5"/><circle cx="144.0" cy="386.6" r="3.2" fill="#7a5530" stroke="#4a3018" stroke-width=".8"/><circle cx="130.6" cy="400.0" r="3.2" fill="#7a5530" stroke="#4a3018" stroke-width=".8"/><rect x="166" y="390" width="20" height="22" rx="5" fill="#7d2430" stroke="#4a3018" stroke-width="1.2"/><rect x="166" y="388" width="20" height="6" rx="3" fill="#7a5530" stroke="#4a3018"/><circle cx="209.5" cy="402.0" r="9.6" fill="#000" fill-opacity=".2"/><circle cx="208.0" cy="400.0" r="9.6" fill="#7a5530" stroke="#4a3018" stroke-width="1.5"/><circle cx="221.4" cy="400.0" r="3.2" fill="#7a5530" stroke="#4a3018" stroke-width=".8"/><circle cx="208.0" cy="413.4" r="3.2" fill="#7a5530" stroke="#4a3018" stroke-width=".8"/><rect x="320" y="397.44" width="32" height="5.12" fill="#8a6a43"/><circle cx="324" cy="400.0" r="3" fill="#8a6a43"/><circle cx="348" cy="400.0" r="3" fill="#8a6a43"/><rect x="480" y="397.44" width="32" height="5.12" fill="#8a6a43"/><circle cx="484" cy="400.0" r="3" fill="#8a6a43"/><circle cx="508" cy="400.0" r="3" fill="#8a6a43"/><circle cx="561.5" cy="402.0" r="9.6" fill="#000" fill-opacity=".2"/><circle cx="560.0" cy="400.0" r="9.6" fill="#7a5530" stroke="#4a3018" stroke-width="1.5"/><circle cx="546.6" cy="400.0" r="3.2" fill="#7a5530" stroke="#4a3018" stroke-width=".8"/><circle cx="560.0" cy="386.6" r="3.2" fill="#7a5530" stroke="#4a3018" stroke-width=".8"/><circle cx="593.5" cy="402.0" r="9.6" fill="#000" fill-opacity=".2"/><circle cx="592.0" cy="400.0" r="9.6" fill="#7a5530" stroke="#4a3018" stroke-width="1.5"/><circle cx="592.0" cy="386.6" r="3.2" fill="#7a5530" stroke="#4a3018" stroke-width=".8"/><circle cx="605.4" cy="400.0" r="3.2" fill="#7a5530" stroke="#4a3018" stroke-width=".8"/><circle cx="625.5" cy="402.0" r="9.6" fill="#000" fill-opacity=".2"/><circle cx="624.0" cy="400.0" r="9.6" fill="#7a5530" stroke="#4a3018" stroke-width="1.5"/><circle cx="624.0" cy="413.4" r="3.2" fill="#7a5530" stroke="#4a3018" stroke-width=".8"/><circle cx="610.6" cy="400.0" r="3.2" fill="#7a5530" stroke="#4a3018" stroke-width=".8"/><rect x="645.5" y="390" width="24" height="24" rx="3" fill="#000" fill-opacity=".2"/><rect x="644" y="388" width="24" height="24" rx="3" fill="#7a5530" stroke="#4a3018"/><path d="M648 400.0H664" stroke="#4a3018" stroke-opacity=".5"/><rect x="677.5" y="390" width="24" height="24" rx="3" fill="#000" fill-opacity=".2"/><rect x="676" y="388" width="24" height="24" rx="3" fill="#7a5530" stroke="#4a3018"/><path d="M680 400.0H696" stroke="#4a3018" stroke-opacity=".5"/><rect x="709.5" y="390" width="24" height="24" rx="3" fill="#000" fill-opacity=".2"/><rect x="708" y="388" width="24" height="24" rx="3" fill="#7a5530" stroke="#4a3018"/><path d="M712 400.0H728" stroke="#4a3018" stroke-opacity=".5"/><rect x="741.5" y="390" width="24" height="24" rx="3" fill="#000" fill-opacity=".2"/><rect x="740" y="388" width="24" height="24" rx="3" fill="#7a5530" stroke="#4a3018"/><path d="M744 400.0H760" stroke="#4a3018" stroke-opacity=".5"/><rect x="800" y="384" width="32" height="32" fill="#4a423a" stroke="#211d19" stroke-width="1"/><rect x="0" y="416" width="32" height="32" fill="#4a423a" stroke="#211d19" stroke-width="1"/><rect x="329.6" y="417" width="12.8" height="30" fill="#7a4a1e" stroke="#3a2008" stroke-width="2"/><rect x="489.6" y="417" width="12.8" height="30" fill="#7a4a1e" stroke="#3a2008" stroke-width="2"/><rect x="800" y="416" width="32" height="32" fill="#4a423a" stroke="#211d19" stroke-width="1"/><rect x="0" y="448" width="32" height="32" fill="#4a423a" stroke="#211d19" stroke-width="1"/><rect x="259" y="451" width="16.0" height="16.0" fill="#8a6a3a" stroke="#4a3418"/><path d="M259 451 L275.0 467.0 M275.0 451 L259 467.0" stroke="#4a3418"/><circle cx="278.4" cy="469.76" r="7.68" fill="#7a5530" stroke="#3a2412" stroke-width="2"/><rect x="320" y="461.44" width="32" height="5.12" fill="#8a6a43"/><circle cx="324" cy="464.0" r="3" fill="#8a6a43"/><circle cx="348" cy="464.0" r="3" fill="#8a6a43"/><rect x="480" y="461.44" width="32" height="5.12" fill="#8a6a43"/><circle cx="484" cy="464.0" r="3" fill="#8a6a43"/><circle cx="508" cy="464.0" r="3" fill="#8a6a43"/><rect x="800" y="448" width="32" height="32" fill="#4a423a" stroke="#211d19" stroke-width="1"/><rect x="0" y="480" width="32" height="32" fill="#4a423a" stroke="#211d19" stroke-width="1"/><rect x="320" y="493.44" width="32" height="5.12" fill="#8a6a43"/><circle cx="324" cy="496.0" r="3" fill="#8a6a43"/><circle cx="348" cy="496.0" r="3" fill="#8a6a43"/><rect x="480" y="493.44" width="32" height="5.12" fill="#8a6a43"/><circle cx="484" cy="496.0" r="3" fill="#8a6a43"/><circle cx="508" cy="496.0" r="3" fill="#8a6a43"/><rect x="549.5" y="486" width="24" height="24" rx="3" fill="#000" fill-opacity=".2"/><rect x="548" y="484" width="24" height="24" rx="3" fill="#7a5530" stroke="#4a3018"/><path d="M552 496.0H568" stroke="#4a3018" stroke-opacity=".5"/><rect x="581.5" y="486" width="24" height="24" rx="3" fill="#000" fill-opacity=".2"/><rect x="580" y="484" width="24" height="24" rx="3" fill="#7a5530" stroke="#4a3018"/><path d="M584 496.0H600" stroke="#4a3018" stroke-opacity=".5"/><rect x="614" y="486" width="20" height="22" rx="5" fill="#7d2430" stroke="#4a3018" stroke-width="1.2"/><rect x="614" y="484" width="20" height="6" rx="3" fill="#7a5530" stroke="#4a3018"/><circle cx="657.5" cy="498.0" r="9.6" fill="#000" fill-opacity=".2"/><circle cx="656.0" cy="496.0" r="9.6" fill="#7a5530" stroke="#4a3018" stroke-width="1.5"/><circle cx="642.6" cy="496.0" r="3.2" fill="#7a5530" stroke="#4a3018" stroke-width=".8"/><circle cx="669.4" cy="496.0" r="3.2" fill="#7a5530" stroke="#4a3018" stroke-width=".8"/><rect x="800" y="480" width="32" height="32" fill="#4a423a" stroke="#211d19" stroke-width="1"/><rect x="0" y="512" width="32" height="32" fill="#4a423a" stroke="#211d19" stroke-width="1"/><rect x="32" y="525.44" width="32" height="5.12" fill="#8a6a43"/><circle cx="36" cy="528.0" r="3" fill="#8a6a43"/><circle cx="60" cy="528.0" r="3" fill="#8a6a43"/><rect x="64" y="525.44" width="32" height="5.12" fill="#8a6a43"/><circle cx="68" cy="528.0" r="3" fill="#8a6a43"/><circle cx="92" cy="528.0" r="3" fill="#8a6a43"/><rect x="96" y="525.44" width="32" height="5.12" fill="#8a6a43"/><circle cx="100" cy="528.0" r="3" fill="#8a6a43"/><circle cx="124" cy="528.0" r="3" fill="#8a6a43"/><rect x="128" y="525.44" width="32" height="5.12" fill="#8a6a43"/><circle cx="132" cy="528.0" r="3" fill="#8a6a43"/><circle cx="156" cy="528.0" r="3" fill="#8a6a43"/><rect x="160" y="525.44" width="32" height="5.12" fill="#8a6a43"/><circle cx="164" cy="528.0" r="3" fill="#8a6a43"/><circle cx="188" cy="528.0" r="3" fill="#8a6a43"/><rect x="192" y="525.44" width="32" height="5.12" fill="#8a6a43"/><circle cx="196" cy="528.0" r="3" fill="#8a6a43"/><circle cx="220" cy="528.0" r="3" fill="#8a6a43"/><rect x="224" y="525.44" width="32" height="5.12" fill="#8a6a43"/><circle cx="228" cy="528.0" r="3" fill="#8a6a43"/><circle cx="252" cy="528.0" r="3" fill="#8a6a43"/><rect x="256" y="525.44" width="32" height="5.12" fill="#8a6a43"/><circle cx="260" cy="528.0" r="3" fill="#8a6a43"/><circle cx="284" cy="528.0" r="3" fill="#8a6a43"/><rect x="288" y="525.44" width="32" height="5.12" fill="#8a6a43"/><circle cx="292" cy="528.0" r="3" fill="#8a6a43"/><circle cx="316" cy="528.0" r="3" fill="#8a6a43"/><rect x="512" y="525.44" width="32" height="5.12" fill="#8a6a43"/><circle cx="516" cy="528.0" r="3" fill="#8a6a43"/><circle cx="540" cy="528.0" r="3" fill="#8a6a43"/><rect x="544" y="525.44" width="32" height="5.12" fill="#8a6a43"/><circle cx="548" cy="528.0" r="3" fill="#8a6a43"/><circle cx="572" cy="528.0" r="3" fill="#8a6a43"/><rect x="576" y="525.44" width="32" height="5.12" fill="#8a6a43"/><circle cx="580" cy="528.0" r="3" fill="#8a6a43"/><circle cx="604" cy="528.0" r="3" fill="#8a6a43"/><rect x="608" y="525.44" width="32" height="5.12" fill="#8a6a43"/><circle cx="612" cy="528.0" r="3" fill="#8a6a43"/><circle cx="636" cy="528.0" r="3" fill="#8a6a43"/><rect x="640" y="525.44" width="32" height="5.12" fill="#8a6a43"/><circle cx="644" cy="528.0" r="3" fill="#8a6a43"/><circle cx="668" cy="528.0" r="3" fill="#8a6a43"/><rect x="672" y="525.44" width="32" height="5.12" fill="#8a6a43"/><circle cx="676" cy="528.0" r="3" fill="#8a6a43"/><circle cx="700" cy="528.0" r="3" fill="#8a6a43"/><rect x="704" y="525.44" width="32" height="5.12" fill="#8a6a43"/><circle cx="708" cy="528.0" r="3" fill="#8a6a43"/><circle cx="732" cy="528.0" r="3" fill="#8a6a43"/><rect x="736" y="525.44" width="32" height="5.12" fill="#8a6a43"/><circle cx="740" cy="528.0" r="3" fill="#8a6a43"/><circle cx="764" cy="528.0" r="3" fill="#8a6a43"/><rect x="768" y="525.44" width="32" height="5.12" fill="#8a6a43"/><circle cx="772" cy="528.0" r="3" fill="#8a6a43"/><circle cx="796" cy="528.0" r="3" fill="#8a6a43"/><rect x="800" y="512" width="32" height="32" fill="#4a423a" stroke="#211d19" stroke-width="1"/><rect x="32" y="544" width="32" height="32" fill="#4a423a" stroke="#211d19" stroke-width="1"/><rect x="64" y="544" width="32" height="32" fill="#4a423a" stroke="#211d19" stroke-width="1"/><rect x="96" y="544" width="32" height="32" fill="#4a423a" stroke="#211d19" stroke-width="1"/><rect x="128" y="544" width="32" height="32" fill="#4a423a" stroke="#211d19" stroke-width="1"/><rect x="160" y="544" width="32" height="32" fill="#4a423a" stroke="#211d19" stroke-width="1"/><rect x="192" y="544" width="32" height="32" fill="#4a423a" stroke="#211d19" stroke-width="1"/><rect x="224" y="544" width="32" height="32" fill="#4a423a" stroke="#211d19" stroke-width="1"/><rect x="256" y="544" width="32" height="32" fill="#4a423a" stroke="#211d19" stroke-width="1"/><rect x="288" y="544" width="32" height="32" fill="#4a423a" stroke="#211d19" stroke-width="1"/><rect x="320" y="544" width="32" height="32" fill="#4a423a" stroke="#211d19" stroke-width="1"/><rect x="352" y="544" width="32" height="32" fill="#4a423a" stroke="#211d19" stroke-width="1"/><rect x="385" y="553.6" width="30" height="12.8" fill="#7a4a1e" stroke="#3a2008" stroke-width="2"/><rect x="416" y="544" width="32" height="32" fill="#4a423a" stroke="#211d19" stroke-width="1"/><rect x="448" y="544" width="32" height="32" fill="#4a423a" stroke="#211d19" stroke-width="1"/><rect x="480" y="544" width="32" height="32" fill="#4a423a" stroke="#211d19" stroke-width="1"/><rect x="512" y="544" width="32" height="32" fill="#4a423a" stroke="#211d19" stroke-width="1"/><rect x="544" y="544" width="32" height="32" fill="#4a423a" stroke="#211d19" stroke-width="1"/><rect x="576" y="544" width="32" height="32" fill="#4a423a" stroke="#211d19" stroke-width="1"/><rect x="608" y="544" width="32" height="32" fill="#4a423a" stroke="#211d19" stroke-width="1"/><rect x="640" y="544" width="32" height="32" fill="#4a423a" stroke="#211d19" stroke-width="1"/><rect x="672" y="544" width="32" height="32" fill="#4a423a" stroke="#211d19" stroke-width="1"/><rect x="704" y="544" width="32" height="32" fill="#4a423a" stroke="#211d19" stroke-width="1"/><rect x="736" y="544" width="32" height="32" fill="#4a423a" stroke="#211d19" stroke-width="1"/><rect x="768" y="544" width="32" height="32" fill="#4a423a" stroke="#211d19" stroke-width="1"/><path d="M0 0V576M32 0V576M64 0V576M96 0V576M128 0V576M160 0V576M192 0V576M224 0V576M256 0V576M288 0V576M320 0V576M352 0V576M384 0V576M416 0V576M448 0V576M480 0V576M512 0V576M544 0V576M576 0V576M608 0V576M640 0V576M672 0V576M704 0V576M736 0V576M768 0V576M800 0V576M832 0V576M0 0H832M0 32H832M0 64H832M0 96H832M0 128H832M0 160H832M0 192H832M0 224H832M0 256H832M0 288H832M0 320H832M0 352H832M0 384H832M0 416H832M0 448H832M0 480H832M0 512H832M0 544H832M0 576H832" stroke="#000" stroke-opacity=".13" stroke-width="1"/><text x="160.0" y="32.0" font-size="14.4" font-style="italic" fill="#fff" stroke="#2b1d0e" stroke-width="3" paint-order="stroke"><tspan x="160.0" dy="0.0">Cage 1</tspan></text><text x="160.0" y="192.0" font-size="14.4" font-style="italic" fill="#fff" stroke="#2b1d0e" stroke-width="3" paint-order="stroke"><tspan x="160.0" dy="0.0">Cage 2</tspan></text><text x="160.0" y="352.0" font-size="14.4" font-style="italic" fill="#fff" stroke="#2b1d0e" stroke-width="3" paint-order="stroke"><tspan x="160.0" dy="0.0">Cage 3</tspan></text><text x="640.0" y="32.0" font-size="14.4" font-style="italic" fill="#fff" stroke="#2b1d0e" stroke-width="3" paint-order="stroke"><tspan x="640.0" dy="0.0">Cage 4</tspan></text><text x="640.0" y="192.0" font-size="14.4" font-style="italic" fill="#fff" stroke="#2b1d0e" stroke-width="3" paint-order="stroke"><tspan x="640.0" dy="0.0">Cage 5</tspan></text><text x="640.0" y="352.0" font-size="14.4" font-style="italic" fill="#fff" stroke="#2b1d0e" stroke-width="3" paint-order="stroke"><tspan x="640.0" dy="0.0">Cage 6</tspan></text><text x="715.7" y="16.4" font-size="14.4" font-style="italic" fill="#fff" stroke="#2b1d0e" stroke-width="3" paint-order="stroke"><tspan x="715.7" dy="0.0">Stair down (the</tspan><tspan x="715.7" dy="15.8">Curator&#x27;s door)</tspan></text><text x="384.0" y="544.0" font-size="14.4" font-style="italic" fill="#fff" stroke="#2b1d0e" stroke-width="3" paint-order="stroke"><tspan x="384.0" dy="0.0">Iron door to the dock</tspan></text><g class="prop"><title>Hooded crate (iron-strapped, tarpaulin)</title><svg x="610.3" y="66.8" width="30.4" height="30.4" viewBox="0 0 512 512" fill="#000" fill-opacity=".25"><path  d="m37.727 25l78 78h280.546l78-78zM25 37.727v436.546l78-78V115.727zm462 0l-78 78v280.546l78 78zM79.957 40a8 8 0 0 1 8 8a8 8 0 0 1-8 8a8 8 0 0 1-8-8a8 8 0 0 1 8-8M432 40.793a8 8 0 0 1 8 8a8 8 0 0 1-8 8a8 8 0 0 1-8-8a8 8 0 0 1 8-8M112 72a8 8 0 0 1 8 8a8 8 0 0 1-8 8a8 8 0 0 1-8-8a8 8 0 0 1 8-8m287.45 0a8 8 0 0 1 8 8a8 8 0 0 1-8 8a8 8 0 0 1-8-8a8 8 0 0 1 8-8m63.42 0a8 8 0 0 1 8 8a8 8 0 0 1-8 8a8 8 0 0 1-8-8a8 8 0 0 1 8-8M48 73.047a8 8 0 0 1 8 8a8 8 0 0 1-8 8a8 8 0 0 1-8-8a8 8 0 0 1 8-8M79.395 104a8 8 0 0 1 8 8a8 8 0 0 1-8 8a8 8 0 0 1-8-8a8 8 0 0 1 8-8m352.605.2a8 8 0 0 1 8 8a8 8 0 0 1-8 8a8 8 0 0 1-8-8a8 8 0 0 1 8-8M121 121v193.273l53.7-53.7L174.065 121zm71.064 0l.555 121.654l54.38-54.38V121h-54.936zM265 121v49.273L314.273 121zm74.727 0L121 339.727V391h51.273L391 172.273V121zM391 197.727l-53.023 53.023V391H391zm-71.023 71.023L265 323.727V391h54.977zM247 341.727L197.727 391H247zM77.97 392a8 8 0 0 1 8 8a8 8 0 0 1-8 8a8 8 0 0 1-8-8a8 8 0 0 1 8-8m354.03.658a8 8 0 0 1 8 8a8 8 0 0 1-8 8a8 8 0 0 1-8-8a8 8 0 0 1 8-8M115.727 409l-78 78h436.546l-78-78zM48 423.752a8 8 0 0 1 8 8a8 8 0 0 1-8 8a8 8 0 0 1-8-8a8 8 0 0 1 8-8m64 .8a8 8 0 0 1 8 8a8 8 0 0 1-8 8a8 8 0 0 1-8-8a8 8 0 0 1 8-8m288 .712a8 8 0 0 1 8 8a8 8 0 0 1-8 8a8 8 0 0 1-8-8a8 8 0 0 1 8-8m64 4.74a8 8 0 0 1 8 8a8 8 0 0 1-8 8a8 8 0 0 1-8-8a8 8 0 0 1 8-8M432 456a8 8 0 0 1 8 8a8 8 0 0 1-8 8a8 8 0 0 1-8-8a8 8 0 0 1 8-8m-352 2.56a8 8 0 0 1 8 8a8 8 0 0 1-8 8a8 8 0 0 1-8-8a8 8 0 0 1 8-8"/></svg><svg x="608.8" y="64.8" width="30.4" height="30.4" viewBox="0 0 512 512" fill="#4a3018"><path  d="m37.727 25l78 78h280.546l78-78zM25 37.727v436.546l78-78V115.727zm462 0l-78 78v280.546l78 78zM79.957 40a8 8 0 0 1 8 8a8 8 0 0 1-8 8a8 8 0 0 1-8-8a8 8 0 0 1 8-8M432 40.793a8 8 0 0 1 8 8a8 8 0 0 1-8 8a8 8 0 0 1-8-8a8 8 0 0 1 8-8M112 72a8 8 0 0 1 8 8a8 8 0 0 1-8 8a8 8 0 0 1-8-8a8 8 0 0 1 8-8m287.45 0a8 8 0 0 1 8 8a8 8 0 0 1-8 8a8 8 0 0 1-8-8a8 8 0 0 1 8-8m63.42 0a8 8 0 0 1 8 8a8 8 0 0 1-8 8a8 8 0 0 1-8-8a8 8 0 0 1 8-8M48 73.047a8 8 0 0 1 8 8a8 8 0 0 1-8 8a8 8 0 0 1-8-8a8 8 0 0 1 8-8M79.395 104a8 8 0 0 1 8 8a8 8 0 0 1-8 8a8 8 0 0 1-8-8a8 8 0 0 1 8-8m352.605.2a8 8 0 0 1 8 8a8 8 0 0 1-8 8a8 8 0 0 1-8-8a8 8 0 0 1 8-8M121 121v193.273l53.7-53.7L174.065 121zm71.064 0l.555 121.654l54.38-54.38V121h-54.936zM265 121v49.273L314.273 121zm74.727 0L121 339.727V391h51.273L391 172.273V121zM391 197.727l-53.023 53.023V391H391zm-71.023 71.023L265 323.727V391h54.977zM247 341.727L197.727 391H247zM77.97 392a8 8 0 0 1 8 8a8 8 0 0 1-8 8a8 8 0 0 1-8-8a8 8 0 0 1 8-8m354.03.658a8 8 0 0 1 8 8a8 8 0 0 1-8 8a8 8 0 0 1-8-8a8 8 0 0 1 8-8M115.727 409l-78 78h436.546l-78-78zM48 423.752a8 8 0 0 1 8 8a8 8 0 0 1-8 8a8 8 0 0 1-8-8a8 8 0 0 1 8-8m64 .8a8 8 0 0 1 8 8a8 8 0 0 1-8 8a8 8 0 0 1-8-8a8 8 0 0 1 8-8m288 .712a8 8 0 0 1 8 8a8 8 0 0 1-8 8a8 8 0 0 1-8-8a8 8 0 0 1 8-8m64 4.74a8 8 0 0 1 8 8a8 8 0 0 1-8 8a8 8 0 0 1-8-8a8 8 0 0 1 8-8M432 456a8 8 0 0 1 8 8a8 8 0 0 1-8 8a8 8 0 0 1-8-8a8 8 0 0 1 8-8m-352 2.56a8 8 0 0 1 8 8a8 8 0 0 1-8 8a8 8 0 0 1-8-8a8 8 0 0 1 8-8"/></svg></g><g class="prop"><title>Kit&#x27;s dropped daggers</title><svg x="777.5" y="106.0" width="16.0" height="16.0" viewBox="0 0 512 512" fill="#000" fill-opacity=".25"><path  d="M43.53 15.75c-15.73 0-28.31 12.583-28.31 28.313c0 14.086 10.092 25.644 23.5 27.906L42.687 68L68.81 41.906l2.626-2.625C69.188 25.86 57.63 15.75 43.53 15.75m33.72 44.125l-17 17c15.885 39.37 43.45 66.684 78.75 87.406a513 513 0 0 1 25.438-24.936c-22.488-35.103-51.535-62.294-87.188-79.47M322.594 79.03l-51.25 4.314c-79.356 48.134-143.878 108.1-186.72 186.53l-4.31 51.47l44.155-18.656l-2.94-34.094l-.25-3.063l1.626-2.624c35.94-58.47 79.93-109.41 141.5-141.25l2.406-1.25l2.688.25l34.125 2.906l18.97-44.53zm-62.438 66.376c-10.008 5.886-19.5 12.338-28.562 19.313c46.688 47.93 87.208 108.588 114.72 166.5l11.248 23.717l-23.718-11.28c-57.995-27.554-117.918-67.57-165.688-113.907a497 497 0 0 0-20.625 29.28c101.918 94.91 227.05 177.304 347.845 234.69c-57.063-120.125-140.038-246.18-235.22-348.314zm-43.03 31.22c-13.37 11.703-25.72 24.58-37.282 38.436c39.36 38.452 88.085 72.83 136.687 98.844c-26.054-48.633-60.754-97.847-99.405-137.28"/></svg><svg x="776.0" y="104.0" width="16.0" height="16.0" viewBox="0 0 512 512" fill="#4a3018"><path  d="M43.53 15.75c-15.73 0-28.31 12.583-28.31 28.313c0 14.086 10.092 25.644 23.5 27.906L42.687 68L68.81 41.906l2.626-2.625C69.188 25.86 57.63 15.75 43.53 15.75m33.72 44.125l-17 17c15.885 39.37 43.45 66.684 78.75 87.406a513 513 0 0 1 25.438-24.936c-22.488-35.103-51.535-62.294-87.188-79.47M322.594 79.03l-51.25 4.314c-79.356 48.134-143.878 108.1-186.72 186.53l-4.31 51.47l44.155-18.656l-2.94-34.094l-.25-3.063l1.626-2.624c35.94-58.47 79.93-109.41 141.5-141.25l2.406-1.25l2.688.25l34.125 2.906l18.97-44.53zm-62.438 66.376c-10.008 5.886-19.5 12.338-28.562 19.313c46.688 47.93 87.208 108.588 114.72 166.5l11.248 23.717l-23.718-11.28c-57.995-27.554-117.918-67.57-165.688-113.907a497 497 0 0 0-20.625 29.28c101.918 94.91 227.05 177.304 347.845 234.69c-57.063-120.125-140.038-246.18-235.22-348.314zm-43.03 31.22c-13.37 11.703-25.72 24.58-37.282 38.436c39.36 38.452 88.085 72.83 136.687 98.844c-26.054-48.633-60.754-97.847-99.405-137.28"/></svg></g><g class="prop"><title>Dropped mace</title><svg x="745.5" y="138.0" width="16.0" height="16.0" viewBox="0 0 512 512" fill="#000" fill-opacity=".25"><path  d="M487.666 24.334c-24.62 11.186-45.546 18.608-63.14 21.9l41.24 41.24c3.292-17.594 10.714-38.52 21.9-63.14m-86.082 24.414c-32.088 11.49-60.035 12.74-84.406 4.617l-9.674-3.222l-1.998 9.996c-10.117 50.582-18.887 83.28-36.71 121.694l61.37 61.37c38.413-17.823 71.112-26.593 121.695-36.71l9.997-1.998l-3.222-9.674c-8.124-24.37-6.873-52.318 4.617-84.406zm2.025 18.148c-13.847 11.685-29.848 19.95-55.34 19.95h-5.56l-2.487 4.974c-18.768 37.536-37.835 74.907-55.494 98.27c17.45-37.59 26.875-71.046 36.4-117.088c25.205 6.06 52.813 3.84 82.48-6.106zm7.902 16.276L303.65 194.957c17.364-24.354 33.734-57.204 50.276-90.32c24.903-1.193 42.88-10.125 57.586-21.465zm17.316 17.316c-11.34 14.707-20.272 32.683-21.465 57.586c-33.116 16.542-65.966 32.912-90.32 50.276zm16.276 7.903c-9.945 29.667-12.166 57.275-6.106 82.48c-46.042 9.525-79.5 18.95-117.088 36.4c23.363-17.658 60.734-36.725 98.27-55.493l4.974-2.488v-5.56c0-25.492 8.265-41.493 19.95-55.34zm-192.292 82.915l-12.728 12.728l67.883 67.883l12.728-12.728l-7.67-7.67l-52.543-52.543zm-6.363 41.718l-43.843 43.842l32.528 32.528l43.842-43.842zm-67.884 45.256l-12.728 12.728l55.154 55.154l12.73-12.728zm-14.142 36.77l-41.012 41.01l32.527 32.528l41.01-41.012zM99.37 357.474l-12.727 12.728l55.154 55.154l12.728-12.728zm-14.14 36.77L18 461.472V494h32.527l67.23-67.23z"/></svg><svg x="744.0" y="136.0" width="16.0" height="16.0" viewBox="0 0 512 512" fill="#4a3018"><path  d="M487.666 24.334c-24.62 11.186-45.546 18.608-63.14 21.9l41.24 41.24c3.292-17.594 10.714-38.52 21.9-63.14m-86.082 24.414c-32.088 11.49-60.035 12.74-84.406 4.617l-9.674-3.222l-1.998 9.996c-10.117 50.582-18.887 83.28-36.71 121.694l61.37 61.37c38.413-17.823 71.112-26.593 121.695-36.71l9.997-1.998l-3.222-9.674c-8.124-24.37-6.873-52.318 4.617-84.406zm2.025 18.148c-13.847 11.685-29.848 19.95-55.34 19.95h-5.56l-2.487 4.974c-18.768 37.536-37.835 74.907-55.494 98.27c17.45-37.59 26.875-71.046 36.4-117.088c25.205 6.06 52.813 3.84 82.48-6.106zm7.902 16.276L303.65 194.957c17.364-24.354 33.734-57.204 50.276-90.32c24.903-1.193 42.88-10.125 57.586-21.465zm17.316 17.316c-11.34 14.707-20.272 32.683-21.465 57.586c-33.116 16.542-65.966 32.912-90.32 50.276zm16.276 7.903c-9.945 29.667-12.166 57.275-6.106 82.48c-46.042 9.525-79.5 18.95-117.088 36.4c23.363-17.658 60.734-36.725 98.27-55.493l4.974-2.488v-5.56c0-25.492 8.265-41.493 19.95-55.34zm-192.292 82.915l-12.728 12.728l67.883 67.883l12.728-12.728l-7.67-7.67l-52.543-52.543zm-6.363 41.718l-43.843 43.842l32.528 32.528l43.842-43.842zm-67.884 45.256l-12.728 12.728l55.154 55.154l12.73-12.728zm-14.142 36.77l-41.012 41.01l32.527 32.528l41.01-41.012zM99.37 357.474l-12.727 12.728l55.154 55.154l12.728-12.728zm-14.14 36.77L18 461.472V494h32.527l67.23-67.23z"/></svg></g><g class="poi" data-poi="poi-1" style="cursor:pointer"><title>The Statue in Cage Five</title><circle cx="649" cy="265" r="7.5" fill="#6fb0ff" stroke="#10243d" stroke-width="2"/><text x="649" y="268.6" text-anchor="middle" font-family="Georgia,serif" font-weight="bold" font-size="10.5" fill="#10243d">i</text></g><g class="poi" data-poi="poi-2" style="cursor:pointer"><title>Weapon racks (Cage Three)</title><circle cx="137" cy="393" r="7.5" fill="#6fb0ff" stroke="#10243d" stroke-width="2"/><text x="137" y="396.6" text-anchor="middle" font-family="Georgia,serif" font-weight="bold" font-size="10.5" fill="#10243d">i</text></g><g class="poi" data-poi="poi-3" style="cursor:pointer"><title>The Carrow crates</title><circle cx="617" cy="105" r="7.5" fill="#6fb0ff" stroke="#10243d" stroke-width="2"/><text x="617" y="108.6" text-anchor="middle" font-family="Georgia,serif" font-weight="bold" font-size="10.5" fill="#10243d">i</text></g><g class="poi" data-poi="poi-4" style="cursor:pointer"><title>The stair head behind Cage Four</title><circle cx="745" cy="41" r="7.5" fill="#6fb0ff" stroke="#10243d" stroke-width="2"/><text x="745" y="44.6" text-anchor="middle" font-family="Georgia,serif" font-weight="bold" font-size="10.5" fill="#10243d">i</text></g><g class="poi" data-poi="poi-5" style="cursor:pointer"><title>The central aisle</title><circle cx="393" cy="425" r="7.5" fill="#6fb0ff" stroke="#10243d" stroke-width="2"/><text x="393" y="428.6" text-anchor="middle" font-family="Georgia,serif" font-weight="bold" font-size="10.5" fill="#10243d">i</text></g><defs><symbol id="i-hooded-assassin" viewBox="0 0 512 512"><path fill="currentColor" d="M332.031 66.13c-28.807-.01-55.439 14.149-67.88 40.65c20.79 1.744 16 55.07 16 55.07c-11.814 16.687-24.73 33.186-36.589 50.146c0 0-99.046 132.283-178.378 168.025c-28.049 22.593-33.305 36.532-44.137 52.649c-4.877 9.54 9.257 14.324 11.701 13.2c22.726-10.461 25.176-20.866 47.07-35.675c12.805-5.026 23.839-15.9 31.854-11.049c34.962 20.86 107.556 44.28 118.271 38.706c17.857-9.263-5.78-43.585 16.174-89.057c31.97-3.352 58.916-.885 88.332-12.094c3.483 50.279 10.106 54.59 6.766 107.092l71.2 1.045l.698-14.61l-41.814-11.105c11.528-56.054 11.816-78.996 4.672-127.996c-.956-6.622-53.746-8.275-81.012-3.79c24.449-24.202 40.274-45.24 47.506-68.44l.027.189c7.637 15.923 30.083 33.958 35.336 37.125c27.704 11.048 38.214 7.982 62.955 3.887c4.907-.784 27.47 24.537 44.807 9.597c2.642-20.238 16.522-20.369-4.938-32.71c-4.847-2.73-27.063 7.462-31.418 6.898c-20.21-2.481-30.954-5.211-58.45-12.703c-10.23-13.187-32.676-56.136-55.43-59.744c6.535-14.15 28.226-53.108 73.664-66.237c-20.943-26.54-49.925-39.057-76.987-39.068zm82.405 46.722c-46.658 19.516-58.266 50.4-58.266 50.4l9.916 7.644s9.646-4.765 48.35-58.044m23.04 160.005l-4.658 11.418c5.233-.083 10.425.47 15.328 1.608c-12.774 30.856-23.938 59.635-28.181 93.094l-.908 7.558l4.863-5.889c20.805-25.671 32.303-55.25 44.95-85.78c4.203 2.656 8.24 5.885 12.071 9.35l4.78-11.374l-20.518-8.526l-31.767 66.579l24.062-69.713z"/></symbol><symbol id="i-wizard-staff" viewBox="0 0 512 512"><path fill="currentColor" d="M335.656 19.53c-24.51.093-48.993 5.235-71.062 15.626c-22.46 10.577-43.112 34.202-58.375 62.563c-15.264 28.36-25.182 61.262-27.69 88.75c-7.487 82.112-51.926 155.352-159.78 252.56l-.188 21.44C89.216 403.443 139.915 346.632 176.313 290l.063.03c-9.293 32.473-22.623 63.18-43.594 87.97c-31.47 35.584-69.222 71.1-114.468 106.53l-.062 8.25l25 .064h.47l1.28-1.156c24.405-16.498 48.607-31.488 72.594-41.5l.187.187l-46.436 42.5l28.937.063c48.372-41.685 94.714-90.58 129.626-137c33.587-44.658 56.02-87.312 60.688-116.844c-1.268-2.32-2.552-4.628-3.656-7.094c-18.833-42.06-4.273-96.424 40.218-116.063c32.73-14.45 74.854-3.165 90.438 31.344c.15.333.324.634.47.97c13.302 24.062 6.175 49.48-9.345 61.97c-7.866 6.328-18.442 9.528-28.75 6.56c-10.31-2.966-19.043-11.772-24.5-25.124l17.28-7.062c3.992 9.764 8.667 13.15 12.375 14.22c3.708 1.066 7.767.148 11.875-3.158c8.216-6.61 14.282-21.91 4.406-39.03l-.28-.47l-.22-.5c-10.7-24.82-41.96-33.333-66.22-22.625c-34.063 15.037-45.594 58.052-30.686 91.345c20.527 45.846 77.97 61.177 122.375 40.875c60.157-27.5 80.13-103.328 53.094-161.813c-24.737-53.503-81.41-82.484-138.908-83.843c-1.633-.04-3.272-.07-4.906-.063zm-25.75 26.72c3.238.035 6.363.348 9.406.906c10.343 1.898 19.946 6.753 29.032 13.25c-30.623-5.437-58.324 4.612-80.78 24.782c-22.44 20.152-39.16 50.59-45.783 84.718c-4.655-11.358-7.166-21.462-6.686-31.72c.296-6.343 1.715-12.956 4.78-20.217c9.094-18.016 21.032-33.946 35.22-46.69c7.824-7.026 16.39-13.07 25.53-17.905c10.932-5.212 20.522-7.22 29.282-7.125zm122.938 62.313c22.583 13.167 34.365 41.86 32.937 70.656c-.564 11.395-3.466 22.975-8.905 33.624c-12.48 18.937-35.53 25.51-49.97 20.875l-.092-.25c27.943-10.365 39.18-32.377 40.312-55.19c.124-2.5.115-4.994-.03-7.468c1.447-13.31-.412-28.793-5.47-43.437c-2.244-6.496-5.15-12.89-8.844-18.72l.064-.093zm-135.563 1.312c-20.97 19.342-29.406 35.252-33.25 51.25c-3.848 16.023-2.788 32.84-2.905 52.875c-.14 23.79-2.56 51.542-18.438 85.688c-.005.012-.025.018-.03.03c-21.095 26.753-45.276 52.25-68.907 67.376l-.063-.03c64.195-71.545 68.527-114.792 68.75-153.19c.112-19.197-1.253-37.594 3.438-57.124a98 98 0 0 1 2-7.125h.03c8.098-17.036 16.572-26.058 25.47-31.563c7.18-4.44 15.035-6.697 23.906-8.187z"/></symbol><symbol id="i-sleepy" viewBox="0 0 512 512"><path fill="currentColor" d="M249.094 18.25c-42.675 0-81.852 25.486-110.938 68.438C109.07 129.637 90.72 189.74 90.72 256.28c0 66.543 18.35 126.643 47.436 169.595s68.263 68.47 110.938 68.47s81.883-25.518 110.97-68.47c29.084-42.952 47.436-103.052 47.436-169.594c0-66.54-18.352-126.64-47.438-169.592C330.978 43.736 291.77 18.25 249.094 18.25m-128.97 241.313c18.356 18.096 37.528 26.765 55.72 27.562c18.19.797 35.927-6.096 52.125-21.5l12.874 13.53c-19.214 18.274-42.25 27.658-65.813 26.626c-23.56-1.03-47.1-12.3-68-32.905zm264.782 0l13.125 13.312C377.135 293.48 353.564 304.75 330 305.78c-23.563 1.033-46.598-8.35-65.813-26.624l12.875-13.53c16.2 15.403 33.934 22.296 52.125 21.5c18.192-.798 37.365-9.467 55.72-27.563zM251.562 371.656c36.423-.156 72.996 19.144 77.438 58.406c-51.33 13.296-102.67 12.767-154 0c3.858-38.638 40.14-58.25 76.563-58.406z"/></symbol><symbol id="i-falling" viewBox="0 0 512 512"><path fill="currentColor" d="M221.313 16a23.682 23.695 0 0 0-23.688 23.688v106.406a23.682 23.695 0 0 0 2.156 9.72a23.682 23.695 0 0 0 3.157 13.81l41.75 71.626l-79 55.438l6.094-48.625a23.682 23.695 0 0 0-8.186-20.97l-66.28-81.937a23.682 23.695 0 0 0-33.314-3.5l-9.188 7.438a23.682 23.695 0 0 0-3.53 33.344l59.78 73.906l-11.25 89.937a23.682 23.695 0 0 0 12.47 23.876l37.468 53.47a23.695 23.682 1.57 0 0 2.344 2.812a23.682 23.695 0 0 0 13.594 20.062L262 491.53a23.682 23.695 0 0 0 9.97 2.22a23.682 23.695 0 0 0 23.53-2.063l87.156-60.937a23.682 23.695 0 0 0 5.844-33l-6.78-9.688a23.682 23.695 0 0 0-32.97-5.875l-72.406 50.657l-59.063-27.625l120.595-84.626a23.695 23.682 1.57 0 0 5.53-5.5a23.682 23.695 0 0 0 14.626-13.594l37.22-91.53l87.813-44.845a23.694 23.682 1.18 0 0 10.312-31.875L488 122.687a23.694 23.682 1.18 0 0-31.875-10.343l-94.688 48.375a23.694 23.682 1.18 0 0-9.843 9.436a23.682 23.695 0 0 0-8.344 10.47l-27.375 67.31l-5.22-7.436a23.682 23.695 0 0 0-3-8.844l-50.81-87.094V39.688A23.682 23.695 0 0 0 233.154 16h-11.843zM77.75 376A59.994 60 0 0 0 16 436a59.994 60 0 1 0 120 0a59.994 60 0 0 0-58.25-60"/></symbol><symbol id="i-crossed-swords" viewBox="0 0 512 512"><path fill="currentColor" d="M19.75 14.438c59.538 112.29 142.51 202.35 232.28 292.718l3.626 3.75l.063-.062c21.827 21.93 44.04 43.923 66.405 66.25c-18.856 14.813-38.974 28.2-59.938 40.312l28.532 28.53l68.717-68.717c42.337 27.636 76.286 63.646 104.094 105.81l28.064-28.06c-42.47-27.493-79.74-60.206-106.03-103.876l68.936-68.938l-28.53-28.53c-11.115 21.853-24.413 42.015-39.47 60.593c-43.852-43.8-86.462-85.842-130.125-125.47c-.224-.203-.432-.422-.656-.625C183.624 122.75 108.515 63.91 19.75 14.437zm471.875 0c-83.038 46.28-154.122 100.78-221.97 161.156l22.814 21.562l56.81-56.812l13.22 13.187l-56.438 56.44l24.594 23.186c61.802-66.92 117.6-136.92 160.97-218.72zm-329.53 125.906l200.56 200.53a403 403 0 0 1-13.405 13.032L148.875 153.53zm-76.69 113.28l-28.5 28.532l68.907 68.906c-26.29 43.673-63.53 76.414-106 103.907l28.063 28.06c27.807-42.164 61.758-78.174 104.094-105.81l68.718 68.717l28.53-28.53c-20.962-12.113-41.08-25.5-59.937-40.313c17.865-17.83 35.61-35.433 53.157-52.97l-24.843-25.655l-55.47 55.467c-4.565-4.238-9.014-8.62-13.374-13.062l55.844-55.844l-24.53-25.374c-18.28 17.856-36.602 36.06-55.158 54.594c-15.068-18.587-28.38-38.758-39.5-60.625z"/></symbol><symbol id="i-harp" viewBox="0 0 512 512"><path fill="currentColor" d="m120.7 27.53l-28.93 8.56C112.1 187.8 125.6 321.9 183.9 455H228c-40-140.6-84.2-280.4-107.3-427.47m19.9 10.36c2.6 16.05 5.5 32.03 8.7 47.95c9.8 2.67 19.9 6.9 30.1 11.85c18.3 8.71 37.3 19.81 56.1 29.51s37.3 17.9 53.6 21.1c16.4 3.2 29.8 1.7 41.6-7c22.2-16.4 38.4-26.2 51.3-31.4c12.8-5.2 23.3-5.9 31.6-1.8c7.8 4 11.5 11.1 14.2 17.1l5.1-11.3c-7.3-12.9-18.1-21.38-32.9-23.26c-16.2-2.05-38.4 4.06-66 25.66c-14.4 11.3-33 9.7-50.6 2.8c-17.5-6.9-35.7-18.9-54.2-31.64c-18.6-12.74-37.3-26.21-54.8-35.98c-12.3-6.86-23.8-11.66-33.8-13.59m12.8 68.31q7.2 34.5 15.6 68.7v-62.2c-5.4-2.6-10.6-4.8-15.6-6.5M404.8 124c-27 110.6-55.1 223.8-97.7 331h38.6c34.5-94.4 51-203.5 70.3-311.3c-1.8-3.8-3-7.4-4.3-10.4c-2.3-5.3-4.3-8.1-6.3-9.1c-.2-.1-.4-.2-.6-.2M199 128.1v160.4c5.9 21.1 11.9 42.1 18 63.1V137.8c-6.1-3.2-12.1-6.5-18-9.7M361 142q-8.1 5.4-18 12.6V288h1c5.9-20.9 11.5-41.8 17-62.8zm-114 10.8V455h18V160.2c-6-2.2-12-4.7-18-7.4m66 14.3c-5.9.7-11.9.8-18 .2v269.8c6.3-16.4 12.3-32.9 18-49.6zM163.9 473l-15.1 16h214.4l-15.1-16z"/></symbol><symbol id="i-wizard-face" viewBox="0 0 512 512"><path fill="currentColor" d="M256.3 19.42C204 57.2 177.2 111 152.5 160.7c43.4-24.6 101.7-32.9 126.9-28.7c-63.8 10.6-108 25.8-144.4 64.3c-2.2 4.5-4.1 8.3-6.4 13.1c115.4-27.8 134.4-27 250.9-.7C368 158.6 343 126.6 304 65.83C345.9 118.4 428.1 208.1 424.3 190.6C401.4 85.73 324.2 23.49 256.3 19.42M88 231.3c-31 7.4-53.9 17.5-62.8 26.7c.9 11.7 6.7 22.1 17.5 32c11.8 10.8 29.6 20.4 51.3 28.1q4.035 1.35 8.1 2.7c-8.4-11-11.2-26.3-13-41.1c0-15.4-3-33.5-1.1-48.4m336 0c2.2 16.2.6 34.5-1.1 48.4c-1.8 14.8-4.6 30.1-13 41.1c20.2-7 44.6-17.6 59.4-30.8c10.8-9.9 16.6-20.3 17.5-32c-8.9-9.2-31.7-19.3-62.8-26.7m-274.4.3l-7 14h98.8l-7-14zm128 0l-7 14h98.8l-7-14zM119 241c-4.7 1.3-9.4 2.6-14 4.1c1 19.9.6 47.6 11.6 64.5h2.4zm274 0v68.6h2.4c10.5-20.7 11.3-41.8 11.6-64.5c-4.6-1.5-9.3-2.8-14-4.1m-255.9 22.6c-.3 18.8 2 39.5 6.2 55.7c21.1-14.1 41.9-25.7 64.7-25.7c3.2 0 6.4.2 9.4.4l5.2-15.7c-5.6 5.7-12.9 8.9-23.2 8.5c-25.2-.8-33.9-11.1-37.5-23.2zm109.4 0l-12.4 37.2l21.9 27.4l21.9-27.4l-12.4-37.2zm103.6 0c-3.6 12.1-12.3 22.4-37.5 23.2c-10.3.4-17.6-2.8-23.2-8.5l5.2 15.7c3.1-.3 6.3-.4 9.4-.4c22.8 0 43.6 11.6 64.7 25.7c4.4-20.1 6.8-37.6 6.2-55.7zm-142.1 48c-20 0-43 14.5-68.9 32.4c-19.2 13.3-39.9 28.1-63.3 38.4c28.6 6.1 65.8 4.8 98.2-2.6c21.3-4.8 40.5-12.1 53.7-20.5c8.5-5.5 14.1-11.1 17-16.4l-24.2-30.3c-3.7-.6-7.9-1-12.5-1m96 0c-4.6 0-8.8.4-12.5 1l-24.2 30.3c2.9 5.3 8.5 10.9 17 16.4c13.2 8.4 32.4 15.7 53.7 20.5c32.4 7.4 69.6 8.7 98.2 2.6c-23.4-10.3-44.1-25.1-63.3-38.4c-25.9-17.9-48.9-32.4-68.9-32.4m-48 46.7c-4.6 5.7-10.6 10.8-17.4 15.3h34.8c-6.8-4.5-12.8-9.6-17.4-15.3m-56.7 33.3c-6.9 2.2-14 4.1-21.3 5.8c-9.5 2.2-19.2 3.9-28.9 5.1c6.1 19.6 14.1 39.5 23 58.2l.1.2c4.3-6.7 9.4-13.1 13.5-19.8c-2.4 13.9-3.3 27.9-2.3 41.8c1.7 3.3 3.5 6.5 5.3 9.7h134.6c3.6-6.3 7-12.7 10.3-19.2c5.4-21.9 3.9-42.8 5.4-64.2c3.1 11.5 6.1 23 8.5 34.7c5.8-13.6 11.1-27.6 15.4-41.4c-9.7-1.2-19.4-2.9-28.9-5.1c-7.3-1.7-14.4-3.6-21.3-5.8z"/></symbol><symbol id="i-poison-bottle" viewBox="0 0 512 512"><path fill="currentColor" d="M181.78 33v51.53h149.407V33zm14.19 70.22c-.66 2.9-1.554 5.263-2.75 6.936c-2.684 3.75-7.033 6.594-19.5 6.594c-21.54 0-40.804 5.862-55.157 16.094s-23.907 25.398-23.907 42.5V426.75c0 32.34 26.255 58.625 58.594 58.625h213.47c32.338 0 58.592-26.286 58.592-58.625V175.344c0-17.102-9.527-32.2-23.593-42.438s-32.83-16.156-53.44-16.156c-16.69 0-23.62-3.488-26.874-7.188c-1.41-1.604-2.43-3.698-3.156-6.343h-19.125c1.073 6.658 3.37 13.137 8.25 18.686c8.11 9.223 21.523 13.53 40.906 13.53c16.978 0 32.056 5.008 42.44 12.564c10.38 7.556 15.905 17.1 15.905 27.344V426.75c0 22.355-17.55 39.938-39.906 39.938H153.25c-22.355 0-39.906-17.583-39.906-39.938V175.344c0-10.245 5.455-19.72 16.062-27.28c10.607-7.563 26.22-12.626 44.313-12.626c15.962 0 28.056-5.142 34.686-14.407c3.904-5.455 5.733-11.545 6.625-17.81zm66.093 45.405c-30.545 0-50.062 12.865-63.282 32.313c-12.295 18.09-18.387 42.315-19.186 66.062c25.033 12.795 39.555 27.632 43.844 44.97a46 46 0 0 1 1.312 8.905c9.01 5.134 23.22 8.44 37.813 8.438c12.935-.002 26.08-2.538 36.093-6.875a49.4 49.4 0 0 1 1.47-10c4.486-17.583 19.028-33.2 44.405-45.563c-.838-22.46-6.793-46.595-19-64.938c-13.2-19.84-32.745-33.312-63.467-33.312zM232.188 223.5c9.157 0 16.593 7.405 16.593 16.563s-7.435 16.593-16.593 16.593c-9.157 0-16.562-7.436-16.562-16.594c0-9.157 7.405-16.562 16.563-16.562zm55.437 0c9.158 0 16.594 7.405 16.594 16.563s-7.438 16.593-16.595 16.593s-16.563-7.436-16.563-16.594c0-9.157 7.405-16.562 16.563-16.562zm-28.844 33.594c6.275 13.248 11.25 26.503 13.72 39.75c-9.148-3.022-18.29-3.426-27.438 0c3.34-13.25 7.352-26.504 13.72-39.75zm-37.03 63.47c-2.136 6.42-5.285 12.778-9.188 19.03c11.93 7.99 31.58 12.81 50.875 12.594c18.97-.214 36.878-5.57 46.22-12.407c-3.55-5.764-6.412-11.8-8.344-18c-11.947 4.416-25.424 6.375-38.75 6.376c-14.447.002-28.77-2.222-40.813-7.594zm-70.656 17.06c-8.9 11.268-12.694 22.493-10.03 36.313c68.925 5.54 164.194 31.92 226.686 60.75c9.16-11.166 12.518-22.67 9.97-36.78c-67.77-6.867-164.135-28.736-226.626-60.282zm216.594 0c-20.79 10.496-45.326 19.907-71.313 28.063c20.298 4.434 40.253 8.04 58.72 10.688c7.782-1.026 15.357-1.853 22.624-2.438c2.66-13.82-1.133-25.045-10.033-36.312zm-203.75 57.532a652 652 0 0 1-22.875 2.75c-2.55 14.11.81 25.615 9.968 36.78c21.375-9.86 46.575-19.447 73.25-27.998c-20.87-4.912-41.385-8.868-60.343-11.532"/></symbol></defs><g id='tokens'><g class="token dead" data-id="brass-warden-stores-door" data-stack="" opacity=".6"><title>Brass Warden (stores door) (defeated)</title><circle cx="392.8" cy="311.2" r="7.2" fill="#3a3030" stroke="#111" stroke-width="1.5"/><path d="M388.48 306.88 L397.12 315.52 M397.12 306.88 L388.48 315.52" stroke="#d9443b" stroke-width="2"/></g><g class="token dead" data-id="dock-warden-a" data-stack="" opacity=".6"><title>Warden Hennick (defeated)</title><circle cx="520.8" cy="119.2" r="7.2" fill="#3a3030" stroke="#111" stroke-width="1.5"/><path d="M516.4799999999999 114.88 L525.12 123.52000000000001 M525.12 114.88 L516.4799999999999 123.52000000000001" stroke="#d9443b" stroke-width="2"/></g><g class="token dead" data-id="barge-collector-c" data-stack="" opacity=".6"><title>Barge Collector C (defeated)</title><circle cx="776.8" cy="151.2" r="7.2" fill="#3a3030" stroke="#111" stroke-width="1.5"/><path d="M772.4799999999999 146.88 L781.12 155.51999999999998 M781.12 146.88 L772.4799999999999 155.51999999999998" stroke="#d9443b" stroke-width="2"/></g><g class="token dead" data-id="barge-collector-d" data-stack="" opacity=".6"><title>Barge Collector D (defeated)</title><circle cx="744.8" cy="151.2" r="7.2" fill="#3a3030" stroke="#111" stroke-width="1.5"/><path d="M740.4799999999999 146.88 L749.12 155.51999999999998 M749.12 146.88 L740.4799999999999 155.51999999999998" stroke="#d9443b" stroke-width="2"/></g><g class="token dead" data-id="sergeant-mallory" data-stack="" opacity=".6"><title>Sergeant Mallory (defeated)</title><circle cx="584.8" cy="87.2" r="7.2" fill="#3a3030" stroke="#111" stroke-width="1.5"/><path d="M580.4799999999999 82.88 L589.12 91.52000000000001 M589.12 82.88 L580.4799999999999 91.52000000000001" stroke="#d9443b" stroke-width="2"/></g><g class="token dead" data-id="escort-warden-a" data-stack="" opacity=".6"><title>Escort Warden A (defeated)</title><circle cx="744.8" cy="183.2" r="7.2" fill="#3a3030" stroke="#111" stroke-width="1.5"/><path d="M740.4799999999999 178.88 L749.12 187.51999999999998 M749.12 178.88 L740.4799999999999 187.51999999999998" stroke="#d9443b" stroke-width="2"/></g><g class="token current" data-id="kit" data-stack="" data-cx="624.0" data-cy="48.0" data-r="16.0" data-side="pc" opacity="1"><title>Kit Corvell</title><circle cx="624.0" cy="48.0" r="19.0" fill="none" stroke="#ffd34d" stroke-width="4" filter="url(#glow)"><animate attributeName="stroke-opacity" values="1;.35;1" dur="1.6s" repeatCount="indefinite"/></circle><circle cx="626.0" cy="51.0" r="15.0" fill="#000" fill-opacity=".3"/><circle cx="624.0" cy="48.0" r="15.0" fill="#2f8fdd"/><circle cx="624.0" cy="48.0" r="12.0" fill="hsl(328,38%,26%)"/><use href="#i-hooded-assassin" x="614.0" y="38.0" width="20.0" height="20.0" fill="#f4efe6"/><rect x="611.0" y="59.0" width="26.0" height="5" rx="2" fill="#111" fill-opacity=".7"/><rect class="hpbar" data-w="26.0" x="611.0" y="59.0" width="6.685714285714285" height="5" rx="2" fill="#e0a030"/><g class="nametag"><rect x="614.4" y="64.5" width="19.1" height="11" rx="3" fill="#0c0a10" fill-opacity=".72"/><text x="624.0" y="73.0" text-anchor="middle" font-size="9" font-weight="600" fill="#fff">Kit</text></g></g><g class="token" data-id="corvin" data-stack="" data-cx="400.0" data-cy="272.0" data-r="16.0" data-side="pc" opacity="1"><title>Corvin Asche</title><circle cx="402.0" cy="275.0" r="15.0" fill="#000" fill-opacity=".3"/><circle cx="400.0" cy="272.0" r="15.0" fill="#2f8fdd"/><circle cx="400.0" cy="272.0" r="12.0" fill="hsl(348,38%,26%)"/><use href="#i-wizard-staff" x="390.0" y="262.0" width="20.0" height="20.0" fill="#f4efe6"/><rect x="387.0" y="283.0" width="26.0" height="5" rx="2" fill="#111" fill-opacity=".7"/><rect class="hpbar" data-w="26.0" x="387.0" y="283.0" width="0.0" height="5" rx="2" fill="#d9443b"/><circle cx="410.0" cy="262.0" r="7" fill="#fff" stroke="#222"/><use href="#i-sleepy" x="404.0" y="256.0" width="12" height="12" fill="#222"/><circle cx="397.0" cy="262.0" r="7" fill="#fff" stroke="#222"/><use href="#i-falling" x="391.0" y="256.0" width="12" height="12" fill="#222"/><g class="nametag"><rect x="382.9" y="288.5" width="34.2" height="11" rx="3" fill="#0c0a10" fill-opacity=".72"/><text x="400.0" y="297.0" text-anchor="middle" font-size="9" font-weight="600" fill="#fff">Corvin</text></g></g><g class="token" data-id="brakka" data-stack="" data-cx="720.0" data-cy="112.0" data-r="16.0" data-side="pc" opacity="1"><title>Brakka Holloway</title><circle cx="722.0" cy="115.0" r="15.0" fill="#000" fill-opacity=".3"/><circle cx="720.0" cy="112.0" r="15.0" fill="#2f8fdd"/><circle cx="720.0" cy="112.0" r="12.0" fill="hsl(144,38%,26%)"/><use href="#i-crossed-swords" x="710.0" y="102.0" width="20.0" height="20.0" fill="#f4efe6"/><rect x="707.0" y="123.0" width="26.0" height="5" rx="2" fill="#111" fill-opacity=".7"/><rect class="hpbar" data-w="26.0" x="707.0" y="123.0" width="5.777777777777778" height="5" rx="2" fill="#d9443b"/><g class="nametag"><rect x="702.9" y="128.5" width="34.2" height="11" rx="3" fill="#0c0a10" fill-opacity=".72"/><text x="720.0" y="137.0" text-anchor="middle" font-size="9" font-weight="600" fill="#fff">Brakka</text></g></g><g class="token" data-id="ottilie" data-stack="" data-cx="464.0" data-cy="80.0" data-r="16.0" data-side="pc" opacity="1"><title>Ottilie Marsh</title><circle cx="466.0" cy="83.0" r="15.0" fill="#000" fill-opacity=".3"/><circle cx="464.0" cy="80.0" r="15.0" fill="#2f8fdd"/><circle cx="464.0" cy="80.0" r="12.0" fill="hsl(330,38%,26%)"/><use href="#i-harp" x="454.0" y="70.0" width="20.0" height="20.0" fill="#f4efe6"/><rect x="451.0" y="91.0" width="26.0" height="5" rx="2" fill="#111" fill-opacity=".7"/><rect class="hpbar" data-w="26.0" x="451.0" y="91.0" width="0.0" height="5" rx="2" fill="#d9443b"/><circle cx="474.0" cy="70.0" r="7" fill="#fff" stroke="#222"/><use href="#i-sleepy" x="468.0" y="64.0" width="12" height="12" fill="#222"/><circle cx="461.0" cy="70.0" r="7" fill="#fff" stroke="#222"/><use href="#i-falling" x="455.0" y="64.0" width="12" height="12" fill="#222"/><g class="nametag"><rect x="444.4" y="96.5" width="39.3" height="11" rx="3" fill="#0c0a10" fill-opacity=".72"/><text x="464.0" y="105.0" text-anchor="middle" font-size="9" font-weight="600" fill="#fff">Ottilie</text></g></g><g class="token" data-id="the-grand-curator" data-stack="" data-cx="560.0" data-cy="48.0" data-r="16.0" data-side="enemy" opacity="1"><title>The Grand Curator</title><circle cx="562.0" cy="51.0" r="15.0" fill="#000" fill-opacity=".3"/><circle cx="560.0" cy="48.0" r="15.0" fill="#d9443b"/><circle cx="560.0" cy="48.0" r="12.0" fill="hsl(205,38%,26%)"/><use href="#i-wizard-face" x="550.0" y="38.0" width="20.0" height="20.0" fill="#f4efe6"/><path d="M548.8 36.8 L571.2 59.2" stroke="#d9443b" stroke-width="3" stroke-opacity=".85"/><circle cx="570.0" cy="38.0" r="7" fill="#fff" stroke="#222"/><use href="#i-poison-bottle" x="564.0" y="32.0" width="12" height="12" fill="#222"/><g class="nametag"><rect x="540.4" y="64.5" width="39.3" height="11" rx="3" fill="#0c0a10" fill-opacity=".72"/><text x="560.0" y="73.0" text-anchor="middle" font-size="9" font-weight="600" fill="#fff">Curator</text></g></g></g><g id="fog" fill="#0b0a0f" shape-rendering="crispEdges"></g></svg>